G04 #@! TF.GenerationSoftware,KiCad,Pcbnew,(5.1.2)-1*
G04 #@! TF.CreationDate,2021-03-27T08:32:09+00:00*
G04 #@! TF.ProjectId,RPI_kits_PCB05,5250495f-6b69-4747-935f-50434230352e,rev?*
G04 #@! TF.SameCoordinates,Original*
G04 #@! TF.FileFunction,Legend,Top*
G04 #@! TF.FilePolarity,Positive*
%FSLAX46Y46*%
G04 Gerber Fmt 4.6, Leading zero omitted, Abs format (unit mm)*
G04 Created by KiCad (PCBNEW (5.1.2)-1) date 2021-03-27 08:32:09*
%MOMM*%
%LPD*%
G04 APERTURE LIST*
%ADD10C,0.300000*%
%ADD11C,0.200000*%
%ADD12C,0.150000*%
%ADD13C,0.120000*%
G04 APERTURE END LIST*
D10*
X141299238Y-121509523D02*
X140665904Y-120604761D01*
X140213523Y-121509523D02*
X140213523Y-119609523D01*
X140937333Y-119609523D01*
X141118285Y-119700000D01*
X141208761Y-119790476D01*
X141299238Y-119971428D01*
X141299238Y-120242857D01*
X141208761Y-120423809D01*
X141118285Y-120514285D01*
X140937333Y-120604761D01*
X140213523Y-120604761D01*
X142113523Y-121509523D02*
X142113523Y-119609523D01*
X142837333Y-119609523D01*
X143018285Y-119700000D01*
X143108761Y-119790476D01*
X143199238Y-119971428D01*
X143199238Y-120242857D01*
X143108761Y-120423809D01*
X143018285Y-120514285D01*
X142837333Y-120604761D01*
X142113523Y-120604761D01*
X144013523Y-121509523D02*
X144013523Y-120242857D01*
X144013523Y-119609523D02*
X143923047Y-119700000D01*
X144013523Y-119790476D01*
X144104000Y-119700000D01*
X144013523Y-119609523D01*
X144013523Y-119790476D01*
X146365904Y-121509523D02*
X146365904Y-119609523D01*
X146546857Y-120785714D02*
X147089714Y-121509523D01*
X147089714Y-120242857D02*
X146365904Y-120966666D01*
X147904000Y-121509523D02*
X147904000Y-120242857D01*
X147904000Y-119609523D02*
X147813523Y-119700000D01*
X147904000Y-119790476D01*
X147994476Y-119700000D01*
X147904000Y-119609523D01*
X147904000Y-119790476D01*
X148537333Y-120242857D02*
X149261142Y-120242857D01*
X148808761Y-119609523D02*
X148808761Y-121238095D01*
X148899238Y-121419047D01*
X149080190Y-121509523D01*
X149261142Y-121509523D01*
X149804000Y-121419047D02*
X149984952Y-121509523D01*
X150346857Y-121509523D01*
X150527809Y-121419047D01*
X150618285Y-121238095D01*
X150618285Y-121147619D01*
X150527809Y-120966666D01*
X150346857Y-120876190D01*
X150075428Y-120876190D01*
X149894476Y-120785714D01*
X149804000Y-120604761D01*
X149804000Y-120514285D01*
X149894476Y-120333333D01*
X150075428Y-120242857D01*
X150346857Y-120242857D01*
X150527809Y-120333333D01*
X152880190Y-121509523D02*
X152880190Y-119609523D01*
X153604000Y-119609523D01*
X153784952Y-119700000D01*
X153875428Y-119790476D01*
X153965904Y-119971428D01*
X153965904Y-120242857D01*
X153875428Y-120423809D01*
X153784952Y-120514285D01*
X153604000Y-120604761D01*
X152880190Y-120604761D01*
X155865904Y-121328571D02*
X155775428Y-121419047D01*
X155504000Y-121509523D01*
X155323047Y-121509523D01*
X155051619Y-121419047D01*
X154870666Y-121238095D01*
X154780190Y-121057142D01*
X154689714Y-120695238D01*
X154689714Y-120423809D01*
X154780190Y-120061904D01*
X154870666Y-119880952D01*
X155051619Y-119700000D01*
X155323047Y-119609523D01*
X155504000Y-119609523D01*
X155775428Y-119700000D01*
X155865904Y-119790476D01*
X157313523Y-120514285D02*
X157584952Y-120604761D01*
X157675428Y-120695238D01*
X157765904Y-120876190D01*
X157765904Y-121147619D01*
X157675428Y-121328571D01*
X157584952Y-121419047D01*
X157404000Y-121509523D01*
X156680190Y-121509523D01*
X156680190Y-119609523D01*
X157313523Y-119609523D01*
X157494476Y-119700000D01*
X157584952Y-119790476D01*
X157675428Y-119971428D01*
X157675428Y-120152380D01*
X157584952Y-120333333D01*
X157494476Y-120423809D01*
X157313523Y-120514285D01*
X156680190Y-120514285D01*
X159846857Y-120242857D02*
X160299238Y-121509523D01*
X160751619Y-120242857D01*
X162380190Y-119609523D02*
X161475428Y-119609523D01*
X161384952Y-120514285D01*
X161475428Y-120423809D01*
X161656380Y-120333333D01*
X162108761Y-120333333D01*
X162289714Y-120423809D01*
X162380190Y-120514285D01*
X162470666Y-120695238D01*
X162470666Y-121147619D01*
X162380190Y-121328571D01*
X162289714Y-121419047D01*
X162108761Y-121509523D01*
X161656380Y-121509523D01*
X161475428Y-121419047D01*
X161384952Y-121328571D01*
X163284952Y-121328571D02*
X163375428Y-121419047D01*
X163284952Y-121509523D01*
X163194476Y-121419047D01*
X163284952Y-121328571D01*
X163284952Y-121509523D01*
X164551619Y-119609523D02*
X164732571Y-119609523D01*
X164913523Y-119700000D01*
X165004000Y-119790476D01*
X165094476Y-119971428D01*
X165184952Y-120333333D01*
X165184952Y-120785714D01*
X165094476Y-121147619D01*
X165004000Y-121328571D01*
X164913523Y-121419047D01*
X164732571Y-121509523D01*
X164551619Y-121509523D01*
X164370666Y-121419047D01*
X164280190Y-121328571D01*
X164189714Y-121147619D01*
X164099238Y-120785714D01*
X164099238Y-120333333D01*
X164189714Y-119971428D01*
X164280190Y-119790476D01*
X164370666Y-119700000D01*
X164551619Y-119609523D01*
D11*
X166751047Y-110561428D02*
X167512952Y-110561428D01*
X167132000Y-110942380D02*
X167132000Y-110180476D01*
X159893047Y-110561428D02*
X160654952Y-110561428D01*
X160274000Y-110942380D02*
X160274000Y-110180476D01*
X153035047Y-110561428D02*
X153796952Y-110561428D01*
X153416000Y-110942380D02*
X153416000Y-110180476D01*
D12*
X115373142Y-80968857D02*
X115487428Y-81006952D01*
X115525523Y-81045047D01*
X115563619Y-81121238D01*
X115563619Y-81235523D01*
X115525523Y-81311714D01*
X115487428Y-81349809D01*
X115411238Y-81387904D01*
X115106476Y-81387904D01*
X115106476Y-80587904D01*
X115373142Y-80587904D01*
X115449333Y-80626000D01*
X115487428Y-80664095D01*
X115525523Y-80740285D01*
X115525523Y-80816476D01*
X115487428Y-80892666D01*
X115449333Y-80930761D01*
X115373142Y-80968857D01*
X115106476Y-80968857D01*
X115779523Y-83166000D02*
X115703333Y-83127904D01*
X115589047Y-83127904D01*
X115474761Y-83166000D01*
X115398571Y-83242190D01*
X115360476Y-83318380D01*
X115322380Y-83470761D01*
X115322380Y-83585047D01*
X115360476Y-83737428D01*
X115398571Y-83813619D01*
X115474761Y-83889809D01*
X115589047Y-83927904D01*
X115665238Y-83927904D01*
X115779523Y-83889809D01*
X115817619Y-83851714D01*
X115817619Y-83585047D01*
X115665238Y-83585047D01*
X115817619Y-90785904D02*
X115550952Y-90404952D01*
X115360476Y-90785904D02*
X115360476Y-89985904D01*
X115665238Y-89985904D01*
X115741428Y-90024000D01*
X115779523Y-90062095D01*
X115817619Y-90138285D01*
X115817619Y-90252571D01*
X115779523Y-90328761D01*
X115741428Y-90366857D01*
X115665238Y-90404952D01*
X115360476Y-90404952D01*
X118606333Y-92010666D02*
X118606333Y-91310666D01*
X118823000Y-91810666D01*
X119039666Y-91310666D01*
X119039666Y-92010666D01*
X119473000Y-91310666D02*
X119596809Y-91310666D01*
X119658714Y-91344000D01*
X119720619Y-91410666D01*
X119751571Y-91544000D01*
X119751571Y-91777333D01*
X119720619Y-91910666D01*
X119658714Y-91977333D01*
X119596809Y-92010666D01*
X119473000Y-92010666D01*
X119411095Y-91977333D01*
X119349190Y-91910666D01*
X119318238Y-91777333D01*
X119318238Y-91544000D01*
X119349190Y-91410666D01*
X119411095Y-91344000D01*
X119473000Y-91310666D01*
X119999190Y-91977333D02*
X120092047Y-92010666D01*
X120246809Y-92010666D01*
X120308714Y-91977333D01*
X120339666Y-91944000D01*
X120370619Y-91877333D01*
X120370619Y-91810666D01*
X120339666Y-91744000D01*
X120308714Y-91710666D01*
X120246809Y-91677333D01*
X120123000Y-91644000D01*
X120061095Y-91610666D01*
X120030142Y-91577333D01*
X119999190Y-91510666D01*
X119999190Y-91444000D01*
X120030142Y-91377333D01*
X120061095Y-91344000D01*
X120123000Y-91310666D01*
X120277761Y-91310666D01*
X120370619Y-91344000D01*
X120649190Y-92010666D02*
X120649190Y-91310666D01*
X121453952Y-92010666D02*
X121453952Y-91310666D01*
X121670619Y-91810666D01*
X121887285Y-91310666D01*
X121887285Y-92010666D01*
X122196809Y-92010666D02*
X122196809Y-91310666D01*
X122475380Y-91977333D02*
X122568238Y-92010666D01*
X122723000Y-92010666D01*
X122784904Y-91977333D01*
X122815857Y-91944000D01*
X122846809Y-91877333D01*
X122846809Y-91810666D01*
X122815857Y-91744000D01*
X122784904Y-91710666D01*
X122723000Y-91677333D01*
X122599190Y-91644000D01*
X122537285Y-91610666D01*
X122506333Y-91577333D01*
X122475380Y-91510666D01*
X122475380Y-91444000D01*
X122506333Y-91377333D01*
X122537285Y-91344000D01*
X122599190Y-91310666D01*
X122753952Y-91310666D01*
X122846809Y-91344000D01*
X123249190Y-91310666D02*
X123373000Y-91310666D01*
X123434904Y-91344000D01*
X123496809Y-91410666D01*
X123527761Y-91544000D01*
X123527761Y-91777333D01*
X123496809Y-91910666D01*
X123434904Y-91977333D01*
X123373000Y-92010666D01*
X123249190Y-92010666D01*
X123187285Y-91977333D01*
X123125380Y-91910666D01*
X123094428Y-91777333D01*
X123094428Y-91544000D01*
X123125380Y-91410666D01*
X123187285Y-91344000D01*
X123249190Y-91310666D01*
X124270619Y-91977333D02*
X124363476Y-92010666D01*
X124518238Y-92010666D01*
X124580142Y-91977333D01*
X124611095Y-91944000D01*
X124642047Y-91877333D01*
X124642047Y-91810666D01*
X124611095Y-91744000D01*
X124580142Y-91710666D01*
X124518238Y-91677333D01*
X124394428Y-91644000D01*
X124332523Y-91610666D01*
X124301571Y-91577333D01*
X124270619Y-91510666D01*
X124270619Y-91444000D01*
X124301571Y-91377333D01*
X124332523Y-91344000D01*
X124394428Y-91310666D01*
X124549190Y-91310666D01*
X124642047Y-91344000D01*
X125292047Y-91944000D02*
X125261095Y-91977333D01*
X125168238Y-92010666D01*
X125106333Y-92010666D01*
X125013476Y-91977333D01*
X124951571Y-91910666D01*
X124920619Y-91844000D01*
X124889666Y-91710666D01*
X124889666Y-91610666D01*
X124920619Y-91477333D01*
X124951571Y-91410666D01*
X125013476Y-91344000D01*
X125106333Y-91310666D01*
X125168238Y-91310666D01*
X125261095Y-91344000D01*
X125292047Y-91377333D01*
X125880142Y-92010666D02*
X125570619Y-92010666D01*
X125570619Y-91310666D01*
X126096809Y-92010666D02*
X126096809Y-91310666D01*
X126468238Y-92010666D02*
X126189666Y-91610666D01*
X126468238Y-91310666D02*
X126096809Y-91710666D01*
X127613476Y-91944000D02*
X127582523Y-91977333D01*
X127489666Y-92010666D01*
X127427761Y-92010666D01*
X127334904Y-91977333D01*
X127273000Y-91910666D01*
X127242047Y-91844000D01*
X127211095Y-91710666D01*
X127211095Y-91610666D01*
X127242047Y-91477333D01*
X127273000Y-91410666D01*
X127334904Y-91344000D01*
X127427761Y-91310666D01*
X127489666Y-91310666D01*
X127582523Y-91344000D01*
X127613476Y-91377333D01*
X127892047Y-91644000D02*
X128108714Y-91644000D01*
X128201571Y-92010666D02*
X127892047Y-92010666D01*
X127892047Y-91310666D01*
X128201571Y-91310666D01*
X128603952Y-91310666D02*
X128665857Y-91310666D01*
X128727761Y-91344000D01*
X128758714Y-91377333D01*
X128789666Y-91444000D01*
X128820619Y-91577333D01*
X128820619Y-91744000D01*
X128789666Y-91877333D01*
X128758714Y-91944000D01*
X128727761Y-91977333D01*
X128665857Y-92010666D01*
X128603952Y-92010666D01*
X128542047Y-91977333D01*
X128511095Y-91944000D01*
X128480142Y-91877333D01*
X128449190Y-91744000D01*
X128449190Y-91577333D01*
X128480142Y-91444000D01*
X128511095Y-91377333D01*
X128542047Y-91344000D01*
X128603952Y-91310666D01*
X111815809Y-96390666D02*
X112218190Y-96390666D01*
X112001523Y-96657333D01*
X112094380Y-96657333D01*
X112156285Y-96690666D01*
X112187238Y-96724000D01*
X112218190Y-96790666D01*
X112218190Y-96957333D01*
X112187238Y-97024000D01*
X112156285Y-97057333D01*
X112094380Y-97090666D01*
X111908666Y-97090666D01*
X111846761Y-97057333D01*
X111815809Y-97024000D01*
X112403904Y-96390666D02*
X112620571Y-97090666D01*
X112837238Y-96390666D01*
X112992000Y-96390666D02*
X113394380Y-96390666D01*
X113177714Y-96657333D01*
X113270571Y-96657333D01*
X113332476Y-96690666D01*
X113363428Y-96724000D01*
X113394380Y-96790666D01*
X113394380Y-96957333D01*
X113363428Y-97024000D01*
X113332476Y-97057333D01*
X113270571Y-97090666D01*
X113084857Y-97090666D01*
X113022952Y-97057333D01*
X112992000Y-97024000D01*
X114972952Y-96390666D02*
X114663428Y-96390666D01*
X114632476Y-96724000D01*
X114663428Y-96690666D01*
X114725333Y-96657333D01*
X114880095Y-96657333D01*
X114942000Y-96690666D01*
X114972952Y-96724000D01*
X115003904Y-96790666D01*
X115003904Y-96957333D01*
X114972952Y-97024000D01*
X114942000Y-97057333D01*
X114880095Y-97090666D01*
X114725333Y-97090666D01*
X114663428Y-97057333D01*
X114632476Y-97024000D01*
X115189619Y-96390666D02*
X115406285Y-97090666D01*
X115622952Y-96390666D01*
X117170571Y-96424000D02*
X117108666Y-96390666D01*
X117015809Y-96390666D01*
X116922952Y-96424000D01*
X116861047Y-96490666D01*
X116830095Y-96557333D01*
X116799142Y-96690666D01*
X116799142Y-96790666D01*
X116830095Y-96924000D01*
X116861047Y-96990666D01*
X116922952Y-97057333D01*
X117015809Y-97090666D01*
X117077714Y-97090666D01*
X117170571Y-97057333D01*
X117201523Y-97024000D01*
X117201523Y-96790666D01*
X117077714Y-96790666D01*
X117480095Y-97090666D02*
X117480095Y-96390666D01*
X117851523Y-97090666D01*
X117851523Y-96390666D01*
X118161047Y-97090666D02*
X118161047Y-96390666D01*
X118315809Y-96390666D01*
X118408666Y-96424000D01*
X118470571Y-96490666D01*
X118501523Y-96557333D01*
X118532476Y-96690666D01*
X118532476Y-96790666D01*
X118501523Y-96924000D01*
X118470571Y-96990666D01*
X118408666Y-97057333D01*
X118315809Y-97090666D01*
X118161047Y-97090666D01*
X119306285Y-97090666D02*
X119306285Y-96390666D01*
X119615809Y-97090666D02*
X119615809Y-96390666D01*
X119987238Y-97090666D01*
X119987238Y-96390666D01*
X120575333Y-96624000D02*
X120575333Y-97090666D01*
X120420571Y-96357333D02*
X120265809Y-96857333D01*
X120668190Y-96857333D01*
X121906285Y-97090666D02*
X121906285Y-96390666D01*
X122215809Y-97090666D02*
X122215809Y-96390666D01*
X122587238Y-97090666D01*
X122587238Y-96390666D01*
X122834857Y-96390666D02*
X123237238Y-96390666D01*
X123020571Y-96657333D01*
X123113428Y-96657333D01*
X123175333Y-96690666D01*
X123206285Y-96724000D01*
X123237238Y-96790666D01*
X123237238Y-96957333D01*
X123206285Y-97024000D01*
X123175333Y-97057333D01*
X123113428Y-97090666D01*
X122927714Y-97090666D01*
X122865809Y-97057333D01*
X122834857Y-97024000D01*
X124506285Y-97090666D02*
X124506285Y-96390666D01*
X124815809Y-97090666D02*
X124815809Y-96390666D01*
X125187238Y-97090666D01*
X125187238Y-96390666D01*
X125465809Y-96457333D02*
X125496761Y-96424000D01*
X125558666Y-96390666D01*
X125713428Y-96390666D01*
X125775333Y-96424000D01*
X125806285Y-96457333D01*
X125837238Y-96524000D01*
X125837238Y-96590666D01*
X125806285Y-96690666D01*
X125434857Y-97090666D01*
X125837238Y-97090666D01*
X127106285Y-97090666D02*
X127106285Y-96390666D01*
X127415809Y-97090666D02*
X127415809Y-96390666D01*
X127787238Y-97090666D01*
X127787238Y-96390666D01*
X128437238Y-97090666D02*
X128065809Y-97090666D01*
X128251523Y-97090666D02*
X128251523Y-96390666D01*
X128189619Y-96490666D01*
X128127714Y-96557333D01*
X128065809Y-96590666D01*
X115976476Y-86976000D02*
X115900285Y-86937904D01*
X115786000Y-86937904D01*
X115671714Y-86976000D01*
X115595523Y-87052190D01*
X115557428Y-87128380D01*
X115519333Y-87280761D01*
X115519333Y-87395047D01*
X115557428Y-87547428D01*
X115595523Y-87623619D01*
X115671714Y-87699809D01*
X115786000Y-87737904D01*
X115862190Y-87737904D01*
X115976476Y-87699809D01*
X116014571Y-87661714D01*
X116014571Y-87395047D01*
X115862190Y-87395047D01*
X116357428Y-87737904D02*
X116357428Y-86937904D01*
X116814571Y-87737904D01*
X116814571Y-86937904D01*
X117195523Y-87737904D02*
X117195523Y-86937904D01*
X117386000Y-86937904D01*
X117500285Y-86976000D01*
X117576476Y-87052190D01*
X117614571Y-87128380D01*
X117652666Y-87280761D01*
X117652666Y-87395047D01*
X117614571Y-87547428D01*
X117576476Y-87623619D01*
X117500285Y-87699809D01*
X117386000Y-87737904D01*
X117195523Y-87737904D01*
D11*
X164552380Y-84010476D02*
X164552380Y-84486666D01*
X165028571Y-84534285D01*
X164980952Y-84486666D01*
X164933333Y-84391428D01*
X164933333Y-84153333D01*
X164980952Y-84058095D01*
X165028571Y-84010476D01*
X165123809Y-83962857D01*
X165361904Y-83962857D01*
X165457142Y-84010476D01*
X165504761Y-84058095D01*
X165552380Y-84153333D01*
X165552380Y-84391428D01*
X165504761Y-84486666D01*
X165457142Y-84534285D01*
X164552380Y-83677142D02*
X165552380Y-83343809D01*
X164552380Y-83010476D01*
X164552380Y-92646476D02*
X164552380Y-93122666D01*
X165028571Y-93170285D01*
X164980952Y-93122666D01*
X164933333Y-93027428D01*
X164933333Y-92789333D01*
X164980952Y-92694095D01*
X165028571Y-92646476D01*
X165123809Y-92598857D01*
X165361904Y-92598857D01*
X165457142Y-92646476D01*
X165504761Y-92694095D01*
X165552380Y-92789333D01*
X165552380Y-93027428D01*
X165504761Y-93122666D01*
X165457142Y-93170285D01*
X164552380Y-92313142D02*
X165552380Y-91979809D01*
X164552380Y-91646476D01*
X164552380Y-101282476D02*
X164552380Y-101758666D01*
X165028571Y-101806285D01*
X164980952Y-101758666D01*
X164933333Y-101663428D01*
X164933333Y-101425333D01*
X164980952Y-101330095D01*
X165028571Y-101282476D01*
X165123809Y-101234857D01*
X165361904Y-101234857D01*
X165457142Y-101282476D01*
X165504761Y-101330095D01*
X165552380Y-101425333D01*
X165552380Y-101663428D01*
X165504761Y-101758666D01*
X165457142Y-101806285D01*
X164552380Y-100949142D02*
X165552380Y-100615809D01*
X164552380Y-100282476D01*
X159766095Y-69604000D02*
X159670857Y-69556380D01*
X159528000Y-69556380D01*
X159385142Y-69604000D01*
X159289904Y-69699238D01*
X159242285Y-69794476D01*
X159194666Y-69984952D01*
X159194666Y-70127809D01*
X159242285Y-70318285D01*
X159289904Y-70413523D01*
X159385142Y-70508761D01*
X159528000Y-70556380D01*
X159623238Y-70556380D01*
X159766095Y-70508761D01*
X159813714Y-70461142D01*
X159813714Y-70127809D01*
X159623238Y-70127809D01*
X160242285Y-70556380D02*
X160242285Y-69556380D01*
X160813714Y-70556380D01*
X160813714Y-69556380D01*
X161289904Y-70556380D02*
X161289904Y-69556380D01*
X161528000Y-69556380D01*
X161670857Y-69604000D01*
X161766095Y-69699238D01*
X161813714Y-69794476D01*
X161861333Y-69984952D01*
X161861333Y-70127809D01*
X161813714Y-70318285D01*
X161766095Y-70413523D01*
X161670857Y-70508761D01*
X161528000Y-70556380D01*
X161289904Y-70556380D01*
X155511523Y-69810380D02*
X155035333Y-69810380D01*
X154987714Y-70286571D01*
X155035333Y-70238952D01*
X155130571Y-70191333D01*
X155368666Y-70191333D01*
X155463904Y-70238952D01*
X155511523Y-70286571D01*
X155559142Y-70381809D01*
X155559142Y-70619904D01*
X155511523Y-70715142D01*
X155463904Y-70762761D01*
X155368666Y-70810380D01*
X155130571Y-70810380D01*
X155035333Y-70762761D01*
X154987714Y-70715142D01*
X155844857Y-69810380D02*
X156178190Y-70810380D01*
X156511523Y-69810380D01*
X147644000Y-67762380D02*
X147644000Y-66762380D01*
X147986857Y-66762380D01*
X148072571Y-66810000D01*
X148115428Y-66857619D01*
X148158285Y-66952857D01*
X148158285Y-67095714D01*
X148115428Y-67190952D01*
X148072571Y-67238571D01*
X147986857Y-67286190D01*
X147644000Y-67286190D01*
X148458285Y-66762380D02*
X148672571Y-67762380D01*
X148844000Y-67048095D01*
X149015428Y-67762380D01*
X149229714Y-66762380D01*
X150086857Y-67762380D02*
X149786857Y-67286190D01*
X149572571Y-67762380D02*
X149572571Y-66762380D01*
X149915428Y-66762380D01*
X150001142Y-66810000D01*
X150044000Y-66857619D01*
X150086857Y-66952857D01*
X150086857Y-67095714D01*
X150044000Y-67190952D01*
X150001142Y-67238571D01*
X149915428Y-67286190D01*
X149572571Y-67286190D01*
X131318095Y-120658000D02*
X131222857Y-120610380D01*
X131080000Y-120610380D01*
X130937142Y-120658000D01*
X130841904Y-120753238D01*
X130794285Y-120848476D01*
X130746666Y-121038952D01*
X130746666Y-121181809D01*
X130794285Y-121372285D01*
X130841904Y-121467523D01*
X130937142Y-121562761D01*
X131080000Y-121610380D01*
X131175238Y-121610380D01*
X131318095Y-121562761D01*
X131365714Y-121515142D01*
X131365714Y-121181809D01*
X131175238Y-121181809D01*
X131794285Y-121610380D02*
X131794285Y-120610380D01*
X132365714Y-121610380D01*
X132365714Y-120610380D01*
X132841904Y-121610380D02*
X132841904Y-120610380D01*
X133080000Y-120610380D01*
X133222857Y-120658000D01*
X133318095Y-120753238D01*
X133365714Y-120848476D01*
X133413333Y-121038952D01*
X133413333Y-121181809D01*
X133365714Y-121372285D01*
X133318095Y-121467523D01*
X133222857Y-121562761D01*
X133080000Y-121610380D01*
X132841904Y-121610380D01*
X130711714Y-67524380D02*
X131268857Y-67524380D01*
X130968857Y-67905333D01*
X131097428Y-67905333D01*
X131183142Y-67952952D01*
X131226000Y-68000571D01*
X131268857Y-68095809D01*
X131268857Y-68333904D01*
X131226000Y-68429142D01*
X131183142Y-68476761D01*
X131097428Y-68524380D01*
X130840285Y-68524380D01*
X130754571Y-68476761D01*
X130711714Y-68429142D01*
X131526000Y-67524380D02*
X131826000Y-68524380D01*
X132126000Y-67524380D01*
X132340285Y-67524380D02*
X132897428Y-67524380D01*
X132597428Y-67905333D01*
X132726000Y-67905333D01*
X132811714Y-67952952D01*
X132854571Y-68000571D01*
X132897428Y-68095809D01*
X132897428Y-68333904D01*
X132854571Y-68429142D01*
X132811714Y-68476761D01*
X132726000Y-68524380D01*
X132468857Y-68524380D01*
X132383142Y-68476761D01*
X132340285Y-68429142D01*
X135191523Y-67524380D02*
X134715333Y-67524380D01*
X134667714Y-68000571D01*
X134715333Y-67952952D01*
X134810571Y-67905333D01*
X135048666Y-67905333D01*
X135143904Y-67952952D01*
X135191523Y-68000571D01*
X135239142Y-68095809D01*
X135239142Y-68333904D01*
X135191523Y-68429142D01*
X135143904Y-68476761D01*
X135048666Y-68524380D01*
X134810571Y-68524380D01*
X134715333Y-68476761D01*
X134667714Y-68429142D01*
X135524857Y-67524380D02*
X135858190Y-68524380D01*
X136191523Y-67524380D01*
X109336000Y-104544761D02*
X109250285Y-104592380D01*
X109078857Y-104592380D01*
X108993142Y-104544761D01*
X108950285Y-104449523D01*
X108950285Y-104068571D01*
X108993142Y-103973333D01*
X109078857Y-103925714D01*
X109250285Y-103925714D01*
X109336000Y-103973333D01*
X109378857Y-104068571D01*
X109378857Y-104163809D01*
X108950285Y-104259047D01*
X109764571Y-104592380D02*
X109764571Y-103925714D01*
X109764571Y-104020952D02*
X109807428Y-103973333D01*
X109893142Y-103925714D01*
X110021714Y-103925714D01*
X110107428Y-103973333D01*
X110150285Y-104068571D01*
X110150285Y-104592380D01*
X110150285Y-104068571D02*
X110193142Y-103973333D01*
X110278857Y-103925714D01*
X110407428Y-103925714D01*
X110493142Y-103973333D01*
X110536000Y-104068571D01*
X110536000Y-104592380D01*
X110964571Y-104592380D02*
X110964571Y-103925714D01*
X110964571Y-103592380D02*
X110921714Y-103640000D01*
X110964571Y-103687619D01*
X111007428Y-103640000D01*
X110964571Y-103592380D01*
X110964571Y-103687619D01*
X111264571Y-103925714D02*
X111607428Y-103925714D01*
X111393142Y-103592380D02*
X111393142Y-104449523D01*
X111436000Y-104544761D01*
X111521714Y-104592380D01*
X111607428Y-104592380D01*
X110061428Y-102004761D02*
X109975714Y-102052380D01*
X109804285Y-102052380D01*
X109718571Y-102004761D01*
X109675714Y-101957142D01*
X109632857Y-101861904D01*
X109632857Y-101576190D01*
X109675714Y-101480952D01*
X109718571Y-101433333D01*
X109804285Y-101385714D01*
X109975714Y-101385714D01*
X110061428Y-101433333D01*
X110575714Y-102052380D02*
X110490000Y-102004761D01*
X110447142Y-101957142D01*
X110404285Y-101861904D01*
X110404285Y-101576190D01*
X110447142Y-101480952D01*
X110490000Y-101433333D01*
X110575714Y-101385714D01*
X110704285Y-101385714D01*
X110790000Y-101433333D01*
X110832857Y-101480952D01*
X110875714Y-101576190D01*
X110875714Y-101861904D01*
X110832857Y-101957142D01*
X110790000Y-102004761D01*
X110704285Y-102052380D01*
X110575714Y-102052380D01*
X111390000Y-102052380D02*
X111304285Y-102004761D01*
X111261428Y-101909523D01*
X111261428Y-101052380D01*
X127660476Y-68180000D02*
X127584285Y-68141904D01*
X127470000Y-68141904D01*
X127355714Y-68180000D01*
X127279523Y-68256190D01*
X127241428Y-68332380D01*
X127203333Y-68484761D01*
X127203333Y-68599047D01*
X127241428Y-68751428D01*
X127279523Y-68827619D01*
X127355714Y-68903809D01*
X127470000Y-68941904D01*
X127546190Y-68941904D01*
X127660476Y-68903809D01*
X127698571Y-68865714D01*
X127698571Y-68599047D01*
X127546190Y-68599047D01*
X128041428Y-68941904D02*
X128041428Y-68141904D01*
X128498571Y-68941904D01*
X128498571Y-68141904D01*
X128879523Y-68941904D02*
X128879523Y-68141904D01*
X129070000Y-68141904D01*
X129184285Y-68180000D01*
X129260476Y-68256190D01*
X129298571Y-68332380D01*
X129336666Y-68484761D01*
X129336666Y-68599047D01*
X129298571Y-68751428D01*
X129260476Y-68827619D01*
X129184285Y-68903809D01*
X129070000Y-68941904D01*
X128879523Y-68941904D01*
X122237619Y-68903809D02*
X122351904Y-68941904D01*
X122542380Y-68941904D01*
X122618571Y-68903809D01*
X122656666Y-68865714D01*
X122694761Y-68789523D01*
X122694761Y-68713333D01*
X122656666Y-68637142D01*
X122618571Y-68599047D01*
X122542380Y-68560952D01*
X122390000Y-68522857D01*
X122313809Y-68484761D01*
X122275714Y-68446666D01*
X122237619Y-68370476D01*
X122237619Y-68294285D01*
X122275714Y-68218095D01*
X122313809Y-68180000D01*
X122390000Y-68141904D01*
X122580476Y-68141904D01*
X122694761Y-68180000D01*
X123494761Y-68865714D02*
X123456666Y-68903809D01*
X123342380Y-68941904D01*
X123266190Y-68941904D01*
X123151904Y-68903809D01*
X123075714Y-68827619D01*
X123037619Y-68751428D01*
X122999523Y-68599047D01*
X122999523Y-68484761D01*
X123037619Y-68332380D01*
X123075714Y-68256190D01*
X123151904Y-68180000D01*
X123266190Y-68141904D01*
X123342380Y-68141904D01*
X123456666Y-68180000D01*
X123494761Y-68218095D01*
X124218571Y-68941904D02*
X123837619Y-68941904D01*
X123837619Y-68141904D01*
X119678571Y-68903809D02*
X119792857Y-68941904D01*
X119983333Y-68941904D01*
X120059523Y-68903809D01*
X120097619Y-68865714D01*
X120135714Y-68789523D01*
X120135714Y-68713333D01*
X120097619Y-68637142D01*
X120059523Y-68599047D01*
X119983333Y-68560952D01*
X119830952Y-68522857D01*
X119754761Y-68484761D01*
X119716666Y-68446666D01*
X119678571Y-68370476D01*
X119678571Y-68294285D01*
X119716666Y-68218095D01*
X119754761Y-68180000D01*
X119830952Y-68141904D01*
X120021428Y-68141904D01*
X120135714Y-68180000D01*
X120478571Y-68941904D02*
X120478571Y-68141904D01*
X120669047Y-68141904D01*
X120783333Y-68180000D01*
X120859523Y-68256190D01*
X120897619Y-68332380D01*
X120935714Y-68484761D01*
X120935714Y-68599047D01*
X120897619Y-68751428D01*
X120859523Y-68827619D01*
X120783333Y-68903809D01*
X120669047Y-68941904D01*
X120478571Y-68941904D01*
X121240476Y-68713333D02*
X121621428Y-68713333D01*
X121164285Y-68941904D02*
X121430952Y-68141904D01*
X121697619Y-68941904D01*
X116865523Y-68141904D02*
X117360761Y-68141904D01*
X117094095Y-68446666D01*
X117208380Y-68446666D01*
X117284571Y-68484761D01*
X117322666Y-68522857D01*
X117360761Y-68599047D01*
X117360761Y-68789523D01*
X117322666Y-68865714D01*
X117284571Y-68903809D01*
X117208380Y-68941904D01*
X116979809Y-68941904D01*
X116903619Y-68903809D01*
X116865523Y-68865714D01*
X117589333Y-68141904D02*
X117856000Y-68941904D01*
X118122666Y-68141904D01*
X118313142Y-68141904D02*
X118808380Y-68141904D01*
X118541714Y-68446666D01*
X118656000Y-68446666D01*
X118732190Y-68484761D01*
X118770285Y-68522857D01*
X118808380Y-68599047D01*
X118808380Y-68789523D01*
X118770285Y-68865714D01*
X118732190Y-68903809D01*
X118656000Y-68941904D01*
X118427428Y-68941904D01*
X118351238Y-68903809D01*
X118313142Y-68865714D01*
X124777619Y-70935809D02*
X124891904Y-70973904D01*
X125082380Y-70973904D01*
X125158571Y-70935809D01*
X125196666Y-70897714D01*
X125234761Y-70821523D01*
X125234761Y-70745333D01*
X125196666Y-70669142D01*
X125158571Y-70631047D01*
X125082380Y-70592952D01*
X124930000Y-70554857D01*
X124853809Y-70516761D01*
X124815714Y-70478666D01*
X124777619Y-70402476D01*
X124777619Y-70326285D01*
X124815714Y-70250095D01*
X124853809Y-70212000D01*
X124930000Y-70173904D01*
X125120476Y-70173904D01*
X125234761Y-70212000D01*
X126034761Y-70897714D02*
X125996666Y-70935809D01*
X125882380Y-70973904D01*
X125806190Y-70973904D01*
X125691904Y-70935809D01*
X125615714Y-70859619D01*
X125577619Y-70783428D01*
X125539523Y-70631047D01*
X125539523Y-70516761D01*
X125577619Y-70364380D01*
X125615714Y-70288190D01*
X125691904Y-70212000D01*
X125806190Y-70173904D01*
X125882380Y-70173904D01*
X125996666Y-70212000D01*
X126034761Y-70250095D01*
X126758571Y-70973904D02*
X126377619Y-70973904D01*
X126377619Y-70173904D01*
X122218571Y-70935809D02*
X122332857Y-70973904D01*
X122523333Y-70973904D01*
X122599523Y-70935809D01*
X122637619Y-70897714D01*
X122675714Y-70821523D01*
X122675714Y-70745333D01*
X122637619Y-70669142D01*
X122599523Y-70631047D01*
X122523333Y-70592952D01*
X122370952Y-70554857D01*
X122294761Y-70516761D01*
X122256666Y-70478666D01*
X122218571Y-70402476D01*
X122218571Y-70326285D01*
X122256666Y-70250095D01*
X122294761Y-70212000D01*
X122370952Y-70173904D01*
X122561428Y-70173904D01*
X122675714Y-70212000D01*
X123018571Y-70973904D02*
X123018571Y-70173904D01*
X123209047Y-70173904D01*
X123323333Y-70212000D01*
X123399523Y-70288190D01*
X123437619Y-70364380D01*
X123475714Y-70516761D01*
X123475714Y-70631047D01*
X123437619Y-70783428D01*
X123399523Y-70859619D01*
X123323333Y-70935809D01*
X123209047Y-70973904D01*
X123018571Y-70973904D01*
X123780476Y-70745333D02*
X124161428Y-70745333D01*
X123704285Y-70973904D02*
X123970952Y-70173904D01*
X124237619Y-70973904D01*
X119659523Y-70173904D02*
X120154761Y-70173904D01*
X119888095Y-70478666D01*
X120002380Y-70478666D01*
X120078571Y-70516761D01*
X120116666Y-70554857D01*
X120154761Y-70631047D01*
X120154761Y-70821523D01*
X120116666Y-70897714D01*
X120078571Y-70935809D01*
X120002380Y-70973904D01*
X119773809Y-70973904D01*
X119697619Y-70935809D01*
X119659523Y-70897714D01*
X120383333Y-70173904D02*
X120650000Y-70973904D01*
X120916666Y-70173904D01*
X121107142Y-70173904D02*
X121602380Y-70173904D01*
X121335714Y-70478666D01*
X121450000Y-70478666D01*
X121526190Y-70516761D01*
X121564285Y-70554857D01*
X121602380Y-70631047D01*
X121602380Y-70821523D01*
X121564285Y-70897714D01*
X121526190Y-70935809D01*
X121450000Y-70973904D01*
X121221428Y-70973904D01*
X121145238Y-70935809D01*
X121107142Y-70897714D01*
X117246476Y-70212000D02*
X117170285Y-70173904D01*
X117056000Y-70173904D01*
X116941714Y-70212000D01*
X116865523Y-70288190D01*
X116827428Y-70364380D01*
X116789333Y-70516761D01*
X116789333Y-70631047D01*
X116827428Y-70783428D01*
X116865523Y-70859619D01*
X116941714Y-70935809D01*
X117056000Y-70973904D01*
X117132190Y-70973904D01*
X117246476Y-70935809D01*
X117284571Y-70897714D01*
X117284571Y-70631047D01*
X117132190Y-70631047D01*
X117627428Y-70973904D02*
X117627428Y-70173904D01*
X118084571Y-70973904D01*
X118084571Y-70173904D01*
X118465523Y-70973904D02*
X118465523Y-70173904D01*
X118656000Y-70173904D01*
X118770285Y-70212000D01*
X118846476Y-70288190D01*
X118884571Y-70364380D01*
X118922666Y-70516761D01*
X118922666Y-70631047D01*
X118884571Y-70783428D01*
X118846476Y-70859619D01*
X118770285Y-70935809D01*
X118656000Y-70973904D01*
X118465523Y-70973904D01*
X115163619Y-70173904D02*
X114782666Y-70173904D01*
X114744571Y-70554857D01*
X114782666Y-70516761D01*
X114858857Y-70478666D01*
X115049333Y-70478666D01*
X115125523Y-70516761D01*
X115163619Y-70554857D01*
X115201714Y-70631047D01*
X115201714Y-70821523D01*
X115163619Y-70897714D01*
X115125523Y-70935809D01*
X115049333Y-70973904D01*
X114858857Y-70973904D01*
X114782666Y-70935809D01*
X114744571Y-70897714D01*
X115430285Y-70173904D02*
X115696952Y-70973904D01*
X115963619Y-70173904D01*
X145288095Y-87892000D02*
X145192857Y-87844380D01*
X145050000Y-87844380D01*
X144907142Y-87892000D01*
X144811904Y-87987238D01*
X144764285Y-88082476D01*
X144716666Y-88272952D01*
X144716666Y-88415809D01*
X144764285Y-88606285D01*
X144811904Y-88701523D01*
X144907142Y-88796761D01*
X145050000Y-88844380D01*
X145145238Y-88844380D01*
X145288095Y-88796761D01*
X145335714Y-88749142D01*
X145335714Y-88415809D01*
X145145238Y-88415809D01*
X145764285Y-88844380D02*
X145764285Y-87844380D01*
X146335714Y-88844380D01*
X146335714Y-87844380D01*
X146811904Y-88844380D02*
X146811904Y-87844380D01*
X147050000Y-87844380D01*
X147192857Y-87892000D01*
X147288095Y-87987238D01*
X147335714Y-88082476D01*
X147383333Y-88272952D01*
X147383333Y-88415809D01*
X147335714Y-88606285D01*
X147288095Y-88701523D01*
X147192857Y-88796761D01*
X147050000Y-88844380D01*
X146811904Y-88844380D01*
X143065523Y-87844380D02*
X142589333Y-87844380D01*
X142541714Y-88320571D01*
X142589333Y-88272952D01*
X142684571Y-88225333D01*
X142922666Y-88225333D01*
X143017904Y-88272952D01*
X143065523Y-88320571D01*
X143113142Y-88415809D01*
X143113142Y-88653904D01*
X143065523Y-88749142D01*
X143017904Y-88796761D01*
X142922666Y-88844380D01*
X142684571Y-88844380D01*
X142589333Y-88796761D01*
X142541714Y-88749142D01*
X143398857Y-87844380D02*
X143732190Y-88844380D01*
X144065523Y-87844380D01*
D12*
X151739619Y-74745904D02*
X151358666Y-74745904D01*
X151320571Y-75126857D01*
X151358666Y-75088761D01*
X151434857Y-75050666D01*
X151625333Y-75050666D01*
X151701523Y-75088761D01*
X151739619Y-75126857D01*
X151777714Y-75203047D01*
X151777714Y-75393523D01*
X151739619Y-75469714D01*
X151701523Y-75507809D01*
X151625333Y-75545904D01*
X151434857Y-75545904D01*
X151358666Y-75507809D01*
X151320571Y-75469714D01*
X152006285Y-74745904D02*
X152272952Y-75545904D01*
X152539619Y-74745904D01*
X148742476Y-74784000D02*
X148666285Y-74745904D01*
X148552000Y-74745904D01*
X148437714Y-74784000D01*
X148361523Y-74860190D01*
X148323428Y-74936380D01*
X148285333Y-75088761D01*
X148285333Y-75203047D01*
X148323428Y-75355428D01*
X148361523Y-75431619D01*
X148437714Y-75507809D01*
X148552000Y-75545904D01*
X148628190Y-75545904D01*
X148742476Y-75507809D01*
X148780571Y-75469714D01*
X148780571Y-75203047D01*
X148628190Y-75203047D01*
X149123428Y-75545904D02*
X149123428Y-74745904D01*
X149580571Y-75545904D01*
X149580571Y-74745904D01*
X149961523Y-75545904D02*
X149961523Y-74745904D01*
X150152000Y-74745904D01*
X150266285Y-74784000D01*
X150342476Y-74860190D01*
X150380571Y-74936380D01*
X150418666Y-75088761D01*
X150418666Y-75203047D01*
X150380571Y-75355428D01*
X150342476Y-75431619D01*
X150266285Y-75507809D01*
X150152000Y-75545904D01*
X149961523Y-75545904D01*
X145567523Y-74745904D02*
X146062761Y-74745904D01*
X145796095Y-75050666D01*
X145910380Y-75050666D01*
X145986571Y-75088761D01*
X146024666Y-75126857D01*
X146062761Y-75203047D01*
X146062761Y-75393523D01*
X146024666Y-75469714D01*
X145986571Y-75507809D01*
X145910380Y-75545904D01*
X145681809Y-75545904D01*
X145605619Y-75507809D01*
X145567523Y-75469714D01*
X146291333Y-74745904D02*
X146558000Y-75545904D01*
X146824666Y-74745904D01*
X147015142Y-74745904D02*
X147510380Y-74745904D01*
X147243714Y-75050666D01*
X147358000Y-75050666D01*
X147434190Y-75088761D01*
X147472285Y-75126857D01*
X147510380Y-75203047D01*
X147510380Y-75393523D01*
X147472285Y-75469714D01*
X147434190Y-75507809D01*
X147358000Y-75545904D01*
X147129428Y-75545904D01*
X147053238Y-75507809D01*
X147015142Y-75469714D01*
D11*
X142303523Y-78684380D02*
X141732095Y-78684380D01*
X142017809Y-78684380D02*
X142017809Y-77684380D01*
X141922571Y-77827238D01*
X141827333Y-77922476D01*
X141732095Y-77970095D01*
X142874952Y-78112952D02*
X142779714Y-78065333D01*
X142732095Y-78017714D01*
X142684476Y-77922476D01*
X142684476Y-77874857D01*
X142732095Y-77779619D01*
X142779714Y-77732000D01*
X142874952Y-77684380D01*
X143065428Y-77684380D01*
X143160666Y-77732000D01*
X143208285Y-77779619D01*
X143255904Y-77874857D01*
X143255904Y-77922476D01*
X143208285Y-78017714D01*
X143160666Y-78065333D01*
X143065428Y-78112952D01*
X142874952Y-78112952D01*
X142779714Y-78160571D01*
X142732095Y-78208190D01*
X142684476Y-78303428D01*
X142684476Y-78493904D01*
X142732095Y-78589142D01*
X142779714Y-78636761D01*
X142874952Y-78684380D01*
X143065428Y-78684380D01*
X143160666Y-78636761D01*
X143208285Y-78589142D01*
X143255904Y-78493904D01*
X143255904Y-78303428D01*
X143208285Y-78208190D01*
X143160666Y-78160571D01*
X143065428Y-78112952D01*
X142303523Y-76144380D02*
X141732095Y-76144380D01*
X142017809Y-76144380D02*
X142017809Y-75144380D01*
X141922571Y-75287238D01*
X141827333Y-75382476D01*
X141732095Y-75430095D01*
X143208285Y-75144380D02*
X142732095Y-75144380D01*
X142684476Y-75620571D01*
X142732095Y-75572952D01*
X142827333Y-75525333D01*
X143065428Y-75525333D01*
X143160666Y-75572952D01*
X143208285Y-75620571D01*
X143255904Y-75715809D01*
X143255904Y-75953904D01*
X143208285Y-76049142D01*
X143160666Y-76096761D01*
X143065428Y-76144380D01*
X142827333Y-76144380D01*
X142732095Y-76096761D01*
X142684476Y-76049142D01*
X142303523Y-73604380D02*
X141732095Y-73604380D01*
X142017809Y-73604380D02*
X142017809Y-72604380D01*
X141922571Y-72747238D01*
X141827333Y-72842476D01*
X141732095Y-72890095D01*
X143160666Y-72937714D02*
X143160666Y-73604380D01*
X142922571Y-72556761D02*
X142684476Y-73271047D01*
X143303523Y-73271047D01*
X142176476Y-70143714D02*
X142176476Y-70810380D01*
X141938380Y-69762761D02*
X141700285Y-70477047D01*
X142319333Y-70477047D01*
D13*
X112965173Y-82937185D02*
G75*
G03X112501170Y-88285000I1080827J-2787815D01*
G01*
X115126827Y-82937185D02*
G75*
G02X115590830Y-88285000I-1080827J-2787815D01*
G01*
X112965571Y-83470521D02*
G75*
G03X112966000Y-87979684I1080429J-2254479D01*
G01*
X115126429Y-83470521D02*
G75*
G02X115126000Y-87979684I-1080429J-2254479D01*
G01*
X112501000Y-88285000D02*
X112966000Y-88285000D01*
X115126000Y-88285000D02*
X115591000Y-88285000D01*
X149812000Y-102870000D02*
G75*
G03X149812000Y-102870000I-6100000J0D01*
G01*
X122484000Y-106895000D02*
X122484000Y-106880000D01*
X122484000Y-109020000D02*
X122484000Y-109005000D01*
X127024000Y-106895000D02*
X127024000Y-106880000D01*
X127024000Y-109020000D02*
X127024000Y-109005000D01*
X127024000Y-106880000D02*
X122484000Y-106880000D01*
X127024000Y-109020000D02*
X122484000Y-109020000D01*
X127024000Y-119688000D02*
X122484000Y-119688000D01*
X127024000Y-117548000D02*
X122484000Y-117548000D01*
X127024000Y-119688000D02*
X127024000Y-119673000D01*
X127024000Y-117563000D02*
X127024000Y-117548000D01*
X122484000Y-119688000D02*
X122484000Y-119673000D01*
X122484000Y-117563000D02*
X122484000Y-117548000D01*
X164358000Y-114067000D02*
X164358000Y-110977000D01*
X164298000Y-112522000D02*
G75*
G03X164298000Y-112522000I-2500000J0D01*
G01*
X158808000Y-112522462D02*
G75*
G02X164358000Y-110977170I2990000J462D01*
G01*
X158808000Y-112521538D02*
G75*
G03X164358000Y-114066830I2990000J-462D01*
G01*
X114240000Y-75692000D02*
X114240000Y-74362000D01*
X114240000Y-74362000D02*
X115570000Y-74362000D01*
X116840000Y-74362000D02*
X127060000Y-74362000D01*
X127060000Y-77022000D02*
X127060000Y-74362000D01*
X116840000Y-77022000D02*
X127060000Y-77022000D01*
X116840000Y-77022000D02*
X116840000Y-74362000D01*
X116840000Y-74482000D02*
X116840000Y-71822000D01*
X116840000Y-74482000D02*
X127060000Y-74482000D01*
X127060000Y-74482000D02*
X127060000Y-71822000D01*
X116840000Y-71822000D02*
X127060000Y-71822000D01*
X114240000Y-71822000D02*
X115570000Y-71822000D01*
X114240000Y-73152000D02*
X114240000Y-71822000D01*
X114240000Y-78232000D02*
X114240000Y-76902000D01*
X114240000Y-76902000D02*
X115570000Y-76902000D01*
X116840000Y-76902000D02*
X127060000Y-76902000D01*
X127060000Y-79562000D02*
X127060000Y-76902000D01*
X116840000Y-79562000D02*
X127060000Y-79562000D01*
X116840000Y-79562000D02*
X116840000Y-76902000D01*
X150622000Y-71314000D02*
X150622000Y-73974000D01*
X150622000Y-71314000D02*
X145482000Y-71314000D01*
X145482000Y-71314000D02*
X145482000Y-73974000D01*
X150622000Y-73974000D02*
X145482000Y-73974000D01*
X153222000Y-73974000D02*
X151892000Y-73974000D01*
X153222000Y-72644000D02*
X153222000Y-73974000D01*
X153222000Y-70104000D02*
X153222000Y-71434000D01*
X153222000Y-71434000D02*
X151892000Y-71434000D01*
X150622000Y-71434000D02*
X145482000Y-71434000D01*
X145482000Y-68774000D02*
X145482000Y-71434000D01*
X150622000Y-68774000D02*
X145482000Y-68774000D01*
X150622000Y-68774000D02*
X150622000Y-71434000D01*
X127000000Y-64964000D02*
X127000000Y-67624000D01*
X127000000Y-64964000D02*
X114240000Y-64964000D01*
X114240000Y-64964000D02*
X114240000Y-67624000D01*
X127000000Y-67624000D02*
X114240000Y-67624000D01*
X129600000Y-67624000D02*
X128270000Y-67624000D01*
X129600000Y-66294000D02*
X129600000Y-67624000D01*
X159258000Y-66234000D02*
X159258000Y-68894000D01*
X159258000Y-66234000D02*
X154118000Y-66234000D01*
X154118000Y-66234000D02*
X154118000Y-68894000D01*
X159258000Y-68894000D02*
X154118000Y-68894000D01*
X161858000Y-68894000D02*
X160528000Y-68894000D01*
X161858000Y-67564000D02*
X161858000Y-68894000D01*
X147126000Y-86106000D02*
X147126000Y-87436000D01*
X147126000Y-87436000D02*
X145796000Y-87436000D01*
X144526000Y-87436000D02*
X139386000Y-87436000D01*
X139386000Y-84776000D02*
X139386000Y-87436000D01*
X144526000Y-84776000D02*
X139386000Y-84776000D01*
X144526000Y-84776000D02*
X144526000Y-87436000D01*
X144526000Y-89602000D02*
X144526000Y-92262000D01*
X144526000Y-89602000D02*
X139386000Y-89602000D01*
X139386000Y-89602000D02*
X139386000Y-92262000D01*
X144526000Y-92262000D02*
X139386000Y-92262000D01*
X147126000Y-92262000D02*
X145796000Y-92262000D01*
X147126000Y-90932000D02*
X147126000Y-92262000D01*
X165906000Y-89972000D02*
X167156000Y-89972000D01*
X165906000Y-88722000D02*
X165906000Y-89972000D01*
X171406000Y-82822000D02*
X171406000Y-85872000D01*
X168456000Y-82822000D02*
X171406000Y-82822000D01*
X168456000Y-82072000D02*
X168456000Y-82822000D01*
X171406000Y-88922000D02*
X171406000Y-85872000D01*
X168456000Y-88922000D02*
X171406000Y-88922000D01*
X168456000Y-89672000D02*
X168456000Y-88922000D01*
X166206000Y-82072000D02*
X166206000Y-83872000D01*
X166956000Y-82072000D02*
X166206000Y-82072000D01*
X166956000Y-83872000D02*
X166956000Y-82072000D01*
X166206000Y-83872000D02*
X166956000Y-83872000D01*
X166206000Y-87872000D02*
X166206000Y-89672000D01*
X166956000Y-87872000D02*
X166206000Y-87872000D01*
X166956000Y-89672000D02*
X166956000Y-87872000D01*
X166206000Y-89672000D02*
X166956000Y-89672000D01*
X166206000Y-85372000D02*
X166206000Y-86372000D01*
X166956000Y-85372000D02*
X166206000Y-85372000D01*
X166956000Y-86372000D02*
X166956000Y-85372000D01*
X166206000Y-86372000D02*
X166956000Y-86372000D01*
X166196000Y-82062000D02*
X166196000Y-89682000D01*
X172166000Y-82062000D02*
X166196000Y-82062000D01*
X172166000Y-89682000D02*
X172166000Y-82062000D01*
X166196000Y-89682000D02*
X172166000Y-89682000D01*
X166196000Y-98318000D02*
X172166000Y-98318000D01*
X172166000Y-98318000D02*
X172166000Y-90698000D01*
X172166000Y-90698000D02*
X166196000Y-90698000D01*
X166196000Y-90698000D02*
X166196000Y-98318000D01*
X166206000Y-95008000D02*
X166956000Y-95008000D01*
X166956000Y-95008000D02*
X166956000Y-94008000D01*
X166956000Y-94008000D02*
X166206000Y-94008000D01*
X166206000Y-94008000D02*
X166206000Y-95008000D01*
X166206000Y-98308000D02*
X166956000Y-98308000D01*
X166956000Y-98308000D02*
X166956000Y-96508000D01*
X166956000Y-96508000D02*
X166206000Y-96508000D01*
X166206000Y-96508000D02*
X166206000Y-98308000D01*
X166206000Y-92508000D02*
X166956000Y-92508000D01*
X166956000Y-92508000D02*
X166956000Y-90708000D01*
X166956000Y-90708000D02*
X166206000Y-90708000D01*
X166206000Y-90708000D02*
X166206000Y-92508000D01*
X168456000Y-98308000D02*
X168456000Y-97558000D01*
X168456000Y-97558000D02*
X171406000Y-97558000D01*
X171406000Y-97558000D02*
X171406000Y-94508000D01*
X168456000Y-90708000D02*
X168456000Y-91458000D01*
X168456000Y-91458000D02*
X171406000Y-91458000D01*
X171406000Y-91458000D02*
X171406000Y-94508000D01*
X165906000Y-97358000D02*
X165906000Y-98608000D01*
X165906000Y-98608000D02*
X167156000Y-98608000D01*
X165906000Y-107244000D02*
X167156000Y-107244000D01*
X165906000Y-105994000D02*
X165906000Y-107244000D01*
X171406000Y-100094000D02*
X171406000Y-103144000D01*
X168456000Y-100094000D02*
X171406000Y-100094000D01*
X168456000Y-99344000D02*
X168456000Y-100094000D01*
X171406000Y-106194000D02*
X171406000Y-103144000D01*
X168456000Y-106194000D02*
X171406000Y-106194000D01*
X168456000Y-106944000D02*
X168456000Y-106194000D01*
X166206000Y-99344000D02*
X166206000Y-101144000D01*
X166956000Y-99344000D02*
X166206000Y-99344000D01*
X166956000Y-101144000D02*
X166956000Y-99344000D01*
X166206000Y-101144000D02*
X166956000Y-101144000D01*
X166206000Y-105144000D02*
X166206000Y-106944000D01*
X166956000Y-105144000D02*
X166206000Y-105144000D01*
X166956000Y-106944000D02*
X166956000Y-105144000D01*
X166206000Y-106944000D02*
X166956000Y-106944000D01*
X166206000Y-102644000D02*
X166206000Y-103644000D01*
X166956000Y-102644000D02*
X166206000Y-102644000D01*
X166956000Y-103644000D02*
X166956000Y-102644000D01*
X166206000Y-103644000D02*
X166956000Y-103644000D01*
X166196000Y-99334000D02*
X166196000Y-106954000D01*
X172166000Y-99334000D02*
X166196000Y-99334000D01*
X172166000Y-106954000D02*
X172166000Y-99334000D01*
X166196000Y-106954000D02*
X172166000Y-106954000D01*
X112142000Y-100750000D02*
X112142000Y-105000000D01*
X112146837Y-104993756D02*
G75*
G03X112142000Y-100750000I1645163J2123756D01*
G01*
X126968000Y-84174000D02*
X126968000Y-81434000D01*
X126968000Y-81434000D02*
X120428000Y-81434000D01*
X120428000Y-81434000D02*
X120428000Y-84174000D01*
X120428000Y-84174000D02*
X126968000Y-84174000D01*
X127738000Y-82804000D02*
X126968000Y-82804000D01*
X119658000Y-82804000D02*
X120428000Y-82804000D01*
X119658000Y-85852000D02*
X120428000Y-85852000D01*
X127738000Y-85852000D02*
X126968000Y-85852000D01*
X120428000Y-87222000D02*
X126968000Y-87222000D01*
X120428000Y-84482000D02*
X120428000Y-87222000D01*
X126968000Y-84482000D02*
X120428000Y-84482000D01*
X126968000Y-87222000D02*
X126968000Y-84482000D01*
X141510000Y-109882000D02*
X141510000Y-112622000D01*
X141510000Y-112622000D02*
X148050000Y-112622000D01*
X148050000Y-112622000D02*
X148050000Y-109882000D01*
X148050000Y-109882000D02*
X141510000Y-109882000D01*
X140740000Y-111252000D02*
X141510000Y-111252000D01*
X148820000Y-111252000D02*
X148050000Y-111252000D01*
X148820000Y-113792000D02*
X148050000Y-113792000D01*
X140740000Y-113792000D02*
X141510000Y-113792000D01*
X148050000Y-112422000D02*
X141510000Y-112422000D01*
X148050000Y-115162000D02*
X148050000Y-112422000D01*
X141510000Y-115162000D02*
X148050000Y-115162000D01*
X141510000Y-112422000D02*
X141510000Y-115162000D01*
X126460000Y-102462000D02*
X126460000Y-99722000D01*
X126460000Y-99722000D02*
X119920000Y-99722000D01*
X119920000Y-99722000D02*
X119920000Y-102462000D01*
X119920000Y-102462000D02*
X126460000Y-102462000D01*
X127230000Y-101092000D02*
X126460000Y-101092000D01*
X119150000Y-101092000D02*
X119920000Y-101092000D01*
X126460000Y-106018000D02*
X126460000Y-103278000D01*
X126460000Y-103278000D02*
X119920000Y-103278000D01*
X119920000Y-103278000D02*
X119920000Y-106018000D01*
X119920000Y-106018000D02*
X126460000Y-106018000D01*
X127230000Y-104648000D02*
X126460000Y-104648000D01*
X119150000Y-104648000D02*
X119920000Y-104648000D01*
X125444000Y-112876000D02*
X125444000Y-110136000D01*
X125444000Y-110136000D02*
X118904000Y-110136000D01*
X118904000Y-110136000D02*
X118904000Y-112876000D01*
X118904000Y-112876000D02*
X125444000Y-112876000D01*
X126214000Y-111506000D02*
X125444000Y-111506000D01*
X118134000Y-111506000D02*
X118904000Y-111506000D01*
X118134000Y-115062000D02*
X118904000Y-115062000D01*
X126214000Y-115062000D02*
X125444000Y-115062000D01*
X118904000Y-116432000D02*
X125444000Y-116432000D01*
X118904000Y-113692000D02*
X118904000Y-116432000D01*
X125444000Y-113692000D02*
X118904000Y-113692000D01*
X125444000Y-116432000D02*
X125444000Y-113692000D01*
X151950000Y-112521538D02*
G75*
G03X157500000Y-114066830I2990000J-462D01*
G01*
X151950000Y-112522462D02*
G75*
G02X157500000Y-110977170I2990000J462D01*
G01*
X157440000Y-112522000D02*
G75*
G03X157440000Y-112522000I-2500000J0D01*
G01*
X157500000Y-114067000D02*
X157500000Y-110977000D01*
X163924000Y-89870000D02*
X161204000Y-89870000D01*
X154344000Y-89870000D02*
X151624000Y-89870000D01*
X156204000Y-77570000D02*
X159344000Y-77570000D01*
X151624000Y-77570000D02*
X154344000Y-77570000D01*
X162313050Y-83820000D02*
G75*
G03X162313050Y-83820000I-4579050J0D01*
G01*
X161204000Y-77570000D02*
X163924000Y-77570000D01*
X151624000Y-89870000D02*
X151624000Y-77570000D01*
X159344000Y-89870000D02*
X156204000Y-89870000D01*
X163924000Y-77570000D02*
X163924000Y-89870000D01*
X163924000Y-94080000D02*
X163924000Y-106380000D01*
X159344000Y-106380000D02*
X156204000Y-106380000D01*
X151624000Y-106380000D02*
X151624000Y-94080000D01*
X161204000Y-94080000D02*
X163924000Y-94080000D01*
X162313050Y-100330000D02*
G75*
G03X162313050Y-100330000I-4579050J0D01*
G01*
X151624000Y-94080000D02*
X154344000Y-94080000D01*
X156204000Y-94080000D02*
X159344000Y-94080000D01*
X154344000Y-106380000D02*
X151624000Y-106380000D01*
X163924000Y-106380000D02*
X161204000Y-106380000D01*
X115220000Y-111364000D02*
X115220000Y-115204000D01*
X113380000Y-111364000D02*
X113380000Y-115204000D01*
X126968000Y-90270000D02*
X126968000Y-87530000D01*
X126968000Y-87530000D02*
X120428000Y-87530000D01*
X120428000Y-87530000D02*
X120428000Y-90270000D01*
X120428000Y-90270000D02*
X126968000Y-90270000D01*
X127738000Y-88900000D02*
X126968000Y-88900000D01*
X119658000Y-88900000D02*
X120428000Y-88900000D01*
X137862000Y-71374000D02*
X140522000Y-71374000D01*
X137862000Y-71374000D02*
X137862000Y-79054000D01*
X137862000Y-79054000D02*
X140522000Y-79054000D01*
X140522000Y-71374000D02*
X140522000Y-79054000D01*
X140522000Y-68774000D02*
X140522000Y-70104000D01*
X139192000Y-68774000D02*
X140522000Y-68774000D01*
X141510000Y-115724000D02*
X141510000Y-118464000D01*
X141510000Y-118464000D02*
X148050000Y-118464000D01*
X148050000Y-118464000D02*
X148050000Y-115724000D01*
X148050000Y-115724000D02*
X141510000Y-115724000D01*
X140740000Y-117094000D02*
X141510000Y-117094000D01*
X148820000Y-117094000D02*
X148050000Y-117094000D01*
X165666000Y-112521538D02*
G75*
G03X171216000Y-114066830I2990000J-462D01*
G01*
X165666000Y-112522462D02*
G75*
G02X171216000Y-110977170I2990000J462D01*
G01*
X171156000Y-112522000D02*
G75*
G03X171156000Y-112522000I-2500000J0D01*
G01*
X171216000Y-114067000D02*
X171216000Y-110977000D01*
D12*
X168513000Y-79304000D02*
X168038000Y-79304000D01*
X168038000Y-79304000D02*
X168038000Y-71004000D01*
X168038000Y-71004000D02*
X168513000Y-71004000D01*
X170763000Y-79304000D02*
X171238000Y-79304000D01*
X171238000Y-79304000D02*
X171238000Y-71004000D01*
X171238000Y-71004000D02*
X170763000Y-71004000D01*
X167738000Y-77454000D02*
X167738000Y-75454000D01*
D13*
X126492000Y-92650000D02*
X126492000Y-95310000D01*
X126492000Y-92650000D02*
X111192000Y-92650000D01*
X111192000Y-92650000D02*
X111192000Y-95310000D01*
X126492000Y-95310000D02*
X111192000Y-95310000D01*
X129092000Y-95310000D02*
X127762000Y-95310000D01*
X129092000Y-93980000D02*
X129092000Y-95310000D01*
X164024000Y-68834000D02*
X166684000Y-68834000D01*
X164024000Y-68834000D02*
X164024000Y-71434000D01*
X164024000Y-71434000D02*
X166684000Y-71434000D01*
X166684000Y-68834000D02*
X166684000Y-71434000D01*
X166684000Y-66234000D02*
X166684000Y-67564000D01*
X165354000Y-66234000D02*
X166684000Y-66234000D01*
D12*
X110434380Y-88026571D02*
X109958190Y-88359904D01*
X110434380Y-88598000D02*
X109434380Y-88598000D01*
X109434380Y-88217047D01*
X109482000Y-88121809D01*
X109529619Y-88074190D01*
X109624857Y-88026571D01*
X109767714Y-88026571D01*
X109862952Y-88074190D01*
X109910571Y-88121809D01*
X109958190Y-88217047D01*
X109958190Y-88598000D01*
X109482000Y-87074190D02*
X109434380Y-87169428D01*
X109434380Y-87312285D01*
X109482000Y-87455142D01*
X109577238Y-87550380D01*
X109672476Y-87598000D01*
X109862952Y-87645619D01*
X110005809Y-87645619D01*
X110196285Y-87598000D01*
X110291523Y-87550380D01*
X110386761Y-87455142D01*
X110434380Y-87312285D01*
X110434380Y-87217047D01*
X110386761Y-87074190D01*
X110339142Y-87026571D01*
X110005809Y-87026571D01*
X110005809Y-87217047D01*
X109910571Y-86264666D02*
X109958190Y-86121809D01*
X110005809Y-86074190D01*
X110101047Y-86026571D01*
X110243904Y-86026571D01*
X110339142Y-86074190D01*
X110386761Y-86121809D01*
X110434380Y-86217047D01*
X110434380Y-86598000D01*
X109434380Y-86598000D01*
X109434380Y-86264666D01*
X109482000Y-86169428D01*
X109529619Y-86121809D01*
X109624857Y-86074190D01*
X109720095Y-86074190D01*
X109815333Y-86121809D01*
X109862952Y-86169428D01*
X109910571Y-86264666D01*
X109910571Y-86598000D01*
X110434380Y-84359904D02*
X110434380Y-84836095D01*
X109434380Y-84836095D01*
X109910571Y-84026571D02*
X109910571Y-83693238D01*
X110434380Y-83550380D02*
X110434380Y-84026571D01*
X109434380Y-84026571D01*
X109434380Y-83550380D01*
X110434380Y-83121809D02*
X109434380Y-83121809D01*
X109434380Y-82883714D01*
X109482000Y-82740857D01*
X109577238Y-82645619D01*
X109672476Y-82598000D01*
X109862952Y-82550380D01*
X110005809Y-82550380D01*
X110196285Y-82598000D01*
X110291523Y-82645619D01*
X110386761Y-82740857D01*
X110434380Y-82883714D01*
X110434380Y-83121809D01*
X141835428Y-105338571D02*
X141978285Y-105386190D01*
X142025904Y-105433809D01*
X142073523Y-105529047D01*
X142073523Y-105671904D01*
X142025904Y-105767142D01*
X141978285Y-105814761D01*
X141883047Y-105862380D01*
X141502095Y-105862380D01*
X141502095Y-104862380D01*
X141835428Y-104862380D01*
X141930666Y-104910000D01*
X141978285Y-104957619D01*
X142025904Y-105052857D01*
X142025904Y-105148095D01*
X141978285Y-105243333D01*
X141930666Y-105290952D01*
X141835428Y-105338571D01*
X141502095Y-105338571D01*
X142930666Y-105195714D02*
X142930666Y-105862380D01*
X142502095Y-105195714D02*
X142502095Y-105719523D01*
X142549714Y-105814761D01*
X142644952Y-105862380D01*
X142787809Y-105862380D01*
X142883047Y-105814761D01*
X142930666Y-105767142D01*
X143311619Y-105195714D02*
X143835428Y-105195714D01*
X143311619Y-105862380D01*
X143835428Y-105862380D01*
X144121142Y-105195714D02*
X144644952Y-105195714D01*
X144121142Y-105862380D01*
X144644952Y-105862380D01*
X145406857Y-105814761D02*
X145311619Y-105862380D01*
X145121142Y-105862380D01*
X145025904Y-105814761D01*
X144978285Y-105719523D01*
X144978285Y-105338571D01*
X145025904Y-105243333D01*
X145121142Y-105195714D01*
X145311619Y-105195714D01*
X145406857Y-105243333D01*
X145454476Y-105338571D01*
X145454476Y-105433809D01*
X144978285Y-105529047D01*
X145883047Y-105862380D02*
X145883047Y-105195714D01*
X145883047Y-105386190D02*
X145930666Y-105290952D01*
X145978285Y-105243333D01*
X146073523Y-105195714D01*
X146168761Y-105195714D01*
X140081047Y-101141428D02*
X140842952Y-101141428D01*
X140462000Y-101522380D02*
X140462000Y-100760476D01*
X123197333Y-108074666D02*
X123630666Y-108074666D01*
X123397333Y-108341333D01*
X123497333Y-108341333D01*
X123564000Y-108374666D01*
X123597333Y-108408000D01*
X123630666Y-108474666D01*
X123630666Y-108641333D01*
X123597333Y-108708000D01*
X123564000Y-108741333D01*
X123497333Y-108774666D01*
X123297333Y-108774666D01*
X123230666Y-108741333D01*
X123197333Y-108708000D01*
X123864000Y-108074666D02*
X124297333Y-108074666D01*
X124064000Y-108341333D01*
X124164000Y-108341333D01*
X124230666Y-108374666D01*
X124264000Y-108408000D01*
X124297333Y-108474666D01*
X124297333Y-108641333D01*
X124264000Y-108708000D01*
X124230666Y-108741333D01*
X124164000Y-108774666D01*
X123964000Y-108774666D01*
X123897333Y-108741333D01*
X123864000Y-108708000D01*
X124730666Y-108074666D02*
X124797333Y-108074666D01*
X124864000Y-108108000D01*
X124897333Y-108141333D01*
X124930666Y-108208000D01*
X124964000Y-108341333D01*
X124964000Y-108508000D01*
X124930666Y-108641333D01*
X124897333Y-108708000D01*
X124864000Y-108741333D01*
X124797333Y-108774666D01*
X124730666Y-108774666D01*
X124664000Y-108741333D01*
X124630666Y-108708000D01*
X124597333Y-108641333D01*
X124564000Y-108508000D01*
X124564000Y-108341333D01*
X124597333Y-108208000D01*
X124630666Y-108141333D01*
X124664000Y-108108000D01*
X124730666Y-108074666D01*
X125264000Y-108308000D02*
X125264000Y-108774666D01*
X125264000Y-108374666D02*
X125297333Y-108341333D01*
X125364000Y-108308000D01*
X125464000Y-108308000D01*
X125530666Y-108341333D01*
X125564000Y-108408000D01*
X125564000Y-108774666D01*
X126130666Y-108408000D02*
X125897333Y-108408000D01*
X125897333Y-108774666D02*
X125897333Y-108074666D01*
X126230666Y-108074666D01*
X123197333Y-118742666D02*
X123630666Y-118742666D01*
X123397333Y-119009333D01*
X123497333Y-119009333D01*
X123564000Y-119042666D01*
X123597333Y-119076000D01*
X123630666Y-119142666D01*
X123630666Y-119309333D01*
X123597333Y-119376000D01*
X123564000Y-119409333D01*
X123497333Y-119442666D01*
X123297333Y-119442666D01*
X123230666Y-119409333D01*
X123197333Y-119376000D01*
X123864000Y-118742666D02*
X124297333Y-118742666D01*
X124064000Y-119009333D01*
X124164000Y-119009333D01*
X124230666Y-119042666D01*
X124264000Y-119076000D01*
X124297333Y-119142666D01*
X124297333Y-119309333D01*
X124264000Y-119376000D01*
X124230666Y-119409333D01*
X124164000Y-119442666D01*
X123964000Y-119442666D01*
X123897333Y-119409333D01*
X123864000Y-119376000D01*
X124730666Y-118742666D02*
X124797333Y-118742666D01*
X124864000Y-118776000D01*
X124897333Y-118809333D01*
X124930666Y-118876000D01*
X124964000Y-119009333D01*
X124964000Y-119176000D01*
X124930666Y-119309333D01*
X124897333Y-119376000D01*
X124864000Y-119409333D01*
X124797333Y-119442666D01*
X124730666Y-119442666D01*
X124664000Y-119409333D01*
X124630666Y-119376000D01*
X124597333Y-119309333D01*
X124564000Y-119176000D01*
X124564000Y-119009333D01*
X124597333Y-118876000D01*
X124630666Y-118809333D01*
X124664000Y-118776000D01*
X124730666Y-118742666D01*
X125264000Y-118976000D02*
X125264000Y-119442666D01*
X125264000Y-119042666D02*
X125297333Y-119009333D01*
X125364000Y-118976000D01*
X125464000Y-118976000D01*
X125530666Y-119009333D01*
X125564000Y-119076000D01*
X125564000Y-119442666D01*
X126130666Y-119076000D02*
X125897333Y-119076000D01*
X125897333Y-119442666D02*
X125897333Y-118742666D01*
X126230666Y-118742666D01*
X159093238Y-117201904D02*
X159093238Y-116782857D01*
X159055142Y-116706666D01*
X158978952Y-116668571D01*
X158826571Y-116668571D01*
X158750380Y-116706666D01*
X159093238Y-117163809D02*
X159017047Y-117201904D01*
X158826571Y-117201904D01*
X158750380Y-117163809D01*
X158712285Y-117087619D01*
X158712285Y-117011428D01*
X158750380Y-116935238D01*
X158826571Y-116897142D01*
X159017047Y-116897142D01*
X159093238Y-116859047D01*
X159474190Y-117201904D02*
X159474190Y-116668571D01*
X159474190Y-116744761D02*
X159512285Y-116706666D01*
X159588476Y-116668571D01*
X159702761Y-116668571D01*
X159778952Y-116706666D01*
X159817047Y-116782857D01*
X159817047Y-117201904D01*
X159817047Y-116782857D02*
X159855142Y-116706666D01*
X159931333Y-116668571D01*
X160045619Y-116668571D01*
X160121809Y-116706666D01*
X160159904Y-116782857D01*
X160159904Y-117201904D01*
X160540857Y-117201904D02*
X160540857Y-116401904D01*
X160540857Y-116706666D02*
X160617047Y-116668571D01*
X160769428Y-116668571D01*
X160845619Y-116706666D01*
X160883714Y-116744761D01*
X160921809Y-116820952D01*
X160921809Y-117049523D01*
X160883714Y-117125714D01*
X160845619Y-117163809D01*
X160769428Y-117201904D01*
X160617047Y-117201904D01*
X160540857Y-117163809D01*
X161569428Y-117163809D02*
X161493238Y-117201904D01*
X161340857Y-117201904D01*
X161264666Y-117163809D01*
X161226571Y-117087619D01*
X161226571Y-116782857D01*
X161264666Y-116706666D01*
X161340857Y-116668571D01*
X161493238Y-116668571D01*
X161569428Y-116706666D01*
X161607523Y-116782857D01*
X161607523Y-116859047D01*
X161226571Y-116935238D01*
X161950380Y-117201904D02*
X161950380Y-116668571D01*
X161950380Y-116820952D02*
X161988476Y-116744761D01*
X162026571Y-116706666D01*
X162102761Y-116668571D01*
X162178952Y-116668571D01*
X163436095Y-117201904D02*
X163055142Y-117201904D01*
X163055142Y-116401904D01*
X163702761Y-116782857D02*
X163969428Y-116782857D01*
X164083714Y-117201904D02*
X163702761Y-117201904D01*
X163702761Y-116401904D01*
X164083714Y-116401904D01*
X164426571Y-117201904D02*
X164426571Y-116401904D01*
X164617047Y-116401904D01*
X164731333Y-116440000D01*
X164807523Y-116516190D01*
X164845619Y-116592380D01*
X164883714Y-116744761D01*
X164883714Y-116859047D01*
X164845619Y-117011428D01*
X164807523Y-117087619D01*
X164731333Y-117163809D01*
X164617047Y-117201904D01*
X164426571Y-117201904D01*
X109632952Y-75845142D02*
X109632952Y-74945142D01*
X109975809Y-75030857D02*
X110013904Y-74988000D01*
X110090095Y-74945142D01*
X110280571Y-74945142D01*
X110356761Y-74988000D01*
X110394857Y-75030857D01*
X110432952Y-75116571D01*
X110432952Y-75202285D01*
X110394857Y-75330857D01*
X109937714Y-75845142D01*
X110432952Y-75845142D01*
X111232952Y-75759428D02*
X111194857Y-75802285D01*
X111080571Y-75845142D01*
X111004380Y-75845142D01*
X110890095Y-75802285D01*
X110813904Y-75716571D01*
X110775809Y-75630857D01*
X110737714Y-75459428D01*
X110737714Y-75330857D01*
X110775809Y-75159428D01*
X110813904Y-75073714D01*
X110890095Y-74988000D01*
X111004380Y-74945142D01*
X111080571Y-74945142D01*
X111194857Y-74988000D01*
X111232952Y-75030857D01*
X111575809Y-75502285D02*
X112185333Y-75502285D01*
X112528190Y-75588000D02*
X112909142Y-75588000D01*
X112452000Y-75845142D02*
X112718666Y-74945142D01*
X112985333Y-75845142D01*
X109575809Y-73559142D02*
X109575809Y-72659142D01*
X109918666Y-72744857D02*
X109956761Y-72702000D01*
X110032952Y-72659142D01*
X110223428Y-72659142D01*
X110299619Y-72702000D01*
X110337714Y-72744857D01*
X110375809Y-72830571D01*
X110375809Y-72916285D01*
X110337714Y-73044857D01*
X109880571Y-73559142D01*
X110375809Y-73559142D01*
X111175809Y-73473428D02*
X111137714Y-73516285D01*
X111023428Y-73559142D01*
X110947238Y-73559142D01*
X110832952Y-73516285D01*
X110756761Y-73430571D01*
X110718666Y-73344857D01*
X110680571Y-73173428D01*
X110680571Y-73044857D01*
X110718666Y-72873428D01*
X110756761Y-72787714D01*
X110832952Y-72702000D01*
X110947238Y-72659142D01*
X111023428Y-72659142D01*
X111137714Y-72702000D01*
X111175809Y-72744857D01*
X111518666Y-73216285D02*
X112128190Y-73216285D01*
X112775809Y-73087714D02*
X112890095Y-73130571D01*
X112928190Y-73173428D01*
X112966285Y-73259142D01*
X112966285Y-73387714D01*
X112928190Y-73473428D01*
X112890095Y-73516285D01*
X112813904Y-73559142D01*
X112509142Y-73559142D01*
X112509142Y-72659142D01*
X112775809Y-72659142D01*
X112852000Y-72702000D01*
X112890095Y-72744857D01*
X112928190Y-72830571D01*
X112928190Y-72916285D01*
X112890095Y-73002000D01*
X112852000Y-73044857D01*
X112775809Y-73087714D01*
X112509142Y-73087714D01*
X108600000Y-78639142D02*
X108600000Y-77739142D01*
X108942857Y-77824857D02*
X108980952Y-77782000D01*
X109057142Y-77739142D01*
X109247619Y-77739142D01*
X109323809Y-77782000D01*
X109361904Y-77824857D01*
X109400000Y-77910571D01*
X109400000Y-77996285D01*
X109361904Y-78124857D01*
X108904761Y-78639142D01*
X109400000Y-78639142D01*
X110200000Y-78553428D02*
X110161904Y-78596285D01*
X110047619Y-78639142D01*
X109971428Y-78639142D01*
X109857142Y-78596285D01*
X109780952Y-78510571D01*
X109742857Y-78424857D01*
X109704761Y-78253428D01*
X109704761Y-78124857D01*
X109742857Y-77953428D01*
X109780952Y-77867714D01*
X109857142Y-77782000D01*
X109971428Y-77739142D01*
X110047619Y-77739142D01*
X110161904Y-77782000D01*
X110200000Y-77824857D01*
X110542857Y-78296285D02*
X111152380Y-78296285D01*
X111914285Y-78639142D02*
X111533333Y-78639142D01*
X111533333Y-77739142D01*
X112638095Y-78553428D02*
X112600000Y-78596285D01*
X112485714Y-78639142D01*
X112409523Y-78639142D01*
X112295238Y-78596285D01*
X112219047Y-78510571D01*
X112180952Y-78424857D01*
X112142857Y-78253428D01*
X112142857Y-78124857D01*
X112180952Y-77953428D01*
X112219047Y-77867714D01*
X112295238Y-77782000D01*
X112409523Y-77739142D01*
X112485714Y-77739142D01*
X112600000Y-77782000D01*
X112638095Y-77824857D01*
X112980952Y-78639142D02*
X112980952Y-77739142D01*
X113171428Y-77739142D01*
X113285714Y-77782000D01*
X113361904Y-77867714D01*
X113400000Y-77953428D01*
X113438095Y-78124857D01*
X113438095Y-78253428D01*
X113400000Y-78424857D01*
X113361904Y-78510571D01*
X113285714Y-78596285D01*
X113171428Y-78639142D01*
X112980952Y-78639142D01*
D11*
X144287904Y-72810666D02*
X144764095Y-72810666D01*
X144192666Y-73096380D02*
X144526000Y-72096380D01*
X144859333Y-73096380D01*
X144597428Y-70032571D02*
X144740285Y-70080190D01*
X144787904Y-70127809D01*
X144835523Y-70223047D01*
X144835523Y-70365904D01*
X144787904Y-70461142D01*
X144740285Y-70508761D01*
X144645047Y-70556380D01*
X144264095Y-70556380D01*
X144264095Y-69556380D01*
X144597428Y-69556380D01*
X144692666Y-69604000D01*
X144740285Y-69651619D01*
X144787904Y-69746857D01*
X144787904Y-69842095D01*
X144740285Y-69937333D01*
X144692666Y-69984952D01*
X144597428Y-70032571D01*
X144264095Y-70032571D01*
D12*
X130365809Y-65939142D02*
X130365809Y-65039142D01*
X130670571Y-65039142D01*
X130746761Y-65082000D01*
X130784857Y-65124857D01*
X130822952Y-65210571D01*
X130822952Y-65339142D01*
X130784857Y-65424857D01*
X130746761Y-65467714D01*
X130670571Y-65510571D01*
X130365809Y-65510571D01*
X131622952Y-65853428D02*
X131584857Y-65896285D01*
X131470571Y-65939142D01*
X131394380Y-65939142D01*
X131280095Y-65896285D01*
X131203904Y-65810571D01*
X131165809Y-65724857D01*
X131127714Y-65553428D01*
X131127714Y-65424857D01*
X131165809Y-65253428D01*
X131203904Y-65167714D01*
X131280095Y-65082000D01*
X131394380Y-65039142D01*
X131470571Y-65039142D01*
X131584857Y-65082000D01*
X131622952Y-65124857D01*
X131927714Y-65682000D02*
X132308666Y-65682000D01*
X131851523Y-65939142D02*
X132118190Y-65039142D01*
X132384857Y-65939142D01*
X132689619Y-65939142D02*
X132842000Y-65939142D01*
X132918190Y-65896285D01*
X132956285Y-65853428D01*
X133032476Y-65724857D01*
X133070571Y-65553428D01*
X133070571Y-65210571D01*
X133032476Y-65124857D01*
X132994380Y-65082000D01*
X132918190Y-65039142D01*
X132765809Y-65039142D01*
X132689619Y-65082000D01*
X132651523Y-65124857D01*
X132613428Y-65210571D01*
X132613428Y-65424857D01*
X132651523Y-65510571D01*
X132689619Y-65553428D01*
X132765809Y-65596285D01*
X132918190Y-65596285D01*
X132994380Y-65553428D01*
X133032476Y-65510571D01*
X133070571Y-65424857D01*
X133756285Y-65039142D02*
X133603904Y-65039142D01*
X133527714Y-65082000D01*
X133489619Y-65124857D01*
X133413428Y-65253428D01*
X133375333Y-65424857D01*
X133375333Y-65767714D01*
X133413428Y-65853428D01*
X133451523Y-65896285D01*
X133527714Y-65939142D01*
X133680095Y-65939142D01*
X133756285Y-65896285D01*
X133794380Y-65853428D01*
X133832476Y-65767714D01*
X133832476Y-65553428D01*
X133794380Y-65467714D01*
X133756285Y-65424857D01*
X133680095Y-65382000D01*
X133527714Y-65382000D01*
X133451523Y-65424857D01*
X133413428Y-65467714D01*
X133375333Y-65553428D01*
X134289619Y-65424857D02*
X134213428Y-65382000D01*
X134175333Y-65339142D01*
X134137238Y-65253428D01*
X134137238Y-65210571D01*
X134175333Y-65124857D01*
X134213428Y-65082000D01*
X134289619Y-65039142D01*
X134442000Y-65039142D01*
X134518190Y-65082000D01*
X134556285Y-65124857D01*
X134594380Y-65210571D01*
X134594380Y-65253428D01*
X134556285Y-65339142D01*
X134518190Y-65382000D01*
X134442000Y-65424857D01*
X134289619Y-65424857D01*
X134213428Y-65467714D01*
X134175333Y-65510571D01*
X134137238Y-65596285D01*
X134137238Y-65767714D01*
X134175333Y-65853428D01*
X134213428Y-65896285D01*
X134289619Y-65939142D01*
X134442000Y-65939142D01*
X134518190Y-65896285D01*
X134556285Y-65853428D01*
X134594380Y-65767714D01*
X134594380Y-65596285D01*
X134556285Y-65510571D01*
X134518190Y-65467714D01*
X134442000Y-65424857D01*
X135318190Y-65039142D02*
X134937238Y-65039142D01*
X134899142Y-65467714D01*
X134937238Y-65424857D01*
X135013428Y-65382000D01*
X135203904Y-65382000D01*
X135280095Y-65424857D01*
X135318190Y-65467714D01*
X135356285Y-65553428D01*
X135356285Y-65767714D01*
X135318190Y-65853428D01*
X135280095Y-65896285D01*
X135203904Y-65939142D01*
X135013428Y-65939142D01*
X134937238Y-65896285D01*
X134899142Y-65853428D01*
D11*
X156988000Y-65685142D02*
X156988000Y-64785142D01*
X157368952Y-64785142D01*
X157464190Y-64828000D01*
X157511809Y-64870857D01*
X157559428Y-64956571D01*
X157559428Y-65085142D01*
X157511809Y-65170857D01*
X157464190Y-65213714D01*
X157368952Y-65256571D01*
X156988000Y-65256571D01*
X157988000Y-65685142D02*
X157988000Y-64785142D01*
X159035619Y-65685142D02*
X158702285Y-65256571D01*
X158464190Y-65685142D02*
X158464190Y-64785142D01*
X158845142Y-64785142D01*
X158940380Y-64828000D01*
X158988000Y-64870857D01*
X159035619Y-64956571D01*
X159035619Y-65085142D01*
X158988000Y-65170857D01*
X158940380Y-65213714D01*
X158845142Y-65256571D01*
X158464190Y-65256571D01*
D12*
X139470095Y-83716761D02*
X139565333Y-83764380D01*
X139755809Y-83764380D01*
X139851047Y-83716761D01*
X139898666Y-83621523D01*
X139898666Y-83573904D01*
X139851047Y-83478666D01*
X139755809Y-83431047D01*
X139612952Y-83431047D01*
X139517714Y-83383428D01*
X139470095Y-83288190D01*
X139470095Y-83240571D01*
X139517714Y-83145333D01*
X139612952Y-83097714D01*
X139755809Y-83097714D01*
X139851047Y-83145333D01*
X140708190Y-83716761D02*
X140612952Y-83764380D01*
X140422476Y-83764380D01*
X140327238Y-83716761D01*
X140279619Y-83621523D01*
X140279619Y-83240571D01*
X140327238Y-83145333D01*
X140422476Y-83097714D01*
X140612952Y-83097714D01*
X140708190Y-83145333D01*
X140755809Y-83240571D01*
X140755809Y-83335809D01*
X140279619Y-83431047D01*
X141184380Y-83764380D02*
X141184380Y-83097714D01*
X141184380Y-83288190D02*
X141232000Y-83192952D01*
X141279619Y-83145333D01*
X141374857Y-83097714D01*
X141470095Y-83097714D01*
X141708190Y-83097714D02*
X141946285Y-83764380D01*
X142184380Y-83097714D01*
X142708190Y-83764380D02*
X142612952Y-83716761D01*
X142565333Y-83669142D01*
X142517714Y-83573904D01*
X142517714Y-83288190D01*
X142565333Y-83192952D01*
X142612952Y-83145333D01*
X142708190Y-83097714D01*
X142851047Y-83097714D01*
X142946285Y-83145333D01*
X142993904Y-83192952D01*
X143041523Y-83288190D01*
X143041523Y-83573904D01*
X142993904Y-83669142D01*
X142946285Y-83716761D01*
X142851047Y-83764380D01*
X142708190Y-83764380D01*
X143993904Y-83764380D02*
X143422476Y-83764380D01*
X143708190Y-83764380D02*
X143708190Y-82764380D01*
X143612952Y-82907238D01*
X143517714Y-83002476D01*
X143422476Y-83050095D01*
X139470095Y-93876761D02*
X139565333Y-93924380D01*
X139755809Y-93924380D01*
X139851047Y-93876761D01*
X139898666Y-93781523D01*
X139898666Y-93733904D01*
X139851047Y-93638666D01*
X139755809Y-93591047D01*
X139612952Y-93591047D01*
X139517714Y-93543428D01*
X139470095Y-93448190D01*
X139470095Y-93400571D01*
X139517714Y-93305333D01*
X139612952Y-93257714D01*
X139755809Y-93257714D01*
X139851047Y-93305333D01*
X140708190Y-93876761D02*
X140612952Y-93924380D01*
X140422476Y-93924380D01*
X140327238Y-93876761D01*
X140279619Y-93781523D01*
X140279619Y-93400571D01*
X140327238Y-93305333D01*
X140422476Y-93257714D01*
X140612952Y-93257714D01*
X140708190Y-93305333D01*
X140755809Y-93400571D01*
X140755809Y-93495809D01*
X140279619Y-93591047D01*
X141184380Y-93924380D02*
X141184380Y-93257714D01*
X141184380Y-93448190D02*
X141232000Y-93352952D01*
X141279619Y-93305333D01*
X141374857Y-93257714D01*
X141470095Y-93257714D01*
X141708190Y-93257714D02*
X141946285Y-93924380D01*
X142184380Y-93257714D01*
X142708190Y-93924380D02*
X142612952Y-93876761D01*
X142565333Y-93829142D01*
X142517714Y-93733904D01*
X142517714Y-93448190D01*
X142565333Y-93352952D01*
X142612952Y-93305333D01*
X142708190Y-93257714D01*
X142851047Y-93257714D01*
X142946285Y-93305333D01*
X142993904Y-93352952D01*
X143041523Y-93448190D01*
X143041523Y-93733904D01*
X142993904Y-93829142D01*
X142946285Y-93876761D01*
X142851047Y-93924380D01*
X142708190Y-93924380D01*
X143422476Y-93019619D02*
X143470095Y-92972000D01*
X143565333Y-92924380D01*
X143803428Y-92924380D01*
X143898666Y-92972000D01*
X143946285Y-93019619D01*
X143993904Y-93114857D01*
X143993904Y-93210095D01*
X143946285Y-93352952D01*
X143374857Y-93924380D01*
X143993904Y-93924380D01*
X164661904Y-89287142D02*
X165233333Y-89287142D01*
X165347619Y-89325238D01*
X165423809Y-89401428D01*
X165461904Y-89515714D01*
X165461904Y-89591904D01*
X165423809Y-88944285D02*
X165461904Y-88830000D01*
X165461904Y-88639523D01*
X165423809Y-88563333D01*
X165385714Y-88525238D01*
X165309523Y-88487142D01*
X165233333Y-88487142D01*
X165157142Y-88525238D01*
X165119047Y-88563333D01*
X165080952Y-88639523D01*
X165042857Y-88791904D01*
X165004761Y-88868095D01*
X164966666Y-88906190D01*
X164890476Y-88944285D01*
X164814285Y-88944285D01*
X164738095Y-88906190D01*
X164700000Y-88868095D01*
X164661904Y-88791904D01*
X164661904Y-88601428D01*
X164700000Y-88487142D01*
X164661904Y-88258571D02*
X164661904Y-87801428D01*
X165461904Y-88030000D02*
X164661904Y-88030000D01*
X165042857Y-86658571D02*
X165080952Y-86544285D01*
X165119047Y-86506190D01*
X165195238Y-86468095D01*
X165309523Y-86468095D01*
X165385714Y-86506190D01*
X165423809Y-86544285D01*
X165461904Y-86620476D01*
X165461904Y-86925238D01*
X164661904Y-86925238D01*
X164661904Y-86658571D01*
X164700000Y-86582380D01*
X164738095Y-86544285D01*
X164814285Y-86506190D01*
X164890476Y-86506190D01*
X164966666Y-86544285D01*
X165004761Y-86582380D01*
X165042857Y-86658571D01*
X165042857Y-86925238D01*
X165461904Y-85706190D02*
X165461904Y-86163333D01*
X165461904Y-85934761D02*
X164661904Y-85934761D01*
X164776190Y-86010952D01*
X164852380Y-86087142D01*
X164890476Y-86163333D01*
X164661904Y-97923142D02*
X165233333Y-97923142D01*
X165347619Y-97961238D01*
X165423809Y-98037428D01*
X165461904Y-98151714D01*
X165461904Y-98227904D01*
X165423809Y-97580285D02*
X165461904Y-97466000D01*
X165461904Y-97275523D01*
X165423809Y-97199333D01*
X165385714Y-97161238D01*
X165309523Y-97123142D01*
X165233333Y-97123142D01*
X165157142Y-97161238D01*
X165119047Y-97199333D01*
X165080952Y-97275523D01*
X165042857Y-97427904D01*
X165004761Y-97504095D01*
X164966666Y-97542190D01*
X164890476Y-97580285D01*
X164814285Y-97580285D01*
X164738095Y-97542190D01*
X164700000Y-97504095D01*
X164661904Y-97427904D01*
X164661904Y-97237428D01*
X164700000Y-97123142D01*
X164661904Y-96894571D02*
X164661904Y-96437428D01*
X165461904Y-96666000D02*
X164661904Y-96666000D01*
X165042857Y-95294571D02*
X165080952Y-95180285D01*
X165119047Y-95142190D01*
X165195238Y-95104095D01*
X165309523Y-95104095D01*
X165385714Y-95142190D01*
X165423809Y-95180285D01*
X165461904Y-95256476D01*
X165461904Y-95561238D01*
X164661904Y-95561238D01*
X164661904Y-95294571D01*
X164700000Y-95218380D01*
X164738095Y-95180285D01*
X164814285Y-95142190D01*
X164890476Y-95142190D01*
X164966666Y-95180285D01*
X165004761Y-95218380D01*
X165042857Y-95294571D01*
X165042857Y-95561238D01*
X164738095Y-94799333D02*
X164700000Y-94761238D01*
X164661904Y-94685047D01*
X164661904Y-94494571D01*
X164700000Y-94418380D01*
X164738095Y-94380285D01*
X164814285Y-94342190D01*
X164890476Y-94342190D01*
X165004761Y-94380285D01*
X165461904Y-94837428D01*
X165461904Y-94342190D01*
X164661904Y-106559142D02*
X165233333Y-106559142D01*
X165347619Y-106597238D01*
X165423809Y-106673428D01*
X165461904Y-106787714D01*
X165461904Y-106863904D01*
X165423809Y-106216285D02*
X165461904Y-106102000D01*
X165461904Y-105911523D01*
X165423809Y-105835333D01*
X165385714Y-105797238D01*
X165309523Y-105759142D01*
X165233333Y-105759142D01*
X165157142Y-105797238D01*
X165119047Y-105835333D01*
X165080952Y-105911523D01*
X165042857Y-106063904D01*
X165004761Y-106140095D01*
X164966666Y-106178190D01*
X164890476Y-106216285D01*
X164814285Y-106216285D01*
X164738095Y-106178190D01*
X164700000Y-106140095D01*
X164661904Y-106063904D01*
X164661904Y-105873428D01*
X164700000Y-105759142D01*
X164661904Y-105530571D02*
X164661904Y-105073428D01*
X165461904Y-105302000D02*
X164661904Y-105302000D01*
X165042857Y-103930571D02*
X165080952Y-103816285D01*
X165119047Y-103778190D01*
X165195238Y-103740095D01*
X165309523Y-103740095D01*
X165385714Y-103778190D01*
X165423809Y-103816285D01*
X165461904Y-103892476D01*
X165461904Y-104197238D01*
X164661904Y-104197238D01*
X164661904Y-103930571D01*
X164700000Y-103854380D01*
X164738095Y-103816285D01*
X164814285Y-103778190D01*
X164890476Y-103778190D01*
X164966666Y-103816285D01*
X165004761Y-103854380D01*
X165042857Y-103930571D01*
X165042857Y-104197238D01*
X164661904Y-103473428D02*
X164661904Y-102978190D01*
X164966666Y-103244857D01*
X164966666Y-103130571D01*
X165004761Y-103054380D01*
X165042857Y-103016285D01*
X165119047Y-102978190D01*
X165309523Y-102978190D01*
X165385714Y-103016285D01*
X165423809Y-103054380D01*
X165461904Y-103130571D01*
X165461904Y-103359142D01*
X165423809Y-103435333D01*
X165385714Y-103473428D01*
X109120238Y-106719714D02*
X109120238Y-107719714D01*
X109120238Y-106767333D02*
X109210714Y-106719714D01*
X109391666Y-106719714D01*
X109482142Y-106767333D01*
X109527380Y-106814952D01*
X109572619Y-106910190D01*
X109572619Y-107195904D01*
X109527380Y-107291142D01*
X109482142Y-107338761D01*
X109391666Y-107386380D01*
X109210714Y-107386380D01*
X109120238Y-107338761D01*
X109979761Y-107386380D02*
X109979761Y-106386380D01*
X110386904Y-107386380D02*
X110386904Y-106862571D01*
X110341666Y-106767333D01*
X110251190Y-106719714D01*
X110115476Y-106719714D01*
X110025000Y-106767333D01*
X109979761Y-106814952D01*
X110975000Y-107386380D02*
X110884523Y-107338761D01*
X110839285Y-107291142D01*
X110794047Y-107195904D01*
X110794047Y-106910190D01*
X110839285Y-106814952D01*
X110884523Y-106767333D01*
X110975000Y-106719714D01*
X111110714Y-106719714D01*
X111201190Y-106767333D01*
X111246428Y-106814952D01*
X111291666Y-106910190D01*
X111291666Y-107195904D01*
X111246428Y-107291142D01*
X111201190Y-107338761D01*
X111110714Y-107386380D01*
X110975000Y-107386380D01*
X111563095Y-106719714D02*
X111925000Y-106719714D01*
X111698809Y-106386380D02*
X111698809Y-107243523D01*
X111744047Y-107338761D01*
X111834523Y-107386380D01*
X111925000Y-107386380D01*
X112377380Y-107386380D02*
X112286904Y-107338761D01*
X112241666Y-107291142D01*
X112196428Y-107195904D01*
X112196428Y-106910190D01*
X112241666Y-106814952D01*
X112286904Y-106767333D01*
X112377380Y-106719714D01*
X112513095Y-106719714D01*
X112603571Y-106767333D01*
X112648809Y-106814952D01*
X112694047Y-106910190D01*
X112694047Y-107195904D01*
X112648809Y-107291142D01*
X112603571Y-107338761D01*
X112513095Y-107386380D01*
X112377380Y-107386380D01*
X112965476Y-106719714D02*
X113327380Y-106719714D01*
X113101190Y-106386380D02*
X113101190Y-107243523D01*
X113146428Y-107338761D01*
X113236904Y-107386380D01*
X113327380Y-107386380D01*
X113644047Y-107386380D02*
X113644047Y-106719714D01*
X113644047Y-106910190D02*
X113689285Y-106814952D01*
X113734523Y-106767333D01*
X113825000Y-106719714D01*
X113915476Y-106719714D01*
X114639285Y-107386380D02*
X114639285Y-106862571D01*
X114594047Y-106767333D01*
X114503571Y-106719714D01*
X114322619Y-106719714D01*
X114232142Y-106767333D01*
X114639285Y-107338761D02*
X114548809Y-107386380D01*
X114322619Y-107386380D01*
X114232142Y-107338761D01*
X114186904Y-107243523D01*
X114186904Y-107148285D01*
X114232142Y-107053047D01*
X114322619Y-107005428D01*
X114548809Y-107005428D01*
X114639285Y-106957809D01*
X115091666Y-106719714D02*
X115091666Y-107386380D01*
X115091666Y-106814952D02*
X115136904Y-106767333D01*
X115227380Y-106719714D01*
X115363095Y-106719714D01*
X115453571Y-106767333D01*
X115498809Y-106862571D01*
X115498809Y-107386380D01*
X115905952Y-107338761D02*
X115996428Y-107386380D01*
X116177380Y-107386380D01*
X116267857Y-107338761D01*
X116313095Y-107243523D01*
X116313095Y-107195904D01*
X116267857Y-107100666D01*
X116177380Y-107053047D01*
X116041666Y-107053047D01*
X115951190Y-107005428D01*
X115905952Y-106910190D01*
X115905952Y-106862571D01*
X115951190Y-106767333D01*
X116041666Y-106719714D01*
X116177380Y-106719714D01*
X116267857Y-106767333D01*
X116720238Y-107386380D02*
X116720238Y-106719714D01*
X116720238Y-106386380D02*
X116675000Y-106434000D01*
X116720238Y-106481619D01*
X116765476Y-106434000D01*
X116720238Y-106386380D01*
X116720238Y-106481619D01*
X117127380Y-107338761D02*
X117217857Y-107386380D01*
X117398809Y-107386380D01*
X117489285Y-107338761D01*
X117534523Y-107243523D01*
X117534523Y-107195904D01*
X117489285Y-107100666D01*
X117398809Y-107053047D01*
X117263095Y-107053047D01*
X117172619Y-107005428D01*
X117127380Y-106910190D01*
X117127380Y-106862571D01*
X117172619Y-106767333D01*
X117263095Y-106719714D01*
X117398809Y-106719714D01*
X117489285Y-106767333D01*
X117805952Y-106719714D02*
X118167857Y-106719714D01*
X117941666Y-106386380D02*
X117941666Y-107243523D01*
X117986904Y-107338761D01*
X118077380Y-107386380D01*
X118167857Y-107386380D01*
X118620238Y-107386380D02*
X118529761Y-107338761D01*
X118484523Y-107291142D01*
X118439285Y-107195904D01*
X118439285Y-106910190D01*
X118484523Y-106814952D01*
X118529761Y-106767333D01*
X118620238Y-106719714D01*
X118755952Y-106719714D01*
X118846428Y-106767333D01*
X118891666Y-106814952D01*
X118936904Y-106910190D01*
X118936904Y-107195904D01*
X118891666Y-107291142D01*
X118846428Y-107338761D01*
X118755952Y-107386380D01*
X118620238Y-107386380D01*
X119344047Y-107386380D02*
X119344047Y-106719714D01*
X119344047Y-106910190D02*
X119389285Y-106814952D01*
X119434523Y-106767333D01*
X119525000Y-106719714D01*
X119615476Y-106719714D01*
X121717047Y-83211142D02*
X121450380Y-82782571D01*
X121259904Y-83211142D02*
X121259904Y-82311142D01*
X121564666Y-82311142D01*
X121640857Y-82354000D01*
X121678952Y-82396857D01*
X121717047Y-82482571D01*
X121717047Y-82611142D01*
X121678952Y-82696857D01*
X121640857Y-82739714D01*
X121564666Y-82782571D01*
X121259904Y-82782571D01*
X122478952Y-83211142D02*
X122021809Y-83211142D01*
X122250380Y-83211142D02*
X122250380Y-82311142D01*
X122174190Y-82439714D01*
X122098000Y-82525428D01*
X122021809Y-82568285D01*
X123774190Y-82611142D02*
X123774190Y-83211142D01*
X123583714Y-82268285D02*
X123393238Y-82911142D01*
X123888476Y-82911142D01*
X124117047Y-82311142D02*
X124650380Y-82311142D01*
X124307523Y-83211142D01*
X125107523Y-82311142D02*
X125183714Y-82311142D01*
X125259904Y-82354000D01*
X125298000Y-82396857D01*
X125336095Y-82482571D01*
X125374190Y-82654000D01*
X125374190Y-82868285D01*
X125336095Y-83039714D01*
X125298000Y-83125428D01*
X125259904Y-83168285D01*
X125183714Y-83211142D01*
X125107523Y-83211142D01*
X125031333Y-83168285D01*
X124993238Y-83125428D01*
X124955142Y-83039714D01*
X124917047Y-82868285D01*
X124917047Y-82654000D01*
X124955142Y-82482571D01*
X124993238Y-82396857D01*
X125031333Y-82354000D01*
X125107523Y-82311142D01*
X126174190Y-83211142D02*
X125907523Y-82782571D01*
X125717047Y-83211142D02*
X125717047Y-82311142D01*
X126021809Y-82311142D01*
X126098000Y-82354000D01*
X126136095Y-82396857D01*
X126174190Y-82482571D01*
X126174190Y-82611142D01*
X126136095Y-82696857D01*
X126098000Y-82739714D01*
X126021809Y-82782571D01*
X125717047Y-82782571D01*
X121717047Y-86213904D02*
X121450380Y-85832952D01*
X121259904Y-86213904D02*
X121259904Y-85413904D01*
X121564666Y-85413904D01*
X121640857Y-85452000D01*
X121678952Y-85490095D01*
X121717047Y-85566285D01*
X121717047Y-85680571D01*
X121678952Y-85756761D01*
X121640857Y-85794857D01*
X121564666Y-85832952D01*
X121259904Y-85832952D01*
X122021809Y-85490095D02*
X122059904Y-85452000D01*
X122136095Y-85413904D01*
X122326571Y-85413904D01*
X122402761Y-85452000D01*
X122440857Y-85490095D01*
X122478952Y-85566285D01*
X122478952Y-85642476D01*
X122440857Y-85756761D01*
X121983714Y-86213904D01*
X122478952Y-86213904D01*
X123774190Y-85680571D02*
X123774190Y-86213904D01*
X123583714Y-85375809D02*
X123393238Y-85947238D01*
X123888476Y-85947238D01*
X124117047Y-85413904D02*
X124650380Y-85413904D01*
X124307523Y-86213904D01*
X125107523Y-85413904D02*
X125183714Y-85413904D01*
X125259904Y-85452000D01*
X125298000Y-85490095D01*
X125336095Y-85566285D01*
X125374190Y-85718666D01*
X125374190Y-85909142D01*
X125336095Y-86061523D01*
X125298000Y-86137714D01*
X125259904Y-86175809D01*
X125183714Y-86213904D01*
X125107523Y-86213904D01*
X125031333Y-86175809D01*
X124993238Y-86137714D01*
X124955142Y-86061523D01*
X124917047Y-85909142D01*
X124917047Y-85718666D01*
X124955142Y-85566285D01*
X124993238Y-85490095D01*
X125031333Y-85452000D01*
X125107523Y-85413904D01*
X126174190Y-86213904D02*
X125907523Y-85832952D01*
X125717047Y-86213904D02*
X125717047Y-85413904D01*
X126021809Y-85413904D01*
X126098000Y-85452000D01*
X126136095Y-85490095D01*
X126174190Y-85566285D01*
X126174190Y-85680571D01*
X126136095Y-85756761D01*
X126098000Y-85794857D01*
X126021809Y-85832952D01*
X125717047Y-85832952D01*
X142799047Y-111613904D02*
X142532380Y-111232952D01*
X142341904Y-111613904D02*
X142341904Y-110813904D01*
X142646666Y-110813904D01*
X142722857Y-110852000D01*
X142760952Y-110890095D01*
X142799047Y-110966285D01*
X142799047Y-111080571D01*
X142760952Y-111156761D01*
X142722857Y-111194857D01*
X142646666Y-111232952D01*
X142341904Y-111232952D01*
X143484761Y-111080571D02*
X143484761Y-111613904D01*
X143294285Y-110775809D02*
X143103809Y-111347238D01*
X143599047Y-111347238D01*
X144856190Y-111080571D02*
X144856190Y-111613904D01*
X144665714Y-110775809D02*
X144475238Y-111347238D01*
X144970476Y-111347238D01*
X145199047Y-110813904D02*
X145732380Y-110813904D01*
X145389523Y-111613904D01*
X146189523Y-110813904D02*
X146265714Y-110813904D01*
X146341904Y-110852000D01*
X146380000Y-110890095D01*
X146418095Y-110966285D01*
X146456190Y-111118666D01*
X146456190Y-111309142D01*
X146418095Y-111461523D01*
X146380000Y-111537714D01*
X146341904Y-111575809D01*
X146265714Y-111613904D01*
X146189523Y-111613904D01*
X146113333Y-111575809D01*
X146075238Y-111537714D01*
X146037142Y-111461523D01*
X145999047Y-111309142D01*
X145999047Y-111118666D01*
X146037142Y-110966285D01*
X146075238Y-110890095D01*
X146113333Y-110852000D01*
X146189523Y-110813904D01*
X147256190Y-111613904D02*
X146989523Y-111232952D01*
X146799047Y-111613904D02*
X146799047Y-110813904D01*
X147103809Y-110813904D01*
X147180000Y-110852000D01*
X147218095Y-110890095D01*
X147256190Y-110966285D01*
X147256190Y-111080571D01*
X147218095Y-111156761D01*
X147180000Y-111194857D01*
X147103809Y-111232952D01*
X146799047Y-111232952D01*
X142799047Y-114153904D02*
X142532380Y-113772952D01*
X142341904Y-114153904D02*
X142341904Y-113353904D01*
X142646666Y-113353904D01*
X142722857Y-113392000D01*
X142760952Y-113430095D01*
X142799047Y-113506285D01*
X142799047Y-113620571D01*
X142760952Y-113696761D01*
X142722857Y-113734857D01*
X142646666Y-113772952D01*
X142341904Y-113772952D01*
X143522857Y-113353904D02*
X143141904Y-113353904D01*
X143103809Y-113734857D01*
X143141904Y-113696761D01*
X143218095Y-113658666D01*
X143408571Y-113658666D01*
X143484761Y-113696761D01*
X143522857Y-113734857D01*
X143560952Y-113811047D01*
X143560952Y-114001523D01*
X143522857Y-114077714D01*
X143484761Y-114115809D01*
X143408571Y-114153904D01*
X143218095Y-114153904D01*
X143141904Y-114115809D01*
X143103809Y-114077714D01*
X144856190Y-113620571D02*
X144856190Y-114153904D01*
X144665714Y-113315809D02*
X144475238Y-113887238D01*
X144970476Y-113887238D01*
X145199047Y-113353904D02*
X145732380Y-113353904D01*
X145389523Y-114153904D01*
X146189523Y-113353904D02*
X146265714Y-113353904D01*
X146341904Y-113392000D01*
X146380000Y-113430095D01*
X146418095Y-113506285D01*
X146456190Y-113658666D01*
X146456190Y-113849142D01*
X146418095Y-114001523D01*
X146380000Y-114077714D01*
X146341904Y-114115809D01*
X146265714Y-114153904D01*
X146189523Y-114153904D01*
X146113333Y-114115809D01*
X146075238Y-114077714D01*
X146037142Y-114001523D01*
X145999047Y-113849142D01*
X145999047Y-113658666D01*
X146037142Y-113506285D01*
X146075238Y-113430095D01*
X146113333Y-113392000D01*
X146189523Y-113353904D01*
X147256190Y-114153904D02*
X146989523Y-113772952D01*
X146799047Y-114153904D02*
X146799047Y-113353904D01*
X147103809Y-113353904D01*
X147180000Y-113392000D01*
X147218095Y-113430095D01*
X147256190Y-113506285D01*
X147256190Y-113620571D01*
X147218095Y-113696761D01*
X147180000Y-113734857D01*
X147103809Y-113772952D01*
X146799047Y-113772952D01*
X121970952Y-101453904D02*
X121704285Y-101072952D01*
X121513809Y-101453904D02*
X121513809Y-100653904D01*
X121818571Y-100653904D01*
X121894761Y-100692000D01*
X121932857Y-100730095D01*
X121970952Y-100806285D01*
X121970952Y-100920571D01*
X121932857Y-100996761D01*
X121894761Y-101034857D01*
X121818571Y-101072952D01*
X121513809Y-101072952D01*
X122656666Y-100653904D02*
X122504285Y-100653904D01*
X122428095Y-100692000D01*
X122390000Y-100730095D01*
X122313809Y-100844380D01*
X122275714Y-100996761D01*
X122275714Y-101301523D01*
X122313809Y-101377714D01*
X122351904Y-101415809D01*
X122428095Y-101453904D01*
X122580476Y-101453904D01*
X122656666Y-101415809D01*
X122694761Y-101377714D01*
X122732857Y-101301523D01*
X122732857Y-101111047D01*
X122694761Y-101034857D01*
X122656666Y-100996761D01*
X122580476Y-100958666D01*
X122428095Y-100958666D01*
X122351904Y-100996761D01*
X122313809Y-101034857D01*
X122275714Y-101111047D01*
X124104285Y-101453904D02*
X123647142Y-101453904D01*
X123875714Y-101453904D02*
X123875714Y-100653904D01*
X123799523Y-100768190D01*
X123723333Y-100844380D01*
X123647142Y-100882476D01*
X124447142Y-101453904D02*
X124447142Y-100653904D01*
X124904285Y-101453904D02*
X124561428Y-100996761D01*
X124904285Y-100653904D02*
X124447142Y-101111047D01*
X121970952Y-105009904D02*
X121704285Y-104628952D01*
X121513809Y-105009904D02*
X121513809Y-104209904D01*
X121818571Y-104209904D01*
X121894761Y-104248000D01*
X121932857Y-104286095D01*
X121970952Y-104362285D01*
X121970952Y-104476571D01*
X121932857Y-104552761D01*
X121894761Y-104590857D01*
X121818571Y-104628952D01*
X121513809Y-104628952D01*
X122237619Y-104209904D02*
X122770952Y-104209904D01*
X122428095Y-105009904D01*
X124104285Y-105009904D02*
X123647142Y-105009904D01*
X123875714Y-105009904D02*
X123875714Y-104209904D01*
X123799523Y-104324190D01*
X123723333Y-104400380D01*
X123647142Y-104438476D01*
X124447142Y-105009904D02*
X124447142Y-104209904D01*
X124904285Y-105009904D02*
X124561428Y-104552761D01*
X124904285Y-104209904D02*
X124447142Y-104667047D01*
X120954952Y-111867904D02*
X120688285Y-111486952D01*
X120497809Y-111867904D02*
X120497809Y-111067904D01*
X120802571Y-111067904D01*
X120878761Y-111106000D01*
X120916857Y-111144095D01*
X120954952Y-111220285D01*
X120954952Y-111334571D01*
X120916857Y-111410761D01*
X120878761Y-111448857D01*
X120802571Y-111486952D01*
X120497809Y-111486952D01*
X121412095Y-111410761D02*
X121335904Y-111372666D01*
X121297809Y-111334571D01*
X121259714Y-111258380D01*
X121259714Y-111220285D01*
X121297809Y-111144095D01*
X121335904Y-111106000D01*
X121412095Y-111067904D01*
X121564476Y-111067904D01*
X121640666Y-111106000D01*
X121678761Y-111144095D01*
X121716857Y-111220285D01*
X121716857Y-111258380D01*
X121678761Y-111334571D01*
X121640666Y-111372666D01*
X121564476Y-111410761D01*
X121412095Y-111410761D01*
X121335904Y-111448857D01*
X121297809Y-111486952D01*
X121259714Y-111563142D01*
X121259714Y-111715523D01*
X121297809Y-111791714D01*
X121335904Y-111829809D01*
X121412095Y-111867904D01*
X121564476Y-111867904D01*
X121640666Y-111829809D01*
X121678761Y-111791714D01*
X121716857Y-111715523D01*
X121716857Y-111563142D01*
X121678761Y-111486952D01*
X121640666Y-111448857D01*
X121564476Y-111410761D01*
X123088285Y-111867904D02*
X122631142Y-111867904D01*
X122859714Y-111867904D02*
X122859714Y-111067904D01*
X122783523Y-111182190D01*
X122707333Y-111258380D01*
X122631142Y-111296476D01*
X123431142Y-111867904D02*
X123431142Y-111067904D01*
X123888285Y-111867904D02*
X123545428Y-111410761D01*
X123888285Y-111067904D02*
X123431142Y-111525047D01*
X120954952Y-115423904D02*
X120688285Y-115042952D01*
X120497809Y-115423904D02*
X120497809Y-114623904D01*
X120802571Y-114623904D01*
X120878761Y-114662000D01*
X120916857Y-114700095D01*
X120954952Y-114776285D01*
X120954952Y-114890571D01*
X120916857Y-114966761D01*
X120878761Y-115004857D01*
X120802571Y-115042952D01*
X120497809Y-115042952D01*
X121335904Y-115423904D02*
X121488285Y-115423904D01*
X121564476Y-115385809D01*
X121602571Y-115347714D01*
X121678761Y-115233428D01*
X121716857Y-115081047D01*
X121716857Y-114776285D01*
X121678761Y-114700095D01*
X121640666Y-114662000D01*
X121564476Y-114623904D01*
X121412095Y-114623904D01*
X121335904Y-114662000D01*
X121297809Y-114700095D01*
X121259714Y-114776285D01*
X121259714Y-114966761D01*
X121297809Y-115042952D01*
X121335904Y-115081047D01*
X121412095Y-115119142D01*
X121564476Y-115119142D01*
X121640666Y-115081047D01*
X121678761Y-115042952D01*
X121716857Y-114966761D01*
X123088285Y-115423904D02*
X122631142Y-115423904D01*
X122859714Y-115423904D02*
X122859714Y-114623904D01*
X122783523Y-114738190D01*
X122707333Y-114814380D01*
X122631142Y-114852476D01*
X123431142Y-115423904D02*
X123431142Y-114623904D01*
X123888285Y-115423904D02*
X123545428Y-114966761D01*
X123888285Y-114623904D02*
X123431142Y-115081047D01*
X152787619Y-117201904D02*
X152787619Y-116668571D01*
X152787619Y-116820952D02*
X152825714Y-116744761D01*
X152863809Y-116706666D01*
X152940000Y-116668571D01*
X153016190Y-116668571D01*
X153587619Y-117163809D02*
X153511428Y-117201904D01*
X153359047Y-117201904D01*
X153282857Y-117163809D01*
X153244761Y-117087619D01*
X153244761Y-116782857D01*
X153282857Y-116706666D01*
X153359047Y-116668571D01*
X153511428Y-116668571D01*
X153587619Y-116706666D01*
X153625714Y-116782857D01*
X153625714Y-116859047D01*
X153244761Y-116935238D01*
X154311428Y-117201904D02*
X154311428Y-116401904D01*
X154311428Y-117163809D02*
X154235238Y-117201904D01*
X154082857Y-117201904D01*
X154006666Y-117163809D01*
X153968571Y-117125714D01*
X153930476Y-117049523D01*
X153930476Y-116820952D01*
X153968571Y-116744761D01*
X154006666Y-116706666D01*
X154082857Y-116668571D01*
X154235238Y-116668571D01*
X154311428Y-116706666D01*
X155682857Y-117201904D02*
X155301904Y-117201904D01*
X155301904Y-116401904D01*
X155949523Y-116782857D02*
X156216190Y-116782857D01*
X156330476Y-117201904D02*
X155949523Y-117201904D01*
X155949523Y-116401904D01*
X156330476Y-116401904D01*
X156673333Y-117201904D02*
X156673333Y-116401904D01*
X156863809Y-116401904D01*
X156978095Y-116440000D01*
X157054285Y-116516190D01*
X157092380Y-116592380D01*
X157130476Y-116744761D01*
X157130476Y-116859047D01*
X157092380Y-117011428D01*
X157054285Y-117087619D01*
X156978095Y-117163809D01*
X156863809Y-117201904D01*
X156673333Y-117201904D01*
X151328380Y-87074000D02*
X150328380Y-87074000D01*
X150709333Y-87074000D02*
X150661714Y-86978761D01*
X150661714Y-86788285D01*
X150709333Y-86693047D01*
X150756952Y-86645428D01*
X150852190Y-86597809D01*
X151137904Y-86597809D01*
X151233142Y-86645428D01*
X151280761Y-86693047D01*
X151328380Y-86788285D01*
X151328380Y-86978761D01*
X151280761Y-87074000D01*
X150661714Y-85740666D02*
X151328380Y-85740666D01*
X150661714Y-86169238D02*
X151185523Y-86169238D01*
X151280761Y-86121619D01*
X151328380Y-86026380D01*
X151328380Y-85883523D01*
X151280761Y-85788285D01*
X151233142Y-85740666D01*
X150661714Y-85407333D02*
X150661714Y-85026380D01*
X150328380Y-85264476D02*
X151185523Y-85264476D01*
X151280761Y-85216857D01*
X151328380Y-85121619D01*
X151328380Y-85026380D01*
X150661714Y-84835904D02*
X150661714Y-84454952D01*
X150328380Y-84693047D02*
X151185523Y-84693047D01*
X151280761Y-84645428D01*
X151328380Y-84550190D01*
X151328380Y-84454952D01*
X151328380Y-83978761D02*
X151280761Y-84074000D01*
X151233142Y-84121619D01*
X151137904Y-84169238D01*
X150852190Y-84169238D01*
X150756952Y-84121619D01*
X150709333Y-84074000D01*
X150661714Y-83978761D01*
X150661714Y-83835904D01*
X150709333Y-83740666D01*
X150756952Y-83693047D01*
X150852190Y-83645428D01*
X151137904Y-83645428D01*
X151233142Y-83693047D01*
X151280761Y-83740666D01*
X151328380Y-83835904D01*
X151328380Y-83978761D01*
X150661714Y-83216857D02*
X151328380Y-83216857D01*
X150756952Y-83216857D02*
X150709333Y-83169238D01*
X150661714Y-83074000D01*
X150661714Y-82931142D01*
X150709333Y-82835904D01*
X150804571Y-82788285D01*
X151328380Y-82788285D01*
X151328380Y-81026380D02*
X151328380Y-81597809D01*
X151328380Y-81312095D02*
X150328380Y-81312095D01*
X150471238Y-81407333D01*
X150566476Y-81502571D01*
X150614095Y-81597809D01*
X151328380Y-103330000D02*
X150328380Y-103330000D01*
X150709333Y-103330000D02*
X150661714Y-103234761D01*
X150661714Y-103044285D01*
X150709333Y-102949047D01*
X150756952Y-102901428D01*
X150852190Y-102853809D01*
X151137904Y-102853809D01*
X151233142Y-102901428D01*
X151280761Y-102949047D01*
X151328380Y-103044285D01*
X151328380Y-103234761D01*
X151280761Y-103330000D01*
X150661714Y-101996666D02*
X151328380Y-101996666D01*
X150661714Y-102425238D02*
X151185523Y-102425238D01*
X151280761Y-102377619D01*
X151328380Y-102282380D01*
X151328380Y-102139523D01*
X151280761Y-102044285D01*
X151233142Y-101996666D01*
X150661714Y-101663333D02*
X150661714Y-101282380D01*
X150328380Y-101520476D02*
X151185523Y-101520476D01*
X151280761Y-101472857D01*
X151328380Y-101377619D01*
X151328380Y-101282380D01*
X150661714Y-101091904D02*
X150661714Y-100710952D01*
X150328380Y-100949047D02*
X151185523Y-100949047D01*
X151280761Y-100901428D01*
X151328380Y-100806190D01*
X151328380Y-100710952D01*
X151328380Y-100234761D02*
X151280761Y-100330000D01*
X151233142Y-100377619D01*
X151137904Y-100425238D01*
X150852190Y-100425238D01*
X150756952Y-100377619D01*
X150709333Y-100330000D01*
X150661714Y-100234761D01*
X150661714Y-100091904D01*
X150709333Y-99996666D01*
X150756952Y-99949047D01*
X150852190Y-99901428D01*
X151137904Y-99901428D01*
X151233142Y-99949047D01*
X151280761Y-99996666D01*
X151328380Y-100091904D01*
X151328380Y-100234761D01*
X150661714Y-99472857D02*
X151328380Y-99472857D01*
X150756952Y-99472857D02*
X150709333Y-99425238D01*
X150661714Y-99330000D01*
X150661714Y-99187142D01*
X150709333Y-99091904D01*
X150804571Y-99044285D01*
X151328380Y-99044285D01*
X150423619Y-97853809D02*
X150376000Y-97806190D01*
X150328380Y-97710952D01*
X150328380Y-97472857D01*
X150376000Y-97377619D01*
X150423619Y-97330000D01*
X150518857Y-97282380D01*
X150614095Y-97282380D01*
X150756952Y-97330000D01*
X151328380Y-97901428D01*
X151328380Y-97282380D01*
X111466380Y-116863333D02*
X111466380Y-116291904D01*
X112466380Y-116577619D02*
X111466380Y-116577619D01*
X112466380Y-115958571D02*
X111466380Y-115958571D01*
X112466380Y-115530000D02*
X111942571Y-115530000D01*
X111847333Y-115577619D01*
X111799714Y-115672857D01*
X111799714Y-115815714D01*
X111847333Y-115910952D01*
X111894952Y-115958571D01*
X112418761Y-114672857D02*
X112466380Y-114768095D01*
X112466380Y-114958571D01*
X112418761Y-115053809D01*
X112323523Y-115101428D01*
X111942571Y-115101428D01*
X111847333Y-115053809D01*
X111799714Y-114958571D01*
X111799714Y-114768095D01*
X111847333Y-114672857D01*
X111942571Y-114625238D01*
X112037809Y-114625238D01*
X112133047Y-115101428D01*
X112466380Y-114196666D02*
X111799714Y-114196666D01*
X111990190Y-114196666D02*
X111894952Y-114149047D01*
X111847333Y-114101428D01*
X111799714Y-114006190D01*
X111799714Y-113910952D01*
X112466380Y-113577619D02*
X111799714Y-113577619D01*
X111894952Y-113577619D02*
X111847333Y-113530000D01*
X111799714Y-113434761D01*
X111799714Y-113291904D01*
X111847333Y-113196666D01*
X111942571Y-113149047D01*
X112466380Y-113149047D01*
X111942571Y-113149047D02*
X111847333Y-113101428D01*
X111799714Y-113006190D01*
X111799714Y-112863333D01*
X111847333Y-112768095D01*
X111942571Y-112720476D01*
X112466380Y-112720476D01*
X112466380Y-112244285D02*
X111799714Y-112244285D01*
X111466380Y-112244285D02*
X111514000Y-112291904D01*
X111561619Y-112244285D01*
X111514000Y-112196666D01*
X111466380Y-112244285D01*
X111561619Y-112244285D01*
X112418761Y-111815714D02*
X112466380Y-111720476D01*
X112466380Y-111530000D01*
X112418761Y-111434761D01*
X112323523Y-111387142D01*
X112275904Y-111387142D01*
X112180666Y-111434761D01*
X112133047Y-111530000D01*
X112133047Y-111672857D01*
X112085428Y-111768095D01*
X111990190Y-111815714D01*
X111942571Y-111815714D01*
X111847333Y-111768095D01*
X111799714Y-111672857D01*
X111799714Y-111530000D01*
X111847333Y-111434761D01*
X111799714Y-111101428D02*
X111799714Y-110720476D01*
X111466380Y-110958571D02*
X112323523Y-110958571D01*
X112418761Y-110910952D01*
X112466380Y-110815714D01*
X112466380Y-110720476D01*
X112466380Y-110244285D02*
X112418761Y-110339523D01*
X112371142Y-110387142D01*
X112275904Y-110434761D01*
X111990190Y-110434761D01*
X111894952Y-110387142D01*
X111847333Y-110339523D01*
X111799714Y-110244285D01*
X111799714Y-110101428D01*
X111847333Y-110006190D01*
X111894952Y-109958571D01*
X111990190Y-109910952D01*
X112275904Y-109910952D01*
X112371142Y-109958571D01*
X112418761Y-110006190D01*
X112466380Y-110101428D01*
X112466380Y-110244285D01*
X112466380Y-109482380D02*
X111799714Y-109482380D01*
X111990190Y-109482380D02*
X111894952Y-109434761D01*
X111847333Y-109387142D01*
X111799714Y-109291904D01*
X111799714Y-109196666D01*
X121717047Y-89261904D02*
X121450380Y-88880952D01*
X121259904Y-89261904D02*
X121259904Y-88461904D01*
X121564666Y-88461904D01*
X121640857Y-88500000D01*
X121678952Y-88538095D01*
X121717047Y-88614285D01*
X121717047Y-88728571D01*
X121678952Y-88804761D01*
X121640857Y-88842857D01*
X121564666Y-88880952D01*
X121259904Y-88880952D01*
X121983714Y-88461904D02*
X122478952Y-88461904D01*
X122212285Y-88766666D01*
X122326571Y-88766666D01*
X122402761Y-88804761D01*
X122440857Y-88842857D01*
X122478952Y-88919047D01*
X122478952Y-89109523D01*
X122440857Y-89185714D01*
X122402761Y-89223809D01*
X122326571Y-89261904D01*
X122098000Y-89261904D01*
X122021809Y-89223809D01*
X121983714Y-89185714D01*
X123774190Y-88728571D02*
X123774190Y-89261904D01*
X123583714Y-88423809D02*
X123393238Y-88995238D01*
X123888476Y-88995238D01*
X124117047Y-88461904D02*
X124650380Y-88461904D01*
X124307523Y-89261904D01*
X125107523Y-88461904D02*
X125183714Y-88461904D01*
X125259904Y-88500000D01*
X125298000Y-88538095D01*
X125336095Y-88614285D01*
X125374190Y-88766666D01*
X125374190Y-88957142D01*
X125336095Y-89109523D01*
X125298000Y-89185714D01*
X125259904Y-89223809D01*
X125183714Y-89261904D01*
X125107523Y-89261904D01*
X125031333Y-89223809D01*
X124993238Y-89185714D01*
X124955142Y-89109523D01*
X124917047Y-88957142D01*
X124917047Y-88766666D01*
X124955142Y-88614285D01*
X124993238Y-88538095D01*
X125031333Y-88500000D01*
X125107523Y-88461904D01*
X126174190Y-89261904D02*
X125907523Y-88880952D01*
X125717047Y-89261904D02*
X125717047Y-88461904D01*
X126021809Y-88461904D01*
X126098000Y-88500000D01*
X126136095Y-88538095D01*
X126174190Y-88614285D01*
X126174190Y-88728571D01*
X126136095Y-88804761D01*
X126098000Y-88842857D01*
X126021809Y-88880952D01*
X125717047Y-88880952D01*
X137056761Y-78001333D02*
X137104380Y-77906095D01*
X137104380Y-77715619D01*
X137056761Y-77620380D01*
X136961523Y-77572761D01*
X136913904Y-77572761D01*
X136818666Y-77620380D01*
X136771047Y-77715619D01*
X136771047Y-77858476D01*
X136723428Y-77953714D01*
X136628190Y-78001333D01*
X136580571Y-78001333D01*
X136485333Y-77953714D01*
X136437714Y-77858476D01*
X136437714Y-77715619D01*
X136485333Y-77620380D01*
X136437714Y-77144190D02*
X137437714Y-77144190D01*
X136485333Y-77144190D02*
X136437714Y-77048952D01*
X136437714Y-76858476D01*
X136485333Y-76763238D01*
X136532952Y-76715619D01*
X136628190Y-76668000D01*
X136913904Y-76668000D01*
X137009142Y-76715619D01*
X137056761Y-76763238D01*
X137104380Y-76858476D01*
X137104380Y-77048952D01*
X137056761Y-77144190D01*
X137104380Y-75810857D02*
X136580571Y-75810857D01*
X136485333Y-75858476D01*
X136437714Y-75953714D01*
X136437714Y-76144190D01*
X136485333Y-76239428D01*
X137056761Y-75810857D02*
X137104380Y-75906095D01*
X137104380Y-76144190D01*
X137056761Y-76239428D01*
X136961523Y-76287047D01*
X136866285Y-76287047D01*
X136771047Y-76239428D01*
X136723428Y-76144190D01*
X136723428Y-75906095D01*
X136675809Y-75810857D01*
X137104380Y-75334666D02*
X136437714Y-75334666D01*
X136628190Y-75334666D02*
X136532952Y-75287047D01*
X136485333Y-75239428D01*
X136437714Y-75144190D01*
X136437714Y-75048952D01*
X137056761Y-74334666D02*
X137104380Y-74429904D01*
X137104380Y-74620380D01*
X137056761Y-74715619D01*
X136961523Y-74763238D01*
X136580571Y-74763238D01*
X136485333Y-74715619D01*
X136437714Y-74620380D01*
X136437714Y-74429904D01*
X136485333Y-74334666D01*
X136580571Y-74287047D01*
X136675809Y-74287047D01*
X136771047Y-74763238D01*
X136437714Y-72668000D02*
X137247238Y-72668000D01*
X137342476Y-72715619D01*
X137390095Y-72763238D01*
X137437714Y-72858476D01*
X137437714Y-73001333D01*
X137390095Y-73096571D01*
X137056761Y-72668000D02*
X137104380Y-72763238D01*
X137104380Y-72953714D01*
X137056761Y-73048952D01*
X137009142Y-73096571D01*
X136913904Y-73144190D01*
X136628190Y-73144190D01*
X136532952Y-73096571D01*
X136485333Y-73048952D01*
X136437714Y-72953714D01*
X136437714Y-72763238D01*
X136485333Y-72668000D01*
X136437714Y-72191809D02*
X137437714Y-72191809D01*
X136485333Y-72191809D02*
X136437714Y-72096571D01*
X136437714Y-71906095D01*
X136485333Y-71810857D01*
X136532952Y-71763238D01*
X136628190Y-71715619D01*
X136913904Y-71715619D01*
X137009142Y-71763238D01*
X137056761Y-71810857D01*
X137104380Y-71906095D01*
X137104380Y-72096571D01*
X137056761Y-72191809D01*
X137104380Y-71287047D02*
X136437714Y-71287047D01*
X136104380Y-71287047D02*
X136152000Y-71334666D01*
X136199619Y-71287047D01*
X136152000Y-71239428D01*
X136104380Y-71287047D01*
X136199619Y-71287047D01*
X137104380Y-70668000D02*
X137056761Y-70763238D01*
X137009142Y-70810857D01*
X136913904Y-70858476D01*
X136628190Y-70858476D01*
X136532952Y-70810857D01*
X136485333Y-70763238D01*
X136437714Y-70668000D01*
X136437714Y-70525142D01*
X136485333Y-70429904D01*
X136532952Y-70382285D01*
X136628190Y-70334666D01*
X136913904Y-70334666D01*
X137009142Y-70382285D01*
X137056761Y-70429904D01*
X137104380Y-70525142D01*
X137104380Y-70668000D01*
X142418095Y-117455904D02*
X142151428Y-117074952D01*
X141960952Y-117455904D02*
X141960952Y-116655904D01*
X142265714Y-116655904D01*
X142341904Y-116694000D01*
X142380000Y-116732095D01*
X142418095Y-116808285D01*
X142418095Y-116922571D01*
X142380000Y-116998761D01*
X142341904Y-117036857D01*
X142265714Y-117074952D01*
X141960952Y-117074952D01*
X143180000Y-117455904D02*
X142722857Y-117455904D01*
X142951428Y-117455904D02*
X142951428Y-116655904D01*
X142875238Y-116770190D01*
X142799047Y-116846380D01*
X142722857Y-116884476D01*
X143675238Y-116655904D02*
X143751428Y-116655904D01*
X143827619Y-116694000D01*
X143865714Y-116732095D01*
X143903809Y-116808285D01*
X143941904Y-116960666D01*
X143941904Y-117151142D01*
X143903809Y-117303523D01*
X143865714Y-117379714D01*
X143827619Y-117417809D01*
X143751428Y-117455904D01*
X143675238Y-117455904D01*
X143599047Y-117417809D01*
X143560952Y-117379714D01*
X143522857Y-117303523D01*
X143484761Y-117151142D01*
X143484761Y-116960666D01*
X143522857Y-116808285D01*
X143560952Y-116732095D01*
X143599047Y-116694000D01*
X143675238Y-116655904D01*
X145237142Y-116922571D02*
X145237142Y-117455904D01*
X145046666Y-116617809D02*
X144856190Y-117189238D01*
X145351428Y-117189238D01*
X145580000Y-116655904D02*
X146113333Y-116655904D01*
X145770476Y-117455904D01*
X146570476Y-116655904D02*
X146646666Y-116655904D01*
X146722857Y-116694000D01*
X146760952Y-116732095D01*
X146799047Y-116808285D01*
X146837142Y-116960666D01*
X146837142Y-117151142D01*
X146799047Y-117303523D01*
X146760952Y-117379714D01*
X146722857Y-117417809D01*
X146646666Y-117455904D01*
X146570476Y-117455904D01*
X146494285Y-117417809D01*
X146456190Y-117379714D01*
X146418095Y-117303523D01*
X146380000Y-117151142D01*
X146380000Y-116960666D01*
X146418095Y-116808285D01*
X146456190Y-116732095D01*
X146494285Y-116694000D01*
X146570476Y-116655904D01*
X147637142Y-117455904D02*
X147370476Y-117074952D01*
X147180000Y-117455904D02*
X147180000Y-116655904D01*
X147484761Y-116655904D01*
X147560952Y-116694000D01*
X147599047Y-116732095D01*
X147637142Y-116808285D01*
X147637142Y-116922571D01*
X147599047Y-116998761D01*
X147560952Y-117036857D01*
X147484761Y-117074952D01*
X147180000Y-117074952D01*
X166141714Y-116668571D02*
X166141714Y-117316190D01*
X166103619Y-117392380D01*
X166065523Y-117430476D01*
X165989333Y-117468571D01*
X165875047Y-117468571D01*
X165798857Y-117430476D01*
X166141714Y-117163809D02*
X166065523Y-117201904D01*
X165913142Y-117201904D01*
X165836952Y-117163809D01*
X165798857Y-117125714D01*
X165760761Y-117049523D01*
X165760761Y-116820952D01*
X165798857Y-116744761D01*
X165836952Y-116706666D01*
X165913142Y-116668571D01*
X166065523Y-116668571D01*
X166141714Y-116706666D01*
X166522666Y-117201904D02*
X166522666Y-116668571D01*
X166522666Y-116820952D02*
X166560761Y-116744761D01*
X166598857Y-116706666D01*
X166675047Y-116668571D01*
X166751238Y-116668571D01*
X167322666Y-117163809D02*
X167246476Y-117201904D01*
X167094095Y-117201904D01*
X167017904Y-117163809D01*
X166979809Y-117087619D01*
X166979809Y-116782857D01*
X167017904Y-116706666D01*
X167094095Y-116668571D01*
X167246476Y-116668571D01*
X167322666Y-116706666D01*
X167360761Y-116782857D01*
X167360761Y-116859047D01*
X166979809Y-116935238D01*
X168008380Y-117163809D02*
X167932190Y-117201904D01*
X167779809Y-117201904D01*
X167703619Y-117163809D01*
X167665523Y-117087619D01*
X167665523Y-116782857D01*
X167703619Y-116706666D01*
X167779809Y-116668571D01*
X167932190Y-116668571D01*
X168008380Y-116706666D01*
X168046476Y-116782857D01*
X168046476Y-116859047D01*
X167665523Y-116935238D01*
X168389333Y-116668571D02*
X168389333Y-117201904D01*
X168389333Y-116744761D02*
X168427428Y-116706666D01*
X168503619Y-116668571D01*
X168617904Y-116668571D01*
X168694095Y-116706666D01*
X168732190Y-116782857D01*
X168732190Y-117201904D01*
X170103619Y-117201904D02*
X169722666Y-117201904D01*
X169722666Y-116401904D01*
X170370285Y-116782857D02*
X170636952Y-116782857D01*
X170751238Y-117201904D02*
X170370285Y-117201904D01*
X170370285Y-116401904D01*
X170751238Y-116401904D01*
X171094095Y-117201904D02*
X171094095Y-116401904D01*
X171284571Y-116401904D01*
X171398857Y-116440000D01*
X171475047Y-116516190D01*
X171513142Y-116592380D01*
X171551238Y-116744761D01*
X171551238Y-116859047D01*
X171513142Y-117011428D01*
X171475047Y-117087619D01*
X171398857Y-117163809D01*
X171284571Y-117201904D01*
X171094095Y-117201904D01*
X166985904Y-78174476D02*
X166452571Y-78174476D01*
X166528761Y-78174476D02*
X166490666Y-78136380D01*
X166452571Y-78060190D01*
X166452571Y-77945904D01*
X166490666Y-77869714D01*
X166566857Y-77831619D01*
X166985904Y-77831619D01*
X166566857Y-77831619D02*
X166490666Y-77793523D01*
X166452571Y-77717333D01*
X166452571Y-77603047D01*
X166490666Y-77526857D01*
X166566857Y-77488761D01*
X166985904Y-77488761D01*
X166985904Y-77107809D02*
X166452571Y-77107809D01*
X166185904Y-77107809D02*
X166224000Y-77145904D01*
X166262095Y-77107809D01*
X166224000Y-77069714D01*
X166185904Y-77107809D01*
X166262095Y-77107809D01*
X166947809Y-76384000D02*
X166985904Y-76460190D01*
X166985904Y-76612571D01*
X166947809Y-76688761D01*
X166909714Y-76726857D01*
X166833523Y-76764952D01*
X166604952Y-76764952D01*
X166528761Y-76726857D01*
X166490666Y-76688761D01*
X166452571Y-76612571D01*
X166452571Y-76460190D01*
X166490666Y-76384000D01*
X166985904Y-76041142D02*
X166452571Y-76041142D01*
X166604952Y-76041142D02*
X166528761Y-76003047D01*
X166490666Y-75964952D01*
X166452571Y-75888761D01*
X166452571Y-75812571D01*
X166985904Y-75431619D02*
X166947809Y-75507809D01*
X166909714Y-75545904D01*
X166833523Y-75584000D01*
X166604952Y-75584000D01*
X166528761Y-75545904D01*
X166490666Y-75507809D01*
X166452571Y-75431619D01*
X166452571Y-75317333D01*
X166490666Y-75241142D01*
X166528761Y-75203047D01*
X166604952Y-75164952D01*
X166833523Y-75164952D01*
X166909714Y-75203047D01*
X166947809Y-75241142D01*
X166985904Y-75317333D01*
X166985904Y-75431619D01*
X166185904Y-74212571D02*
X166833523Y-74212571D01*
X166909714Y-74174476D01*
X166947809Y-74136380D01*
X166985904Y-74060190D01*
X166985904Y-73907809D01*
X166947809Y-73831619D01*
X166909714Y-73793523D01*
X166833523Y-73755428D01*
X166185904Y-73755428D01*
X166947809Y-73412571D02*
X166985904Y-73298285D01*
X166985904Y-73107809D01*
X166947809Y-73031619D01*
X166909714Y-72993523D01*
X166833523Y-72955428D01*
X166757333Y-72955428D01*
X166681142Y-72993523D01*
X166643047Y-73031619D01*
X166604952Y-73107809D01*
X166566857Y-73260190D01*
X166528761Y-73336380D01*
X166490666Y-73374476D01*
X166414476Y-73412571D01*
X166338285Y-73412571D01*
X166262095Y-73374476D01*
X166224000Y-73336380D01*
X166185904Y-73260190D01*
X166185904Y-73069714D01*
X166224000Y-72955428D01*
X166566857Y-72345904D02*
X166604952Y-72231619D01*
X166643047Y-72193523D01*
X166719238Y-72155428D01*
X166833523Y-72155428D01*
X166909714Y-72193523D01*
X166947809Y-72231619D01*
X166985904Y-72307809D01*
X166985904Y-72612571D01*
X166185904Y-72612571D01*
X166185904Y-72345904D01*
X166224000Y-72269714D01*
X166262095Y-72231619D01*
X166338285Y-72193523D01*
X166414476Y-72193523D01*
X166490666Y-72231619D01*
X166528761Y-72269714D01*
X166566857Y-72345904D01*
X166566857Y-72612571D01*
X113424571Y-98367809D02*
X113500761Y-98405904D01*
X113653142Y-98405904D01*
X113729333Y-98367809D01*
X113767428Y-98291619D01*
X113767428Y-98253523D01*
X113729333Y-98177333D01*
X113653142Y-98139238D01*
X113538857Y-98139238D01*
X113462666Y-98101142D01*
X113424571Y-98024952D01*
X113424571Y-97986857D01*
X113462666Y-97910666D01*
X113538857Y-97872571D01*
X113653142Y-97872571D01*
X113729333Y-97910666D01*
X113996000Y-97872571D02*
X114300761Y-97872571D01*
X114110285Y-97605904D02*
X114110285Y-98291619D01*
X114148380Y-98367809D01*
X114224571Y-98405904D01*
X114300761Y-98405904D01*
X114872190Y-98367809D02*
X114796000Y-98405904D01*
X114643619Y-98405904D01*
X114567428Y-98367809D01*
X114529333Y-98291619D01*
X114529333Y-97986857D01*
X114567428Y-97910666D01*
X114643619Y-97872571D01*
X114796000Y-97872571D01*
X114872190Y-97910666D01*
X114910285Y-97986857D01*
X114910285Y-98063047D01*
X114529333Y-98139238D01*
X115253142Y-97872571D02*
X115253142Y-98672571D01*
X115253142Y-97910666D02*
X115329333Y-97872571D01*
X115481714Y-97872571D01*
X115557904Y-97910666D01*
X115596000Y-97948761D01*
X115634095Y-98024952D01*
X115634095Y-98253523D01*
X115596000Y-98329714D01*
X115557904Y-98367809D01*
X115481714Y-98405904D01*
X115329333Y-98405904D01*
X115253142Y-98367809D01*
X115976952Y-97872571D02*
X115976952Y-98672571D01*
X115976952Y-97910666D02*
X116053142Y-97872571D01*
X116205523Y-97872571D01*
X116281714Y-97910666D01*
X116319809Y-97948761D01*
X116357904Y-98024952D01*
X116357904Y-98253523D01*
X116319809Y-98329714D01*
X116281714Y-98367809D01*
X116205523Y-98405904D01*
X116053142Y-98405904D01*
X115976952Y-98367809D01*
X117005523Y-98367809D02*
X116929333Y-98405904D01*
X116776952Y-98405904D01*
X116700761Y-98367809D01*
X116662666Y-98291619D01*
X116662666Y-97986857D01*
X116700761Y-97910666D01*
X116776952Y-97872571D01*
X116929333Y-97872571D01*
X117005523Y-97910666D01*
X117043619Y-97986857D01*
X117043619Y-98063047D01*
X116662666Y-98139238D01*
X117386476Y-98405904D02*
X117386476Y-97872571D01*
X117386476Y-98024952D02*
X117424571Y-97948761D01*
X117462666Y-97910666D01*
X117538857Y-97872571D01*
X117615047Y-97872571D01*
X118491238Y-98405904D02*
X118491238Y-97872571D01*
X118491238Y-97948761D02*
X118529333Y-97910666D01*
X118605523Y-97872571D01*
X118719809Y-97872571D01*
X118796000Y-97910666D01*
X118834095Y-97986857D01*
X118834095Y-98405904D01*
X118834095Y-97986857D02*
X118872190Y-97910666D01*
X118948380Y-97872571D01*
X119062666Y-97872571D01*
X119138857Y-97910666D01*
X119176952Y-97986857D01*
X119176952Y-98405904D01*
X119672190Y-98405904D02*
X119596000Y-98367809D01*
X119557904Y-98329714D01*
X119519809Y-98253523D01*
X119519809Y-98024952D01*
X119557904Y-97948761D01*
X119596000Y-97910666D01*
X119672190Y-97872571D01*
X119786476Y-97872571D01*
X119862666Y-97910666D01*
X119900761Y-97948761D01*
X119938857Y-98024952D01*
X119938857Y-98253523D01*
X119900761Y-98329714D01*
X119862666Y-98367809D01*
X119786476Y-98405904D01*
X119672190Y-98405904D01*
X120167428Y-97872571D02*
X120472190Y-97872571D01*
X120281714Y-97605904D02*
X120281714Y-98291619D01*
X120319809Y-98367809D01*
X120396000Y-98405904D01*
X120472190Y-98405904D01*
X120853142Y-98405904D02*
X120776952Y-98367809D01*
X120738857Y-98329714D01*
X120700761Y-98253523D01*
X120700761Y-98024952D01*
X120738857Y-97948761D01*
X120776952Y-97910666D01*
X120853142Y-97872571D01*
X120967428Y-97872571D01*
X121043619Y-97910666D01*
X121081714Y-97948761D01*
X121119809Y-98024952D01*
X121119809Y-98253523D01*
X121081714Y-98329714D01*
X121043619Y-98367809D01*
X120967428Y-98405904D01*
X120853142Y-98405904D01*
X121462666Y-98405904D02*
X121462666Y-97872571D01*
X121462666Y-98024952D02*
X121500761Y-97948761D01*
X121538857Y-97910666D01*
X121615047Y-97872571D01*
X121691238Y-97872571D01*
X123138857Y-97567809D02*
X122453142Y-98596380D01*
X123976952Y-98367809D02*
X124091238Y-98405904D01*
X124281714Y-98405904D01*
X124357904Y-98367809D01*
X124396000Y-98329714D01*
X124434095Y-98253523D01*
X124434095Y-98177333D01*
X124396000Y-98101142D01*
X124357904Y-98063047D01*
X124281714Y-98024952D01*
X124129333Y-97986857D01*
X124053142Y-97948761D01*
X124015047Y-97910666D01*
X123976952Y-97834476D01*
X123976952Y-97758285D01*
X124015047Y-97682095D01*
X124053142Y-97644000D01*
X124129333Y-97605904D01*
X124319809Y-97605904D01*
X124434095Y-97644000D01*
X124776952Y-98405904D02*
X124776952Y-97605904D01*
X125081714Y-97605904D01*
X125157904Y-97644000D01*
X125196000Y-97682095D01*
X125234095Y-97758285D01*
X125234095Y-97872571D01*
X125196000Y-97948761D01*
X125157904Y-97986857D01*
X125081714Y-98024952D01*
X124776952Y-98024952D01*
X125576952Y-98405904D02*
X125576952Y-97605904D01*
X125957904Y-98101142D02*
X126567428Y-98101142D01*
X127367428Y-98405904D02*
X126910285Y-98405904D01*
X127138857Y-98405904D02*
X127138857Y-97605904D01*
X127062666Y-97720190D01*
X126986476Y-97796380D01*
X126910285Y-97834476D01*
X163683904Y-71989523D02*
X162883904Y-71989523D01*
X162883904Y-71684761D01*
X162922000Y-71608571D01*
X162960095Y-71570476D01*
X163036285Y-71532380D01*
X163150571Y-71532380D01*
X163226761Y-71570476D01*
X163264857Y-71608571D01*
X163302952Y-71684761D01*
X163302952Y-71989523D01*
X162883904Y-71265714D02*
X163683904Y-71075238D01*
X163112476Y-70922857D01*
X163683904Y-70770476D01*
X162883904Y-70580000D01*
X163683904Y-69818095D02*
X163302952Y-70084761D01*
X163683904Y-70275238D02*
X162883904Y-70275238D01*
X162883904Y-69970476D01*
X162922000Y-69894285D01*
X162960095Y-69856190D01*
X163036285Y-69818095D01*
X163150571Y-69818095D01*
X163226761Y-69856190D01*
X163264857Y-69894285D01*
X163302952Y-69970476D01*
X163302952Y-70275238D01*
X163150571Y-68865714D02*
X163836285Y-68865714D01*
X163912476Y-68903809D01*
X163950571Y-68980000D01*
X163950571Y-69018095D01*
X162883904Y-68865714D02*
X162922000Y-68903809D01*
X162960095Y-68865714D01*
X162922000Y-68827619D01*
X162883904Y-68865714D01*
X162960095Y-68865714D01*
X163150571Y-68141904D02*
X163683904Y-68141904D01*
X163150571Y-68484761D02*
X163569619Y-68484761D01*
X163645809Y-68446666D01*
X163683904Y-68370476D01*
X163683904Y-68256190D01*
X163645809Y-68180000D01*
X163607714Y-68141904D01*
X163683904Y-67760952D02*
X163150571Y-67760952D01*
X163226761Y-67760952D02*
X163188666Y-67722857D01*
X163150571Y-67646666D01*
X163150571Y-67532380D01*
X163188666Y-67456190D01*
X163264857Y-67418095D01*
X163683904Y-67418095D01*
X163264857Y-67418095D02*
X163188666Y-67380000D01*
X163150571Y-67303809D01*
X163150571Y-67189523D01*
X163188666Y-67113333D01*
X163264857Y-67075238D01*
X163683904Y-67075238D01*
X163150571Y-66694285D02*
X163950571Y-66694285D01*
X163188666Y-66694285D02*
X163150571Y-66618095D01*
X163150571Y-66465714D01*
X163188666Y-66389523D01*
X163226761Y-66351428D01*
X163302952Y-66313333D01*
X163531523Y-66313333D01*
X163607714Y-66351428D01*
X163645809Y-66389523D01*
X163683904Y-66465714D01*
X163683904Y-66618095D01*
X163645809Y-66694285D01*
X163645809Y-65665714D02*
X163683904Y-65741904D01*
X163683904Y-65894285D01*
X163645809Y-65970476D01*
X163569619Y-66008571D01*
X163264857Y-66008571D01*
X163188666Y-65970476D01*
X163150571Y-65894285D01*
X163150571Y-65741904D01*
X163188666Y-65665714D01*
X163264857Y-65627619D01*
X163341047Y-65627619D01*
X163417238Y-66008571D01*
X163683904Y-65284761D02*
X163150571Y-65284761D01*
X163302952Y-65284761D02*
X163226761Y-65246666D01*
X163188666Y-65208571D01*
X163150571Y-65132380D01*
X163150571Y-65056190D01*
M02*
