G04 #@! TF.GenerationSoftware,KiCad,Pcbnew,(5.1.2)-1*
G04 #@! TF.CreationDate,2021-03-27T08:32:09+00:00*
G04 #@! TF.ProjectId,RPI_PCB05,5250495f-6b69-4747-935f-50434230352e,rev?*
G04 #@! TF.SameCoordinates,Original*
G04 #@! TF.FileFunction,Soldermask,Bot*
G04 #@! TF.FilePolarity,Negative*
%FSLAX46Y46*%
G04 Gerber Fmt 4.6, Leading zero omitted, Abs format (unit mm)*
G04 Created by KiCad (PCBNEW (5.1.2)-1) date 2021-03-27 08:32:09*
%MOMM*%
%LPD*%
G04 APERTURE LIST*
%ADD10C,0.150000*%
G04 APERTURE END LIST*
D10*
G36*
X111222549Y-118759116D02*
G01*
X111333734Y-118781232D01*
X111481850Y-118842584D01*
X111538933Y-118866228D01*
X111543203Y-118867997D01*
X111731720Y-118993960D01*
X111892040Y-119154280D01*
X111975385Y-119279015D01*
X112018004Y-119342799D01*
X112104768Y-119552267D01*
X112146082Y-119759963D01*
X112149000Y-119774636D01*
X112149000Y-120001364D01*
X112104768Y-120223734D01*
X112018003Y-120433203D01*
X111892040Y-120621720D01*
X111731720Y-120782040D01*
X111543203Y-120908003D01*
X111333734Y-120994768D01*
X111222549Y-121016884D01*
X111111365Y-121039000D01*
X110884635Y-121039000D01*
X110773451Y-121016884D01*
X110662266Y-120994768D01*
X110452797Y-120908003D01*
X110264280Y-120782040D01*
X110103960Y-120621720D01*
X109977997Y-120433203D01*
X109891232Y-120223734D01*
X109847000Y-120001364D01*
X109847000Y-119774636D01*
X109849919Y-119759963D01*
X109891232Y-119552267D01*
X109977996Y-119342799D01*
X110020615Y-119279015D01*
X110103960Y-119154280D01*
X110264280Y-118993960D01*
X110452797Y-118867997D01*
X110457068Y-118866228D01*
X110514150Y-118842584D01*
X110662266Y-118781232D01*
X110773451Y-118759116D01*
X110884635Y-118737000D01*
X111111365Y-118737000D01*
X111222549Y-118759116D01*
X111222549Y-118759116D01*
G37*
G36*
X170150549Y-118759116D02*
G01*
X170261734Y-118781232D01*
X170409850Y-118842584D01*
X170466933Y-118866228D01*
X170471203Y-118867997D01*
X170659720Y-118993960D01*
X170820040Y-119154280D01*
X170903385Y-119279015D01*
X170946004Y-119342799D01*
X171032768Y-119552267D01*
X171074082Y-119759963D01*
X171077000Y-119774636D01*
X171077000Y-120001364D01*
X171032768Y-120223734D01*
X170946003Y-120433203D01*
X170820040Y-120621720D01*
X170659720Y-120782040D01*
X170471203Y-120908003D01*
X170261734Y-120994768D01*
X170150549Y-121016884D01*
X170039365Y-121039000D01*
X169812635Y-121039000D01*
X169701451Y-121016884D01*
X169590266Y-120994768D01*
X169380797Y-120908003D01*
X169192280Y-120782040D01*
X169031960Y-120621720D01*
X168905997Y-120433203D01*
X168819232Y-120223734D01*
X168775000Y-120001364D01*
X168775000Y-119774636D01*
X168777919Y-119759963D01*
X168819232Y-119552267D01*
X168905996Y-119342799D01*
X168948615Y-119279015D01*
X169031960Y-119154280D01*
X169192280Y-118993960D01*
X169380797Y-118867997D01*
X169385068Y-118866228D01*
X169442150Y-118842584D01*
X169590266Y-118781232D01*
X169701451Y-118759116D01*
X169812635Y-118737000D01*
X170039365Y-118737000D01*
X170150549Y-118759116D01*
X170150549Y-118759116D01*
G37*
G36*
X134984443Y-117977519D02*
G01*
X135050627Y-117984037D01*
X135220466Y-118035557D01*
X135376991Y-118119222D01*
X135412729Y-118148552D01*
X135514186Y-118231814D01*
X135597448Y-118333271D01*
X135626778Y-118369009D01*
X135710443Y-118525534D01*
X135761963Y-118695373D01*
X135779359Y-118872000D01*
X135761963Y-119048627D01*
X135710443Y-119218466D01*
X135626778Y-119374991D01*
X135597448Y-119410729D01*
X135514186Y-119512186D01*
X135412729Y-119595448D01*
X135376991Y-119624778D01*
X135220466Y-119708443D01*
X135050627Y-119759963D01*
X134984442Y-119766482D01*
X134918260Y-119773000D01*
X134829740Y-119773000D01*
X134763558Y-119766482D01*
X134697373Y-119759963D01*
X134527534Y-119708443D01*
X134371009Y-119624778D01*
X134335271Y-119595448D01*
X134233814Y-119512186D01*
X134150552Y-119410729D01*
X134121222Y-119374991D01*
X134037557Y-119218466D01*
X133986037Y-119048627D01*
X133968641Y-118872000D01*
X133986037Y-118695373D01*
X134037557Y-118525534D01*
X134121222Y-118369009D01*
X134150552Y-118333271D01*
X134233814Y-118231814D01*
X134335271Y-118148552D01*
X134371009Y-118119222D01*
X134527534Y-118035557D01*
X134697373Y-117984037D01*
X134763557Y-117977519D01*
X134829740Y-117971000D01*
X134918260Y-117971000D01*
X134984443Y-117977519D01*
X134984443Y-117977519D01*
G37*
G36*
X132444443Y-117977519D02*
G01*
X132510627Y-117984037D01*
X132680466Y-118035557D01*
X132836991Y-118119222D01*
X132872729Y-118148552D01*
X132974186Y-118231814D01*
X133057448Y-118333271D01*
X133086778Y-118369009D01*
X133170443Y-118525534D01*
X133221963Y-118695373D01*
X133239359Y-118872000D01*
X133221963Y-119048627D01*
X133170443Y-119218466D01*
X133086778Y-119374991D01*
X133057448Y-119410729D01*
X132974186Y-119512186D01*
X132872729Y-119595448D01*
X132836991Y-119624778D01*
X132680466Y-119708443D01*
X132510627Y-119759963D01*
X132444442Y-119766482D01*
X132378260Y-119773000D01*
X132289740Y-119773000D01*
X132223558Y-119766482D01*
X132157373Y-119759963D01*
X131987534Y-119708443D01*
X131831009Y-119624778D01*
X131795271Y-119595448D01*
X131693814Y-119512186D01*
X131610552Y-119410729D01*
X131581222Y-119374991D01*
X131497557Y-119218466D01*
X131446037Y-119048627D01*
X131428641Y-118872000D01*
X131446037Y-118695373D01*
X131497557Y-118525534D01*
X131581222Y-118369009D01*
X131610552Y-118333271D01*
X131693814Y-118231814D01*
X131795271Y-118148552D01*
X131831009Y-118119222D01*
X131987534Y-118035557D01*
X132157373Y-117984037D01*
X132223557Y-117977519D01*
X132289740Y-117971000D01*
X132378260Y-117971000D01*
X132444443Y-117977519D01*
X132444443Y-117977519D01*
G37*
G36*
X122502228Y-117799703D02*
G01*
X122657100Y-117863853D01*
X122796481Y-117956985D01*
X122915015Y-118075519D01*
X123008147Y-118214900D01*
X123072297Y-118369772D01*
X123105000Y-118534184D01*
X123105000Y-118701816D01*
X123072297Y-118866228D01*
X123008147Y-119021100D01*
X122915015Y-119160481D01*
X122796481Y-119279015D01*
X122657100Y-119372147D01*
X122502228Y-119436297D01*
X122337816Y-119469000D01*
X122170184Y-119469000D01*
X122005772Y-119436297D01*
X121850900Y-119372147D01*
X121711519Y-119279015D01*
X121592985Y-119160481D01*
X121499853Y-119021100D01*
X121435703Y-118866228D01*
X121403000Y-118701816D01*
X121403000Y-118534184D01*
X121435703Y-118369772D01*
X121499853Y-118214900D01*
X121592985Y-118075519D01*
X121711519Y-117956985D01*
X121850900Y-117863853D01*
X122005772Y-117799703D01*
X122170184Y-117767000D01*
X122337816Y-117767000D01*
X122502228Y-117799703D01*
X122502228Y-117799703D01*
G37*
G36*
X127502228Y-117799703D02*
G01*
X127657100Y-117863853D01*
X127796481Y-117956985D01*
X127915015Y-118075519D01*
X128008147Y-118214900D01*
X128072297Y-118369772D01*
X128105000Y-118534184D01*
X128105000Y-118701816D01*
X128072297Y-118866228D01*
X128008147Y-119021100D01*
X127915015Y-119160481D01*
X127796481Y-119279015D01*
X127657100Y-119372147D01*
X127502228Y-119436297D01*
X127337816Y-119469000D01*
X127170184Y-119469000D01*
X127005772Y-119436297D01*
X126850900Y-119372147D01*
X126711519Y-119279015D01*
X126592985Y-119160481D01*
X126499853Y-119021100D01*
X126435703Y-118866228D01*
X126403000Y-118701816D01*
X126403000Y-118534184D01*
X126435703Y-118369772D01*
X126499853Y-118214900D01*
X126592985Y-118075519D01*
X126711519Y-117956985D01*
X126850900Y-117863853D01*
X127005772Y-117799703D01*
X127170184Y-117767000D01*
X127337816Y-117767000D01*
X127502228Y-117799703D01*
X127502228Y-117799703D01*
G37*
G36*
X150026823Y-116255313D02*
G01*
X150187242Y-116303976D01*
X150287578Y-116357607D01*
X150335078Y-116382996D01*
X150464659Y-116489341D01*
X150571004Y-116618922D01*
X150571005Y-116618924D01*
X150650024Y-116766758D01*
X150698687Y-116927177D01*
X150715117Y-117094000D01*
X150698687Y-117260823D01*
X150650024Y-117421242D01*
X150609477Y-117497100D01*
X150571004Y-117569078D01*
X150464659Y-117698659D01*
X150335078Y-117805004D01*
X150335076Y-117805005D01*
X150187242Y-117884024D01*
X150026823Y-117932687D01*
X149901804Y-117945000D01*
X149818196Y-117945000D01*
X149693177Y-117932687D01*
X149532758Y-117884024D01*
X149384924Y-117805005D01*
X149384922Y-117805004D01*
X149255341Y-117698659D01*
X149148996Y-117569078D01*
X149110523Y-117497100D01*
X149069976Y-117421242D01*
X149021313Y-117260823D01*
X149004883Y-117094000D01*
X149021313Y-116927177D01*
X149069976Y-116766758D01*
X149148995Y-116618924D01*
X149148996Y-116618922D01*
X149255341Y-116489341D01*
X149384922Y-116382996D01*
X149432422Y-116357607D01*
X149532758Y-116303976D01*
X149693177Y-116255313D01*
X149818196Y-116243000D01*
X149901804Y-116243000D01*
X150026823Y-116255313D01*
X150026823Y-116255313D01*
G37*
G36*
X139948228Y-116275703D02*
G01*
X140103100Y-116339853D01*
X140242481Y-116432985D01*
X140361015Y-116551519D01*
X140454147Y-116690900D01*
X140518297Y-116845772D01*
X140551000Y-117010184D01*
X140551000Y-117177816D01*
X140518297Y-117342228D01*
X140454147Y-117497100D01*
X140361015Y-117636481D01*
X140242481Y-117755015D01*
X140103100Y-117848147D01*
X139948228Y-117912297D01*
X139783816Y-117945000D01*
X139616184Y-117945000D01*
X139451772Y-117912297D01*
X139296900Y-117848147D01*
X139157519Y-117755015D01*
X139038985Y-117636481D01*
X138945853Y-117497100D01*
X138881703Y-117342228D01*
X138849000Y-117177816D01*
X138849000Y-117010184D01*
X138881703Y-116845772D01*
X138945853Y-116690900D01*
X139038985Y-116551519D01*
X139157519Y-116432985D01*
X139296900Y-116339853D01*
X139451772Y-116275703D01*
X139616184Y-116243000D01*
X139783816Y-116243000D01*
X139948228Y-116275703D01*
X139948228Y-116275703D01*
G37*
G36*
X132444442Y-115437518D02*
G01*
X132510627Y-115444037D01*
X132680466Y-115495557D01*
X132836991Y-115579222D01*
X132867768Y-115604480D01*
X132974186Y-115691814D01*
X133057448Y-115793271D01*
X133086778Y-115829009D01*
X133170443Y-115985534D01*
X133221963Y-116155373D01*
X133239359Y-116332000D01*
X133221963Y-116508627D01*
X133170443Y-116678466D01*
X133086778Y-116834991D01*
X133077931Y-116845771D01*
X132974186Y-116972186D01*
X132872729Y-117055448D01*
X132836991Y-117084778D01*
X132680466Y-117168443D01*
X132510627Y-117219963D01*
X132444442Y-117226482D01*
X132378260Y-117233000D01*
X132289740Y-117233000D01*
X132223558Y-117226482D01*
X132157373Y-117219963D01*
X131987534Y-117168443D01*
X131831009Y-117084778D01*
X131795271Y-117055448D01*
X131693814Y-116972186D01*
X131590069Y-116845771D01*
X131581222Y-116834991D01*
X131497557Y-116678466D01*
X131446037Y-116508627D01*
X131428641Y-116332000D01*
X131446037Y-116155373D01*
X131497557Y-115985534D01*
X131581222Y-115829009D01*
X131610552Y-115793271D01*
X131693814Y-115691814D01*
X131800232Y-115604480D01*
X131831009Y-115579222D01*
X131987534Y-115495557D01*
X132157373Y-115444037D01*
X132223558Y-115437518D01*
X132289740Y-115431000D01*
X132378260Y-115431000D01*
X132444442Y-115437518D01*
X132444442Y-115437518D01*
G37*
G36*
X134984442Y-115437518D02*
G01*
X135050627Y-115444037D01*
X135220466Y-115495557D01*
X135376991Y-115579222D01*
X135407768Y-115604480D01*
X135514186Y-115691814D01*
X135597448Y-115793271D01*
X135626778Y-115829009D01*
X135710443Y-115985534D01*
X135761963Y-116155373D01*
X135779359Y-116332000D01*
X135761963Y-116508627D01*
X135710443Y-116678466D01*
X135626778Y-116834991D01*
X135617931Y-116845771D01*
X135514186Y-116972186D01*
X135412729Y-117055448D01*
X135376991Y-117084778D01*
X135220466Y-117168443D01*
X135050627Y-117219963D01*
X134984442Y-117226482D01*
X134918260Y-117233000D01*
X134829740Y-117233000D01*
X134763558Y-117226482D01*
X134697373Y-117219963D01*
X134527534Y-117168443D01*
X134371009Y-117084778D01*
X134335271Y-117055448D01*
X134233814Y-116972186D01*
X134130069Y-116845771D01*
X134121222Y-116834991D01*
X134037557Y-116678466D01*
X133986037Y-116508627D01*
X133968641Y-116332000D01*
X133986037Y-116155373D01*
X134037557Y-115985534D01*
X134121222Y-115829009D01*
X134150552Y-115793271D01*
X134233814Y-115691814D01*
X134340232Y-115604480D01*
X134371009Y-115579222D01*
X134527534Y-115495557D01*
X134697373Y-115444037D01*
X134763558Y-115437518D01*
X134829740Y-115431000D01*
X134918260Y-115431000D01*
X134984442Y-115437518D01*
X134984442Y-115437518D01*
G37*
G36*
X114373665Y-115076622D02*
G01*
X114447222Y-115083867D01*
X114588786Y-115126810D01*
X114588788Y-115126811D01*
X114654019Y-115161678D01*
X114719252Y-115196546D01*
X114749040Y-115220992D01*
X114833607Y-115290393D01*
X114903008Y-115374960D01*
X114927454Y-115404748D01*
X114997190Y-115535214D01*
X115040133Y-115676778D01*
X115054633Y-115824000D01*
X115040133Y-115971222D01*
X114997190Y-116112786D01*
X114927454Y-116243252D01*
X114917555Y-116255314D01*
X114833607Y-116357607D01*
X114749040Y-116427008D01*
X114719252Y-116451454D01*
X114588786Y-116521190D01*
X114447222Y-116564133D01*
X114373665Y-116571378D01*
X114336888Y-116575000D01*
X114263112Y-116575000D01*
X114226335Y-116571378D01*
X114152778Y-116564133D01*
X114011214Y-116521190D01*
X113880748Y-116451454D01*
X113850960Y-116427008D01*
X113766393Y-116357607D01*
X113682445Y-116255314D01*
X113672546Y-116243252D01*
X113602810Y-116112786D01*
X113559867Y-115971222D01*
X113545367Y-115824000D01*
X113559867Y-115676778D01*
X113602810Y-115535214D01*
X113672546Y-115404748D01*
X113696992Y-115374960D01*
X113766393Y-115290393D01*
X113850960Y-115220992D01*
X113880748Y-115196546D01*
X113945981Y-115161678D01*
X114011212Y-115126811D01*
X114011214Y-115126810D01*
X114152778Y-115083867D01*
X114226335Y-115076622D01*
X114263112Y-115073000D01*
X114336888Y-115073000D01*
X114373665Y-115076622D01*
X114373665Y-115076622D01*
G37*
G36*
X117260823Y-114223313D02*
G01*
X117421242Y-114271976D01*
X117553906Y-114342886D01*
X117569078Y-114350996D01*
X117698659Y-114457341D01*
X117805004Y-114586922D01*
X117805005Y-114586924D01*
X117884024Y-114734758D01*
X117932687Y-114895177D01*
X117949117Y-115062000D01*
X117932687Y-115228823D01*
X117884024Y-115389242D01*
X117843477Y-115465100D01*
X117805004Y-115537078D01*
X117698659Y-115666659D01*
X117569078Y-115773004D01*
X117569076Y-115773005D01*
X117421242Y-115852024D01*
X117260823Y-115900687D01*
X117135804Y-115913000D01*
X117052196Y-115913000D01*
X116927177Y-115900687D01*
X116766758Y-115852024D01*
X116618924Y-115773005D01*
X116618922Y-115773004D01*
X116489341Y-115666659D01*
X116382996Y-115537078D01*
X116344523Y-115465100D01*
X116303976Y-115389242D01*
X116255313Y-115228823D01*
X116238883Y-115062000D01*
X116255313Y-114895177D01*
X116303976Y-114734758D01*
X116382995Y-114586924D01*
X116382996Y-114586922D01*
X116489341Y-114457341D01*
X116618922Y-114350996D01*
X116634094Y-114342886D01*
X116766758Y-114271976D01*
X116927177Y-114223313D01*
X117052196Y-114211000D01*
X117135804Y-114211000D01*
X117260823Y-114223313D01*
X117260823Y-114223313D01*
G37*
G36*
X127502228Y-114243703D02*
G01*
X127657100Y-114307853D01*
X127796481Y-114400985D01*
X127915015Y-114519519D01*
X128008147Y-114658900D01*
X128072297Y-114813772D01*
X128105000Y-114978184D01*
X128105000Y-115145816D01*
X128072297Y-115310228D01*
X128008147Y-115465100D01*
X127915015Y-115604481D01*
X127796481Y-115723015D01*
X127657100Y-115816147D01*
X127502228Y-115880297D01*
X127337816Y-115913000D01*
X127170184Y-115913000D01*
X127005772Y-115880297D01*
X126850900Y-115816147D01*
X126711519Y-115723015D01*
X126592985Y-115604481D01*
X126499853Y-115465100D01*
X126435703Y-115310228D01*
X126403000Y-115145816D01*
X126403000Y-114978184D01*
X126435703Y-114813772D01*
X126499853Y-114658900D01*
X126592985Y-114519519D01*
X126711519Y-114400985D01*
X126850900Y-114307853D01*
X127005772Y-114243703D01*
X127170184Y-114211000D01*
X127337816Y-114211000D01*
X127502228Y-114243703D01*
X127502228Y-114243703D01*
G37*
G36*
X132444442Y-112897518D02*
G01*
X132510627Y-112904037D01*
X132680466Y-112955557D01*
X132836991Y-113039222D01*
X132872729Y-113068552D01*
X132974186Y-113151814D01*
X133054369Y-113249519D01*
X133086778Y-113289009D01*
X133170443Y-113445534D01*
X133221963Y-113615373D01*
X133239359Y-113792000D01*
X133221963Y-113968627D01*
X133170443Y-114138466D01*
X133086778Y-114294991D01*
X133076223Y-114307852D01*
X132974186Y-114432186D01*
X132872729Y-114515448D01*
X132836991Y-114544778D01*
X132680466Y-114628443D01*
X132510627Y-114679963D01*
X132444443Y-114686481D01*
X132378260Y-114693000D01*
X132289740Y-114693000D01*
X132223557Y-114686481D01*
X132157373Y-114679963D01*
X131987534Y-114628443D01*
X131831009Y-114544778D01*
X131795271Y-114515448D01*
X131693814Y-114432186D01*
X131591777Y-114307852D01*
X131581222Y-114294991D01*
X131497557Y-114138466D01*
X131446037Y-113968627D01*
X131428641Y-113792000D01*
X131446037Y-113615373D01*
X131497557Y-113445534D01*
X131581222Y-113289009D01*
X131613631Y-113249519D01*
X131693814Y-113151814D01*
X131795271Y-113068552D01*
X131831009Y-113039222D01*
X131987534Y-112955557D01*
X132157373Y-112904037D01*
X132223558Y-112897518D01*
X132289740Y-112891000D01*
X132378260Y-112891000D01*
X132444442Y-112897518D01*
X132444442Y-112897518D01*
G37*
G36*
X134984442Y-112897518D02*
G01*
X135050627Y-112904037D01*
X135220466Y-112955557D01*
X135376991Y-113039222D01*
X135412729Y-113068552D01*
X135514186Y-113151814D01*
X135594369Y-113249519D01*
X135626778Y-113289009D01*
X135710443Y-113445534D01*
X135761963Y-113615373D01*
X135779359Y-113792000D01*
X135761963Y-113968627D01*
X135710443Y-114138466D01*
X135626778Y-114294991D01*
X135616223Y-114307852D01*
X135514186Y-114432186D01*
X135412729Y-114515448D01*
X135376991Y-114544778D01*
X135220466Y-114628443D01*
X135050627Y-114679963D01*
X134984443Y-114686481D01*
X134918260Y-114693000D01*
X134829740Y-114693000D01*
X134763557Y-114686481D01*
X134697373Y-114679963D01*
X134527534Y-114628443D01*
X134371009Y-114544778D01*
X134335271Y-114515448D01*
X134233814Y-114432186D01*
X134131777Y-114307852D01*
X134121222Y-114294991D01*
X134037557Y-114138466D01*
X133986037Y-113968627D01*
X133968641Y-113792000D01*
X133986037Y-113615373D01*
X134037557Y-113445534D01*
X134121222Y-113289009D01*
X134153631Y-113249519D01*
X134233814Y-113151814D01*
X134335271Y-113068552D01*
X134371009Y-113039222D01*
X134527534Y-112955557D01*
X134697373Y-112904037D01*
X134763558Y-112897518D01*
X134829740Y-112891000D01*
X134918260Y-112891000D01*
X134984442Y-112897518D01*
X134984442Y-112897518D01*
G37*
G36*
X150026823Y-112953313D02*
G01*
X150187242Y-113001976D01*
X150254361Y-113037852D01*
X150335078Y-113080996D01*
X150464659Y-113187341D01*
X150571004Y-113316922D01*
X150571005Y-113316924D01*
X150650024Y-113464758D01*
X150698687Y-113625177D01*
X150715117Y-113792000D01*
X150698687Y-113958823D01*
X150650024Y-114119242D01*
X150609477Y-114195100D01*
X150571004Y-114267078D01*
X150464659Y-114396659D01*
X150335078Y-114503004D01*
X150335076Y-114503005D01*
X150187242Y-114582024D01*
X150026823Y-114630687D01*
X149901804Y-114643000D01*
X149818196Y-114643000D01*
X149693177Y-114630687D01*
X149532758Y-114582024D01*
X149384924Y-114503005D01*
X149384922Y-114503004D01*
X149255341Y-114396659D01*
X149148996Y-114267078D01*
X149110523Y-114195100D01*
X149069976Y-114119242D01*
X149021313Y-113958823D01*
X149004883Y-113792000D01*
X149021313Y-113625177D01*
X149069976Y-113464758D01*
X149148995Y-113316924D01*
X149148996Y-113316922D01*
X149255341Y-113187341D01*
X149384922Y-113080996D01*
X149465639Y-113037852D01*
X149532758Y-113001976D01*
X149693177Y-112953313D01*
X149818196Y-112941000D01*
X149901804Y-112941000D01*
X150026823Y-112953313D01*
X150026823Y-112953313D01*
G37*
G36*
X139948228Y-112973703D02*
G01*
X140103100Y-113037853D01*
X140242481Y-113130985D01*
X140361015Y-113249519D01*
X140454147Y-113388900D01*
X140518297Y-113543772D01*
X140551000Y-113708184D01*
X140551000Y-113875816D01*
X140518297Y-114040228D01*
X140454147Y-114195100D01*
X140361015Y-114334481D01*
X140242481Y-114453015D01*
X140103100Y-114546147D01*
X139948228Y-114610297D01*
X139783816Y-114643000D01*
X139616184Y-114643000D01*
X139451772Y-114610297D01*
X139296900Y-114546147D01*
X139157519Y-114453015D01*
X139038985Y-114334481D01*
X138945853Y-114195100D01*
X138881703Y-114040228D01*
X138849000Y-113875816D01*
X138849000Y-113708184D01*
X138881703Y-113543772D01*
X138945853Y-113388900D01*
X139038985Y-113249519D01*
X139157519Y-113130985D01*
X139296900Y-113037853D01*
X139451772Y-112973703D01*
X139616184Y-112941000D01*
X139783816Y-112941000D01*
X139948228Y-112973703D01*
X139948228Y-112973703D01*
G37*
G36*
X164019000Y-113473000D02*
G01*
X162117000Y-113473000D01*
X162117000Y-111571000D01*
X164019000Y-111571000D01*
X164019000Y-113473000D01*
X164019000Y-113473000D01*
G37*
G36*
X160805395Y-111607546D02*
G01*
X160978466Y-111679234D01*
X161050069Y-111727078D01*
X161134227Y-111783310D01*
X161266690Y-111915773D01*
X161298249Y-111963005D01*
X161370766Y-112071534D01*
X161442454Y-112244605D01*
X161479000Y-112428333D01*
X161479000Y-112615667D01*
X161442454Y-112799395D01*
X161370766Y-112972466D01*
X161351048Y-113001976D01*
X161266690Y-113128227D01*
X161134227Y-113260690D01*
X161091844Y-113289009D01*
X160978466Y-113364766D01*
X160805395Y-113436454D01*
X160621667Y-113473000D01*
X160434333Y-113473000D01*
X160250605Y-113436454D01*
X160077534Y-113364766D01*
X159964156Y-113289009D01*
X159921773Y-113260690D01*
X159789310Y-113128227D01*
X159704952Y-113001976D01*
X159685234Y-112972466D01*
X159613546Y-112799395D01*
X159577000Y-112615667D01*
X159577000Y-112428333D01*
X159613546Y-112244605D01*
X159685234Y-112071534D01*
X159757751Y-111963005D01*
X159789310Y-111915773D01*
X159921773Y-111783310D01*
X160005931Y-111727078D01*
X160077534Y-111679234D01*
X160250605Y-111607546D01*
X160434333Y-111571000D01*
X160621667Y-111571000D01*
X160805395Y-111607546D01*
X160805395Y-111607546D01*
G37*
G36*
X153947395Y-111607546D02*
G01*
X154120466Y-111679234D01*
X154192069Y-111727078D01*
X154276227Y-111783310D01*
X154408690Y-111915773D01*
X154440249Y-111963005D01*
X154512766Y-112071534D01*
X154584454Y-112244605D01*
X154621000Y-112428333D01*
X154621000Y-112615667D01*
X154584454Y-112799395D01*
X154512766Y-112972466D01*
X154493048Y-113001976D01*
X154408690Y-113128227D01*
X154276227Y-113260690D01*
X154233844Y-113289009D01*
X154120466Y-113364766D01*
X153947395Y-113436454D01*
X153763667Y-113473000D01*
X153576333Y-113473000D01*
X153392605Y-113436454D01*
X153219534Y-113364766D01*
X153106156Y-113289009D01*
X153063773Y-113260690D01*
X152931310Y-113128227D01*
X152846952Y-113001976D01*
X152827234Y-112972466D01*
X152755546Y-112799395D01*
X152719000Y-112615667D01*
X152719000Y-112428333D01*
X152755546Y-112244605D01*
X152827234Y-112071534D01*
X152899751Y-111963005D01*
X152931310Y-111915773D01*
X153063773Y-111783310D01*
X153147931Y-111727078D01*
X153219534Y-111679234D01*
X153392605Y-111607546D01*
X153576333Y-111571000D01*
X153763667Y-111571000D01*
X153947395Y-111607546D01*
X153947395Y-111607546D01*
G37*
G36*
X157161000Y-113473000D02*
G01*
X155259000Y-113473000D01*
X155259000Y-111571000D01*
X157161000Y-111571000D01*
X157161000Y-113473000D01*
X157161000Y-113473000D01*
G37*
G36*
X167663395Y-111607546D02*
G01*
X167836466Y-111679234D01*
X167908069Y-111727078D01*
X167992227Y-111783310D01*
X168124690Y-111915773D01*
X168156249Y-111963005D01*
X168228766Y-112071534D01*
X168300454Y-112244605D01*
X168337000Y-112428333D01*
X168337000Y-112615667D01*
X168300454Y-112799395D01*
X168228766Y-112972466D01*
X168209048Y-113001976D01*
X168124690Y-113128227D01*
X167992227Y-113260690D01*
X167949844Y-113289009D01*
X167836466Y-113364766D01*
X167663395Y-113436454D01*
X167479667Y-113473000D01*
X167292333Y-113473000D01*
X167108605Y-113436454D01*
X166935534Y-113364766D01*
X166822156Y-113289009D01*
X166779773Y-113260690D01*
X166647310Y-113128227D01*
X166562952Y-113001976D01*
X166543234Y-112972466D01*
X166471546Y-112799395D01*
X166435000Y-112615667D01*
X166435000Y-112428333D01*
X166471546Y-112244605D01*
X166543234Y-112071534D01*
X166615751Y-111963005D01*
X166647310Y-111915773D01*
X166779773Y-111783310D01*
X166863931Y-111727078D01*
X166935534Y-111679234D01*
X167108605Y-111607546D01*
X167292333Y-111571000D01*
X167479667Y-111571000D01*
X167663395Y-111607546D01*
X167663395Y-111607546D01*
G37*
G36*
X170877000Y-113473000D02*
G01*
X168975000Y-113473000D01*
X168975000Y-111571000D01*
X170877000Y-111571000D01*
X170877000Y-113473000D01*
X170877000Y-113473000D01*
G37*
G36*
X127502228Y-110687703D02*
G01*
X127657100Y-110751853D01*
X127796481Y-110844985D01*
X127915015Y-110963519D01*
X128008147Y-111102900D01*
X128072297Y-111257772D01*
X128105000Y-111422184D01*
X128105000Y-111589816D01*
X128072297Y-111754228D01*
X128008147Y-111909100D01*
X127915015Y-112048481D01*
X127796481Y-112167015D01*
X127657100Y-112260147D01*
X127502228Y-112324297D01*
X127337816Y-112357000D01*
X127170184Y-112357000D01*
X127005772Y-112324297D01*
X126850900Y-112260147D01*
X126711519Y-112167015D01*
X126592985Y-112048481D01*
X126499853Y-111909100D01*
X126435703Y-111754228D01*
X126403000Y-111589816D01*
X126403000Y-111422184D01*
X126435703Y-111257772D01*
X126499853Y-111102900D01*
X126592985Y-110963519D01*
X126711519Y-110844985D01*
X126850900Y-110751853D01*
X127005772Y-110687703D01*
X127170184Y-110655000D01*
X127337816Y-110655000D01*
X127502228Y-110687703D01*
X127502228Y-110687703D01*
G37*
G36*
X117260823Y-110667313D02*
G01*
X117421242Y-110715976D01*
X117553906Y-110786886D01*
X117569078Y-110794996D01*
X117698659Y-110901341D01*
X117805004Y-111030922D01*
X117805005Y-111030924D01*
X117884024Y-111178758D01*
X117932687Y-111339177D01*
X117949117Y-111506000D01*
X117932687Y-111672823D01*
X117884024Y-111833242D01*
X117843477Y-111909100D01*
X117805004Y-111981078D01*
X117698659Y-112110659D01*
X117569078Y-112217004D01*
X117569076Y-112217005D01*
X117421242Y-112296024D01*
X117260823Y-112344687D01*
X117135804Y-112357000D01*
X117052196Y-112357000D01*
X116927177Y-112344687D01*
X116766758Y-112296024D01*
X116618924Y-112217005D01*
X116618922Y-112217004D01*
X116489341Y-112110659D01*
X116382996Y-111981078D01*
X116344523Y-111909100D01*
X116303976Y-111833242D01*
X116255313Y-111672823D01*
X116238883Y-111506000D01*
X116255313Y-111339177D01*
X116303976Y-111178758D01*
X116382995Y-111030924D01*
X116382996Y-111030922D01*
X116489341Y-110901341D01*
X116618922Y-110794996D01*
X116634094Y-110786886D01*
X116766758Y-110715976D01*
X116927177Y-110667313D01*
X117052196Y-110655000D01*
X117135804Y-110655000D01*
X117260823Y-110667313D01*
X117260823Y-110667313D01*
G37*
G36*
X132444443Y-110357519D02*
G01*
X132510627Y-110364037D01*
X132680466Y-110415557D01*
X132836991Y-110499222D01*
X132868329Y-110524941D01*
X132974186Y-110611814D01*
X133036467Y-110687705D01*
X133086778Y-110749009D01*
X133170443Y-110905534D01*
X133221963Y-111075373D01*
X133239359Y-111252000D01*
X133221963Y-111428627D01*
X133170443Y-111598466D01*
X133086778Y-111754991D01*
X133063538Y-111783309D01*
X132974186Y-111892186D01*
X132872729Y-111975448D01*
X132836991Y-112004778D01*
X132680466Y-112088443D01*
X132510627Y-112139963D01*
X132444443Y-112146481D01*
X132378260Y-112153000D01*
X132289740Y-112153000D01*
X132223557Y-112146481D01*
X132157373Y-112139963D01*
X131987534Y-112088443D01*
X131831009Y-112004778D01*
X131795271Y-111975448D01*
X131693814Y-111892186D01*
X131604462Y-111783309D01*
X131581222Y-111754991D01*
X131497557Y-111598466D01*
X131446037Y-111428627D01*
X131428641Y-111252000D01*
X131446037Y-111075373D01*
X131497557Y-110905534D01*
X131581222Y-110749009D01*
X131631533Y-110687705D01*
X131693814Y-110611814D01*
X131799671Y-110524941D01*
X131831009Y-110499222D01*
X131987534Y-110415557D01*
X132157373Y-110364037D01*
X132223557Y-110357519D01*
X132289740Y-110351000D01*
X132378260Y-110351000D01*
X132444443Y-110357519D01*
X132444443Y-110357519D01*
G37*
G36*
X134984443Y-110357519D02*
G01*
X135050627Y-110364037D01*
X135220466Y-110415557D01*
X135376991Y-110499222D01*
X135408329Y-110524941D01*
X135514186Y-110611814D01*
X135576467Y-110687705D01*
X135626778Y-110749009D01*
X135710443Y-110905534D01*
X135761963Y-111075373D01*
X135779359Y-111252000D01*
X135761963Y-111428627D01*
X135710443Y-111598466D01*
X135626778Y-111754991D01*
X135603538Y-111783309D01*
X135514186Y-111892186D01*
X135412729Y-111975448D01*
X135376991Y-112004778D01*
X135220466Y-112088443D01*
X135050627Y-112139963D01*
X134984443Y-112146481D01*
X134918260Y-112153000D01*
X134829740Y-112153000D01*
X134763557Y-112146481D01*
X134697373Y-112139963D01*
X134527534Y-112088443D01*
X134371009Y-112004778D01*
X134335271Y-111975448D01*
X134233814Y-111892186D01*
X134144462Y-111783309D01*
X134121222Y-111754991D01*
X134037557Y-111598466D01*
X133986037Y-111428627D01*
X133968641Y-111252000D01*
X133986037Y-111075373D01*
X134037557Y-110905534D01*
X134121222Y-110749009D01*
X134171533Y-110687705D01*
X134233814Y-110611814D01*
X134339671Y-110524941D01*
X134371009Y-110499222D01*
X134527534Y-110415557D01*
X134697373Y-110364037D01*
X134763557Y-110357519D01*
X134829740Y-110351000D01*
X134918260Y-110351000D01*
X134984443Y-110357519D01*
X134984443Y-110357519D01*
G37*
G36*
X150026823Y-110413313D02*
G01*
X150187242Y-110461976D01*
X150254361Y-110497852D01*
X150335078Y-110540996D01*
X150464659Y-110647341D01*
X150571004Y-110776922D01*
X150571005Y-110776924D01*
X150650024Y-110924758D01*
X150698687Y-111085177D01*
X150715117Y-111252000D01*
X150698687Y-111418823D01*
X150650024Y-111579242D01*
X150579114Y-111711906D01*
X150571004Y-111727078D01*
X150464659Y-111856659D01*
X150335078Y-111963004D01*
X150335076Y-111963005D01*
X150187242Y-112042024D01*
X150026823Y-112090687D01*
X149901804Y-112103000D01*
X149818196Y-112103000D01*
X149693177Y-112090687D01*
X149532758Y-112042024D01*
X149384924Y-111963005D01*
X149384922Y-111963004D01*
X149255341Y-111856659D01*
X149148996Y-111727078D01*
X149140886Y-111711906D01*
X149069976Y-111579242D01*
X149021313Y-111418823D01*
X149004883Y-111252000D01*
X149021313Y-111085177D01*
X149069976Y-110924758D01*
X149148995Y-110776924D01*
X149148996Y-110776922D01*
X149255341Y-110647341D01*
X149384922Y-110540996D01*
X149465639Y-110497852D01*
X149532758Y-110461976D01*
X149693177Y-110413313D01*
X149818196Y-110401000D01*
X149901804Y-110401000D01*
X150026823Y-110413313D01*
X150026823Y-110413313D01*
G37*
G36*
X139948228Y-110433703D02*
G01*
X140103100Y-110497853D01*
X140242481Y-110590985D01*
X140361015Y-110709519D01*
X140454147Y-110848900D01*
X140518297Y-111003772D01*
X140551000Y-111168184D01*
X140551000Y-111335816D01*
X140518297Y-111500228D01*
X140454147Y-111655100D01*
X140361015Y-111794481D01*
X140242481Y-111913015D01*
X140103100Y-112006147D01*
X139948228Y-112070297D01*
X139783816Y-112103000D01*
X139616184Y-112103000D01*
X139451772Y-112070297D01*
X139296900Y-112006147D01*
X139157519Y-111913015D01*
X139038985Y-111794481D01*
X138945853Y-111655100D01*
X138881703Y-111500228D01*
X138849000Y-111335816D01*
X138849000Y-111168184D01*
X138881703Y-111003772D01*
X138945853Y-110848900D01*
X139038985Y-110709519D01*
X139157519Y-110590985D01*
X139296900Y-110497853D01*
X139451772Y-110433703D01*
X139616184Y-110401000D01*
X139783816Y-110401000D01*
X139948228Y-110433703D01*
X139948228Y-110433703D01*
G37*
G36*
X114519059Y-110021860D02*
G01*
X114655732Y-110078472D01*
X114778735Y-110160660D01*
X114883340Y-110265265D01*
X114883341Y-110265267D01*
X114965529Y-110388270D01*
X115022140Y-110524941D01*
X115051000Y-110670032D01*
X115051000Y-110817968D01*
X115022140Y-110963059D01*
X115005277Y-111003771D01*
X114965528Y-111099732D01*
X114883340Y-111222735D01*
X114778735Y-111327340D01*
X114655732Y-111409528D01*
X114655731Y-111409529D01*
X114655730Y-111409529D01*
X114519059Y-111466140D01*
X114373968Y-111495000D01*
X114226032Y-111495000D01*
X114080941Y-111466140D01*
X113944270Y-111409529D01*
X113944269Y-111409529D01*
X113944268Y-111409528D01*
X113821265Y-111327340D01*
X113716660Y-111222735D01*
X113634472Y-111099732D01*
X113594724Y-111003771D01*
X113577860Y-110963059D01*
X113549000Y-110817968D01*
X113549000Y-110670032D01*
X113577860Y-110524941D01*
X113634471Y-110388270D01*
X113716659Y-110265267D01*
X113716660Y-110265265D01*
X113821265Y-110160660D01*
X113944268Y-110078472D01*
X114080941Y-110021860D01*
X114226032Y-109993000D01*
X114373968Y-109993000D01*
X114519059Y-110021860D01*
X114519059Y-110021860D01*
G37*
G36*
X132444443Y-107817519D02*
G01*
X132510627Y-107824037D01*
X132680466Y-107875557D01*
X132836991Y-107959222D01*
X132872729Y-107988552D01*
X132974186Y-108071814D01*
X133057448Y-108173271D01*
X133086778Y-108209009D01*
X133170443Y-108365534D01*
X133221963Y-108535373D01*
X133239359Y-108712000D01*
X133221963Y-108888627D01*
X133170443Y-109058466D01*
X133086778Y-109214991D01*
X133057448Y-109250729D01*
X132974186Y-109352186D01*
X132872729Y-109435448D01*
X132836991Y-109464778D01*
X132680466Y-109548443D01*
X132510627Y-109599963D01*
X132444442Y-109606482D01*
X132378260Y-109613000D01*
X132289740Y-109613000D01*
X132223558Y-109606482D01*
X132157373Y-109599963D01*
X131987534Y-109548443D01*
X131831009Y-109464778D01*
X131795271Y-109435448D01*
X131693814Y-109352186D01*
X131610552Y-109250729D01*
X131581222Y-109214991D01*
X131497557Y-109058466D01*
X131446037Y-108888627D01*
X131428641Y-108712000D01*
X131446037Y-108535373D01*
X131497557Y-108365534D01*
X131581222Y-108209009D01*
X131610552Y-108173271D01*
X131693814Y-108071814D01*
X131795271Y-107988552D01*
X131831009Y-107959222D01*
X131987534Y-107875557D01*
X132157373Y-107824037D01*
X132223557Y-107817519D01*
X132289740Y-107811000D01*
X132378260Y-107811000D01*
X132444443Y-107817519D01*
X132444443Y-107817519D01*
G37*
G36*
X134984443Y-107817519D02*
G01*
X135050627Y-107824037D01*
X135220466Y-107875557D01*
X135376991Y-107959222D01*
X135412729Y-107988552D01*
X135514186Y-108071814D01*
X135597448Y-108173271D01*
X135626778Y-108209009D01*
X135710443Y-108365534D01*
X135761963Y-108535373D01*
X135779359Y-108712000D01*
X135761963Y-108888627D01*
X135710443Y-109058466D01*
X135626778Y-109214991D01*
X135597448Y-109250729D01*
X135514186Y-109352186D01*
X135412729Y-109435448D01*
X135376991Y-109464778D01*
X135220466Y-109548443D01*
X135050627Y-109599963D01*
X134984442Y-109606482D01*
X134918260Y-109613000D01*
X134829740Y-109613000D01*
X134763558Y-109606482D01*
X134697373Y-109599963D01*
X134527534Y-109548443D01*
X134371009Y-109464778D01*
X134335271Y-109435448D01*
X134233814Y-109352186D01*
X134150552Y-109250729D01*
X134121222Y-109214991D01*
X134037557Y-109058466D01*
X133986037Y-108888627D01*
X133968641Y-108712000D01*
X133986037Y-108535373D01*
X134037557Y-108365534D01*
X134121222Y-108209009D01*
X134150552Y-108173271D01*
X134233814Y-108071814D01*
X134335271Y-107988552D01*
X134371009Y-107959222D01*
X134527534Y-107875557D01*
X134697373Y-107824037D01*
X134763557Y-107817519D01*
X134829740Y-107811000D01*
X134918260Y-107811000D01*
X134984443Y-107817519D01*
X134984443Y-107817519D01*
G37*
G36*
X122502228Y-107131703D02*
G01*
X122657100Y-107195853D01*
X122796481Y-107288985D01*
X122915015Y-107407519D01*
X123008147Y-107546900D01*
X123072297Y-107701772D01*
X123105000Y-107866184D01*
X123105000Y-108033816D01*
X123072297Y-108198228D01*
X123008147Y-108353100D01*
X122915015Y-108492481D01*
X122796481Y-108611015D01*
X122657100Y-108704147D01*
X122502228Y-108768297D01*
X122337816Y-108801000D01*
X122170184Y-108801000D01*
X122005772Y-108768297D01*
X121850900Y-108704147D01*
X121711519Y-108611015D01*
X121592985Y-108492481D01*
X121499853Y-108353100D01*
X121435703Y-108198228D01*
X121403000Y-108033816D01*
X121403000Y-107866184D01*
X121435703Y-107701772D01*
X121499853Y-107546900D01*
X121592985Y-107407519D01*
X121711519Y-107288985D01*
X121850900Y-107195853D01*
X122005772Y-107131703D01*
X122170184Y-107099000D01*
X122337816Y-107099000D01*
X122502228Y-107131703D01*
X122502228Y-107131703D01*
G37*
G36*
X127502228Y-107131703D02*
G01*
X127657100Y-107195853D01*
X127796481Y-107288985D01*
X127915015Y-107407519D01*
X128008147Y-107546900D01*
X128072297Y-107701772D01*
X128105000Y-107866184D01*
X128105000Y-108033816D01*
X128072297Y-108198228D01*
X128008147Y-108353100D01*
X127915015Y-108492481D01*
X127796481Y-108611015D01*
X127657100Y-108704147D01*
X127502228Y-108768297D01*
X127337816Y-108801000D01*
X127170184Y-108801000D01*
X127005772Y-108768297D01*
X126850900Y-108704147D01*
X126711519Y-108611015D01*
X126592985Y-108492481D01*
X126499853Y-108353100D01*
X126435703Y-108198228D01*
X126403000Y-108033816D01*
X126403000Y-107866184D01*
X126435703Y-107701772D01*
X126499853Y-107546900D01*
X126592985Y-107407519D01*
X126711519Y-107288985D01*
X126850900Y-107195853D01*
X127005772Y-107131703D01*
X127170184Y-107099000D01*
X127337816Y-107099000D01*
X127502228Y-107131703D01*
X127502228Y-107131703D01*
G37*
G36*
X155453294Y-104918233D02*
G01*
X155625695Y-104970531D01*
X155784583Y-105055458D01*
X155923849Y-105169751D01*
X156038142Y-105309017D01*
X156123069Y-105467905D01*
X156175367Y-105640306D01*
X156188600Y-105774669D01*
X156188600Y-107185331D01*
X156175367Y-107319694D01*
X156123069Y-107492095D01*
X156038142Y-107650983D01*
X155923849Y-107790249D01*
X155784583Y-107904542D01*
X155625694Y-107989469D01*
X155453293Y-108041767D01*
X155274000Y-108059425D01*
X155094706Y-108041767D01*
X154922305Y-107989469D01*
X154763417Y-107904542D01*
X154624151Y-107790249D01*
X154509858Y-107650983D01*
X154424931Y-107492094D01*
X154372633Y-107319693D01*
X154359400Y-107185330D01*
X154359401Y-105774669D01*
X154372634Y-105640306D01*
X154424932Y-105467905D01*
X154509859Y-105309017D01*
X154624152Y-105169751D01*
X154763418Y-105055458D01*
X154922306Y-104970531D01*
X155094707Y-104918233D01*
X155274000Y-104900575D01*
X155453294Y-104918233D01*
X155453294Y-104918233D01*
G37*
G36*
X160453294Y-104918233D02*
G01*
X160625695Y-104970531D01*
X160784583Y-105055458D01*
X160923849Y-105169751D01*
X161038142Y-105309017D01*
X161123069Y-105467905D01*
X161175367Y-105640306D01*
X161188600Y-105774669D01*
X161188600Y-107185331D01*
X161175367Y-107319694D01*
X161123069Y-107492095D01*
X161038142Y-107650983D01*
X160923849Y-107790249D01*
X160784583Y-107904542D01*
X160625694Y-107989469D01*
X160453293Y-108041767D01*
X160274000Y-108059425D01*
X160094706Y-108041767D01*
X159922305Y-107989469D01*
X159763417Y-107904542D01*
X159624151Y-107790249D01*
X159509858Y-107650983D01*
X159424931Y-107492094D01*
X159372633Y-107319693D01*
X159359400Y-107185330D01*
X159359401Y-105774669D01*
X159372634Y-105640306D01*
X159424932Y-105467905D01*
X159509859Y-105309017D01*
X159624152Y-105169751D01*
X159763418Y-105055458D01*
X159922306Y-104970531D01*
X160094707Y-104918233D01*
X160274000Y-104900575D01*
X160453294Y-104918233D01*
X160453294Y-104918233D01*
G37*
G36*
X132444443Y-105277519D02*
G01*
X132510627Y-105284037D01*
X132680466Y-105335557D01*
X132836991Y-105419222D01*
X132859901Y-105438024D01*
X132974186Y-105531814D01*
X133057448Y-105633271D01*
X133086778Y-105669009D01*
X133170443Y-105825534D01*
X133221963Y-105995373D01*
X133239359Y-106172000D01*
X133221963Y-106348627D01*
X133170443Y-106518466D01*
X133086778Y-106674991D01*
X133057448Y-106710729D01*
X132974186Y-106812186D01*
X132872729Y-106895448D01*
X132836991Y-106924778D01*
X132680466Y-107008443D01*
X132510627Y-107059963D01*
X132444443Y-107066481D01*
X132378260Y-107073000D01*
X132289740Y-107073000D01*
X132223557Y-107066481D01*
X132157373Y-107059963D01*
X131987534Y-107008443D01*
X131831009Y-106924778D01*
X131795271Y-106895448D01*
X131693814Y-106812186D01*
X131610552Y-106710729D01*
X131581222Y-106674991D01*
X131497557Y-106518466D01*
X131446037Y-106348627D01*
X131428641Y-106172000D01*
X131446037Y-105995373D01*
X131497557Y-105825534D01*
X131581222Y-105669009D01*
X131610552Y-105633271D01*
X131693814Y-105531814D01*
X131808099Y-105438024D01*
X131831009Y-105419222D01*
X131987534Y-105335557D01*
X132157373Y-105284037D01*
X132223557Y-105277519D01*
X132289740Y-105271000D01*
X132378260Y-105271000D01*
X132444443Y-105277519D01*
X132444443Y-105277519D01*
G37*
G36*
X134984443Y-105277519D02*
G01*
X135050627Y-105284037D01*
X135220466Y-105335557D01*
X135376991Y-105419222D01*
X135399901Y-105438024D01*
X135514186Y-105531814D01*
X135597448Y-105633271D01*
X135626778Y-105669009D01*
X135710443Y-105825534D01*
X135761963Y-105995373D01*
X135779359Y-106172000D01*
X135761963Y-106348627D01*
X135710443Y-106518466D01*
X135626778Y-106674991D01*
X135597448Y-106710729D01*
X135514186Y-106812186D01*
X135412729Y-106895448D01*
X135376991Y-106924778D01*
X135220466Y-107008443D01*
X135050627Y-107059963D01*
X134984443Y-107066481D01*
X134918260Y-107073000D01*
X134829740Y-107073000D01*
X134763557Y-107066481D01*
X134697373Y-107059963D01*
X134527534Y-107008443D01*
X134371009Y-106924778D01*
X134335271Y-106895448D01*
X134233814Y-106812186D01*
X134150552Y-106710729D01*
X134121222Y-106674991D01*
X134037557Y-106518466D01*
X133986037Y-106348627D01*
X133968641Y-106172000D01*
X133986037Y-105995373D01*
X134037557Y-105825534D01*
X134121222Y-105669009D01*
X134150552Y-105633271D01*
X134233814Y-105531814D01*
X134348099Y-105438024D01*
X134371009Y-105419222D01*
X134527534Y-105335557D01*
X134697373Y-105284037D01*
X134763557Y-105277519D01*
X134829740Y-105271000D01*
X134918260Y-105271000D01*
X134984443Y-105277519D01*
X134984443Y-105277519D01*
G37*
G36*
X118276823Y-103809313D02*
G01*
X118437242Y-103857976D01*
X118504361Y-103893852D01*
X118585078Y-103936996D01*
X118714659Y-104043341D01*
X118821004Y-104172922D01*
X118821005Y-104172924D01*
X118900024Y-104320758D01*
X118948687Y-104481177D01*
X118965117Y-104648000D01*
X118948687Y-104814823D01*
X118900024Y-104975242D01*
X118857147Y-105055459D01*
X118821004Y-105123078D01*
X118714659Y-105252659D01*
X118585078Y-105359004D01*
X118585076Y-105359005D01*
X118437242Y-105438024D01*
X118276823Y-105486687D01*
X118151804Y-105499000D01*
X118068196Y-105499000D01*
X117943177Y-105486687D01*
X117782758Y-105438024D01*
X117634924Y-105359005D01*
X117634922Y-105359004D01*
X117505341Y-105252659D01*
X117398996Y-105123078D01*
X117362853Y-105055459D01*
X117319976Y-104975242D01*
X117271313Y-104814823D01*
X117254883Y-104648000D01*
X117271313Y-104481177D01*
X117319976Y-104320758D01*
X117398995Y-104172924D01*
X117398996Y-104172922D01*
X117505341Y-104043341D01*
X117634922Y-103936996D01*
X117715639Y-103893852D01*
X117782758Y-103857976D01*
X117943177Y-103809313D01*
X118068196Y-103797000D01*
X118151804Y-103797000D01*
X118276823Y-103809313D01*
X118276823Y-103809313D01*
G37*
G36*
X128518228Y-103829703D02*
G01*
X128673100Y-103893853D01*
X128812481Y-103986985D01*
X128931015Y-104105519D01*
X129024147Y-104244900D01*
X129088297Y-104399772D01*
X129121000Y-104564184D01*
X129121000Y-104731816D01*
X129088297Y-104896228D01*
X129024147Y-105051100D01*
X128931015Y-105190481D01*
X128812481Y-105309015D01*
X128673100Y-105402147D01*
X128518228Y-105466297D01*
X128353816Y-105499000D01*
X128186184Y-105499000D01*
X128021772Y-105466297D01*
X127866900Y-105402147D01*
X127727519Y-105309015D01*
X127608985Y-105190481D01*
X127515853Y-105051100D01*
X127451703Y-104896228D01*
X127419000Y-104731816D01*
X127419000Y-104564184D01*
X127451703Y-104399772D01*
X127515853Y-104244900D01*
X127608985Y-104105519D01*
X127727519Y-103986985D01*
X127866900Y-103893853D01*
X128021772Y-103829703D01*
X128186184Y-103797000D01*
X128353816Y-103797000D01*
X128518228Y-103829703D01*
X128518228Y-103829703D01*
G37*
G36*
X169564600Y-103496989D02*
G01*
X169597652Y-103507015D01*
X169628103Y-103523292D01*
X169654799Y-103545201D01*
X169676708Y-103571897D01*
X169692985Y-103602348D01*
X169703011Y-103635400D01*
X169707000Y-103675903D01*
X169707000Y-105112097D01*
X169703011Y-105152600D01*
X169692985Y-105185652D01*
X169676708Y-105216103D01*
X169654799Y-105242799D01*
X169628103Y-105264708D01*
X169597652Y-105280985D01*
X169564600Y-105291011D01*
X169524097Y-105295000D01*
X167787903Y-105295000D01*
X167747400Y-105291011D01*
X167714348Y-105280985D01*
X167683897Y-105264708D01*
X167657201Y-105242799D01*
X167635292Y-105216103D01*
X167619015Y-105185652D01*
X167608989Y-105152600D01*
X167605000Y-105112097D01*
X167605000Y-103675903D01*
X167608989Y-103635400D01*
X167619015Y-103602348D01*
X167635292Y-103571897D01*
X167657201Y-103545201D01*
X167683897Y-103523292D01*
X167714348Y-103507015D01*
X167747400Y-103496989D01*
X167787903Y-103493000D01*
X169524097Y-103493000D01*
X169564600Y-103496989D01*
X169564600Y-103496989D01*
G37*
G36*
X114011059Y-103437860D02*
G01*
X114144179Y-103493000D01*
X114147732Y-103494472D01*
X114270735Y-103576660D01*
X114375340Y-103681265D01*
X114457528Y-103804268D01*
X114457529Y-103804270D01*
X114514140Y-103940941D01*
X114543000Y-104086032D01*
X114543000Y-104233968D01*
X114540825Y-104244903D01*
X114514140Y-104379059D01*
X114457528Y-104515732D01*
X114375340Y-104638735D01*
X114270735Y-104743340D01*
X114147732Y-104825528D01*
X114147731Y-104825529D01*
X114147730Y-104825529D01*
X114011059Y-104882140D01*
X113865968Y-104911000D01*
X113718032Y-104911000D01*
X113572941Y-104882140D01*
X113436270Y-104825529D01*
X113436269Y-104825529D01*
X113436268Y-104825528D01*
X113313265Y-104743340D01*
X113208660Y-104638735D01*
X113126472Y-104515732D01*
X113069860Y-104379059D01*
X113043175Y-104244903D01*
X113041000Y-104233968D01*
X113041000Y-104086032D01*
X113069860Y-103940941D01*
X113126471Y-103804270D01*
X113126472Y-103804268D01*
X113208660Y-103681265D01*
X113313265Y-103576660D01*
X113436268Y-103494472D01*
X113439822Y-103493000D01*
X113572941Y-103437860D01*
X113718032Y-103409000D01*
X113865968Y-103409000D01*
X114011059Y-103437860D01*
X114011059Y-103437860D01*
G37*
G36*
X132444443Y-102737519D02*
G01*
X132510627Y-102744037D01*
X132680466Y-102795557D01*
X132836991Y-102879222D01*
X132872729Y-102908552D01*
X132974186Y-102991814D01*
X133057448Y-103093271D01*
X133086778Y-103129009D01*
X133170443Y-103285534D01*
X133221963Y-103455373D01*
X133239359Y-103632000D01*
X133221963Y-103808627D01*
X133181826Y-103940941D01*
X133170442Y-103978468D01*
X133135766Y-104043341D01*
X133086778Y-104134991D01*
X133057448Y-104170729D01*
X132974186Y-104272186D01*
X132872729Y-104355448D01*
X132836991Y-104384778D01*
X132680466Y-104468443D01*
X132510627Y-104519963D01*
X132444443Y-104526481D01*
X132378260Y-104533000D01*
X132289740Y-104533000D01*
X132223557Y-104526481D01*
X132157373Y-104519963D01*
X131987534Y-104468443D01*
X131831009Y-104384778D01*
X131795271Y-104355448D01*
X131693814Y-104272186D01*
X131610552Y-104170729D01*
X131581222Y-104134991D01*
X131532234Y-104043341D01*
X131497558Y-103978468D01*
X131486174Y-103940941D01*
X131446037Y-103808627D01*
X131428641Y-103632000D01*
X131446037Y-103455373D01*
X131497557Y-103285534D01*
X131581222Y-103129009D01*
X131610552Y-103093271D01*
X131693814Y-102991814D01*
X131795271Y-102908552D01*
X131831009Y-102879222D01*
X131987534Y-102795557D01*
X132157373Y-102744037D01*
X132223557Y-102737519D01*
X132289740Y-102731000D01*
X132378260Y-102731000D01*
X132444443Y-102737519D01*
X132444443Y-102737519D01*
G37*
G36*
X134984443Y-102737519D02*
G01*
X135050627Y-102744037D01*
X135220466Y-102795557D01*
X135376991Y-102879222D01*
X135412729Y-102908552D01*
X135514186Y-102991814D01*
X135597448Y-103093271D01*
X135626778Y-103129009D01*
X135710443Y-103285534D01*
X135761963Y-103455373D01*
X135779359Y-103632000D01*
X135761963Y-103808627D01*
X135721826Y-103940941D01*
X135710442Y-103978468D01*
X135675766Y-104043341D01*
X135626778Y-104134991D01*
X135597448Y-104170729D01*
X135514186Y-104272186D01*
X135412729Y-104355448D01*
X135376991Y-104384778D01*
X135220466Y-104468443D01*
X135050627Y-104519963D01*
X134984443Y-104526481D01*
X134918260Y-104533000D01*
X134829740Y-104533000D01*
X134763557Y-104526481D01*
X134697373Y-104519963D01*
X134527534Y-104468443D01*
X134371009Y-104384778D01*
X134335271Y-104355448D01*
X134233814Y-104272186D01*
X134150552Y-104170729D01*
X134121222Y-104134991D01*
X134072234Y-104043341D01*
X134037558Y-103978468D01*
X134026174Y-103940941D01*
X133986037Y-103808627D01*
X133968641Y-103632000D01*
X133986037Y-103455373D01*
X134037557Y-103285534D01*
X134121222Y-103129009D01*
X134150552Y-103093271D01*
X134233814Y-102991814D01*
X134335271Y-102908552D01*
X134371009Y-102879222D01*
X134527534Y-102795557D01*
X134697373Y-102744037D01*
X134763557Y-102737519D01*
X134829740Y-102731000D01*
X134918260Y-102731000D01*
X134984443Y-102737519D01*
X134984443Y-102737519D01*
G37*
G36*
X147210228Y-102051703D02*
G01*
X147365100Y-102115853D01*
X147504481Y-102208985D01*
X147623015Y-102327519D01*
X147716147Y-102466900D01*
X147780297Y-102621772D01*
X147813000Y-102786184D01*
X147813000Y-102953816D01*
X147780297Y-103118228D01*
X147716147Y-103273100D01*
X147623015Y-103412481D01*
X147504481Y-103531015D01*
X147365100Y-103624147D01*
X147210228Y-103688297D01*
X147045816Y-103721000D01*
X146878184Y-103721000D01*
X146713772Y-103688297D01*
X146558900Y-103624147D01*
X146419519Y-103531015D01*
X146300985Y-103412481D01*
X146207853Y-103273100D01*
X146143703Y-103118228D01*
X146111000Y-102953816D01*
X146111000Y-102786184D01*
X146143703Y-102621772D01*
X146207853Y-102466900D01*
X146300985Y-102327519D01*
X146419519Y-102208985D01*
X146558900Y-102115853D01*
X146713772Y-102051703D01*
X146878184Y-102019000D01*
X147045816Y-102019000D01*
X147210228Y-102051703D01*
X147210228Y-102051703D01*
G37*
G36*
X141313000Y-103721000D02*
G01*
X139611000Y-103721000D01*
X139611000Y-102019000D01*
X141313000Y-102019000D01*
X141313000Y-103721000D01*
X141313000Y-103721000D01*
G37*
G36*
X168916443Y-100999519D02*
G01*
X168982627Y-101006037D01*
X169152466Y-101057557D01*
X169152468Y-101057558D01*
X169216904Y-101092000D01*
X169308991Y-101141222D01*
X169344729Y-101170552D01*
X169446186Y-101253814D01*
X169517103Y-101340228D01*
X169558778Y-101391009D01*
X169642443Y-101547534D01*
X169693963Y-101717373D01*
X169711359Y-101894000D01*
X169693963Y-102070627D01*
X169642443Y-102240466D01*
X169558778Y-102396991D01*
X169529448Y-102432729D01*
X169446186Y-102534186D01*
X169344729Y-102617448D01*
X169308991Y-102646778D01*
X169152466Y-102730443D01*
X168982627Y-102781963D01*
X168916443Y-102788481D01*
X168850260Y-102795000D01*
X168461740Y-102795000D01*
X168395557Y-102788481D01*
X168329373Y-102781963D01*
X168159534Y-102730443D01*
X168003009Y-102646778D01*
X167967271Y-102617448D01*
X167865814Y-102534186D01*
X167782552Y-102432729D01*
X167753222Y-102396991D01*
X167669557Y-102240466D01*
X167618037Y-102070627D01*
X167600641Y-101894000D01*
X167618037Y-101717373D01*
X167669557Y-101547534D01*
X167753222Y-101391009D01*
X167794897Y-101340228D01*
X167865814Y-101253814D01*
X167967271Y-101170552D01*
X168003009Y-101141222D01*
X168095096Y-101092000D01*
X168159532Y-101057558D01*
X168159534Y-101057557D01*
X168329373Y-101006037D01*
X168395557Y-100999519D01*
X168461740Y-100993000D01*
X168850260Y-100993000D01*
X168916443Y-100999519D01*
X168916443Y-100999519D01*
G37*
G36*
X114392481Y-100853183D02*
G01*
X114427419Y-100863782D01*
X114459619Y-100880993D01*
X114487844Y-100904156D01*
X114511007Y-100932381D01*
X114528218Y-100964581D01*
X114538817Y-100999519D01*
X114543000Y-101041996D01*
X114543000Y-102158004D01*
X114538817Y-102200481D01*
X114528218Y-102235419D01*
X114511007Y-102267619D01*
X114487844Y-102295844D01*
X114459619Y-102319007D01*
X114427419Y-102336218D01*
X114392481Y-102346817D01*
X114350004Y-102351000D01*
X113233996Y-102351000D01*
X113191519Y-102346817D01*
X113156581Y-102336218D01*
X113124381Y-102319007D01*
X113096156Y-102295844D01*
X113072993Y-102267619D01*
X113055782Y-102235419D01*
X113045183Y-102200481D01*
X113041000Y-102158004D01*
X113041000Y-101041996D01*
X113045183Y-100999519D01*
X113055782Y-100964581D01*
X113072993Y-100932381D01*
X113096156Y-100904156D01*
X113124381Y-100880993D01*
X113156581Y-100863782D01*
X113191519Y-100853183D01*
X113233996Y-100849000D01*
X114350004Y-100849000D01*
X114392481Y-100853183D01*
X114392481Y-100853183D01*
G37*
G36*
X132444442Y-100197518D02*
G01*
X132510627Y-100204037D01*
X132680466Y-100255557D01*
X132836991Y-100339222D01*
X132872729Y-100368552D01*
X132974186Y-100451814D01*
X133054369Y-100549519D01*
X133086778Y-100589009D01*
X133170443Y-100745534D01*
X133221963Y-100915373D01*
X133239359Y-101092000D01*
X133221963Y-101268627D01*
X133170443Y-101438466D01*
X133086778Y-101594991D01*
X133057448Y-101630729D01*
X132974186Y-101732186D01*
X132872729Y-101815448D01*
X132836991Y-101844778D01*
X132680466Y-101928443D01*
X132510627Y-101979963D01*
X132444442Y-101986482D01*
X132378260Y-101993000D01*
X132289740Y-101993000D01*
X132223558Y-101986482D01*
X132157373Y-101979963D01*
X131987534Y-101928443D01*
X131831009Y-101844778D01*
X131795271Y-101815448D01*
X131693814Y-101732186D01*
X131610552Y-101630729D01*
X131581222Y-101594991D01*
X131497557Y-101438466D01*
X131446037Y-101268627D01*
X131428641Y-101092000D01*
X131446037Y-100915373D01*
X131497557Y-100745534D01*
X131581222Y-100589009D01*
X131613631Y-100549519D01*
X131693814Y-100451814D01*
X131795271Y-100368552D01*
X131831009Y-100339222D01*
X131987534Y-100255557D01*
X132157373Y-100204037D01*
X132223558Y-100197518D01*
X132289740Y-100191000D01*
X132378260Y-100191000D01*
X132444442Y-100197518D01*
X132444442Y-100197518D01*
G37*
G36*
X134984442Y-100197518D02*
G01*
X135050627Y-100204037D01*
X135220466Y-100255557D01*
X135376991Y-100339222D01*
X135412729Y-100368552D01*
X135514186Y-100451814D01*
X135594369Y-100549519D01*
X135626778Y-100589009D01*
X135710443Y-100745534D01*
X135761963Y-100915373D01*
X135779359Y-101092000D01*
X135761963Y-101268627D01*
X135710443Y-101438466D01*
X135626778Y-101594991D01*
X135597448Y-101630729D01*
X135514186Y-101732186D01*
X135412729Y-101815448D01*
X135376991Y-101844778D01*
X135220466Y-101928443D01*
X135050627Y-101979963D01*
X134984442Y-101986482D01*
X134918260Y-101993000D01*
X134829740Y-101993000D01*
X134763558Y-101986482D01*
X134697373Y-101979963D01*
X134527534Y-101928443D01*
X134371009Y-101844778D01*
X134335271Y-101815448D01*
X134233814Y-101732186D01*
X134150552Y-101630729D01*
X134121222Y-101594991D01*
X134037557Y-101438466D01*
X133986037Y-101268627D01*
X133968641Y-101092000D01*
X133986037Y-100915373D01*
X134037557Y-100745534D01*
X134121222Y-100589009D01*
X134153631Y-100549519D01*
X134233814Y-100451814D01*
X134335271Y-100368552D01*
X134371009Y-100339222D01*
X134527534Y-100255557D01*
X134697373Y-100204037D01*
X134763558Y-100197518D01*
X134829740Y-100191000D01*
X134918260Y-100191000D01*
X134984442Y-100197518D01*
X134984442Y-100197518D01*
G37*
G36*
X128518228Y-100273703D02*
G01*
X128673100Y-100337853D01*
X128812481Y-100430985D01*
X128931015Y-100549519D01*
X129024147Y-100688900D01*
X129088297Y-100843772D01*
X129121000Y-101008184D01*
X129121000Y-101175816D01*
X129088297Y-101340228D01*
X129024147Y-101495100D01*
X128931015Y-101634481D01*
X128812481Y-101753015D01*
X128673100Y-101846147D01*
X128518228Y-101910297D01*
X128353816Y-101943000D01*
X128186184Y-101943000D01*
X128021772Y-101910297D01*
X127866900Y-101846147D01*
X127727519Y-101753015D01*
X127608985Y-101634481D01*
X127515853Y-101495100D01*
X127451703Y-101340228D01*
X127419000Y-101175816D01*
X127419000Y-101008184D01*
X127451703Y-100843772D01*
X127515853Y-100688900D01*
X127608985Y-100549519D01*
X127727519Y-100430985D01*
X127866900Y-100337853D01*
X128021772Y-100273703D01*
X128186184Y-100241000D01*
X128353816Y-100241000D01*
X128518228Y-100273703D01*
X128518228Y-100273703D01*
G37*
G36*
X118276823Y-100253313D02*
G01*
X118437242Y-100301976D01*
X118504361Y-100337852D01*
X118585078Y-100380996D01*
X118714659Y-100487341D01*
X118821004Y-100616922D01*
X118821005Y-100616924D01*
X118900024Y-100764758D01*
X118948687Y-100925177D01*
X118965117Y-101092000D01*
X118948687Y-101258823D01*
X118900024Y-101419242D01*
X118859477Y-101495100D01*
X118821004Y-101567078D01*
X118714659Y-101696659D01*
X118585078Y-101803004D01*
X118585076Y-101803005D01*
X118437242Y-101882024D01*
X118276823Y-101930687D01*
X118151804Y-101943000D01*
X118068196Y-101943000D01*
X117943177Y-101930687D01*
X117782758Y-101882024D01*
X117634924Y-101803005D01*
X117634922Y-101803004D01*
X117505341Y-101696659D01*
X117398996Y-101567078D01*
X117360523Y-101495100D01*
X117319976Y-101419242D01*
X117271313Y-101258823D01*
X117254883Y-101092000D01*
X117271313Y-100925177D01*
X117319976Y-100764758D01*
X117398995Y-100616924D01*
X117398996Y-100616922D01*
X117505341Y-100487341D01*
X117634922Y-100380996D01*
X117715639Y-100337852D01*
X117782758Y-100301976D01*
X117943177Y-100253313D01*
X118068196Y-100241000D01*
X118151804Y-100241000D01*
X118276823Y-100253313D01*
X118276823Y-100253313D01*
G37*
G36*
X134984443Y-97657519D02*
G01*
X135050627Y-97664037D01*
X135220466Y-97715557D01*
X135376991Y-97799222D01*
X135412729Y-97828552D01*
X135514186Y-97911814D01*
X135597448Y-98013271D01*
X135626778Y-98049009D01*
X135710443Y-98205534D01*
X135761963Y-98375373D01*
X135779359Y-98552000D01*
X135761963Y-98728627D01*
X135710443Y-98898466D01*
X135626778Y-99054991D01*
X135597448Y-99090729D01*
X135514186Y-99192186D01*
X135412729Y-99275448D01*
X135376991Y-99304778D01*
X135220466Y-99388443D01*
X135050627Y-99439963D01*
X134984443Y-99446481D01*
X134918260Y-99453000D01*
X134829740Y-99453000D01*
X134763557Y-99446481D01*
X134697373Y-99439963D01*
X134527534Y-99388443D01*
X134371009Y-99304778D01*
X134335271Y-99275448D01*
X134233814Y-99192186D01*
X134150552Y-99090729D01*
X134121222Y-99054991D01*
X134037557Y-98898466D01*
X133986037Y-98728627D01*
X133968641Y-98552000D01*
X133986037Y-98375373D01*
X134037557Y-98205534D01*
X134121222Y-98049009D01*
X134150552Y-98013271D01*
X134233814Y-97911814D01*
X134335271Y-97828552D01*
X134371009Y-97799222D01*
X134527534Y-97715557D01*
X134697373Y-97664037D01*
X134763557Y-97657519D01*
X134829740Y-97651000D01*
X134918260Y-97651000D01*
X134984443Y-97657519D01*
X134984443Y-97657519D01*
G37*
G36*
X132444443Y-97657519D02*
G01*
X132510627Y-97664037D01*
X132680466Y-97715557D01*
X132836991Y-97799222D01*
X132872729Y-97828552D01*
X132974186Y-97911814D01*
X133057448Y-98013271D01*
X133086778Y-98049009D01*
X133170443Y-98205534D01*
X133221963Y-98375373D01*
X133239359Y-98552000D01*
X133221963Y-98728627D01*
X133170443Y-98898466D01*
X133086778Y-99054991D01*
X133057448Y-99090729D01*
X132974186Y-99192186D01*
X132872729Y-99275448D01*
X132836991Y-99304778D01*
X132680466Y-99388443D01*
X132510627Y-99439963D01*
X132444443Y-99446481D01*
X132378260Y-99453000D01*
X132289740Y-99453000D01*
X132223557Y-99446481D01*
X132157373Y-99439963D01*
X131987534Y-99388443D01*
X131831009Y-99304778D01*
X131795271Y-99275448D01*
X131693814Y-99192186D01*
X131610552Y-99090729D01*
X131581222Y-99054991D01*
X131497557Y-98898466D01*
X131446037Y-98728627D01*
X131428641Y-98552000D01*
X131446037Y-98375373D01*
X131497557Y-98205534D01*
X131581222Y-98049009D01*
X131610552Y-98013271D01*
X131693814Y-97911814D01*
X131795271Y-97828552D01*
X131831009Y-97799222D01*
X131987534Y-97715557D01*
X132157373Y-97664037D01*
X132223557Y-97657519D01*
X132289740Y-97651000D01*
X132378260Y-97651000D01*
X132444443Y-97657519D01*
X132444443Y-97657519D01*
G37*
G36*
X132444442Y-95117518D02*
G01*
X132510627Y-95124037D01*
X132680466Y-95175557D01*
X132836991Y-95259222D01*
X132872729Y-95288552D01*
X132974186Y-95371814D01*
X133057448Y-95473271D01*
X133086778Y-95509009D01*
X133170443Y-95665534D01*
X133221963Y-95835373D01*
X133239359Y-96012000D01*
X133221963Y-96188627D01*
X133170443Y-96358466D01*
X133086778Y-96514991D01*
X133065247Y-96541226D01*
X132974186Y-96652186D01*
X132872729Y-96735448D01*
X132836991Y-96764778D01*
X132680466Y-96848443D01*
X132510627Y-96899963D01*
X132444443Y-96906481D01*
X132378260Y-96913000D01*
X132289740Y-96913000D01*
X132223557Y-96906481D01*
X132157373Y-96899963D01*
X131987534Y-96848443D01*
X131831009Y-96764778D01*
X131795271Y-96735448D01*
X131693814Y-96652186D01*
X131602753Y-96541226D01*
X131581222Y-96514991D01*
X131497557Y-96358466D01*
X131446037Y-96188627D01*
X131428641Y-96012000D01*
X131446037Y-95835373D01*
X131497557Y-95665534D01*
X131581222Y-95509009D01*
X131610552Y-95473271D01*
X131693814Y-95371814D01*
X131795271Y-95288552D01*
X131831009Y-95259222D01*
X131987534Y-95175557D01*
X132157373Y-95124037D01*
X132223558Y-95117518D01*
X132289740Y-95111000D01*
X132378260Y-95111000D01*
X132444442Y-95117518D01*
X132444442Y-95117518D01*
G37*
G36*
X134984442Y-95117518D02*
G01*
X135050627Y-95124037D01*
X135220466Y-95175557D01*
X135376991Y-95259222D01*
X135412729Y-95288552D01*
X135514186Y-95371814D01*
X135597448Y-95473271D01*
X135626778Y-95509009D01*
X135710443Y-95665534D01*
X135761963Y-95835373D01*
X135779359Y-96012000D01*
X135761963Y-96188627D01*
X135710443Y-96358466D01*
X135626778Y-96514991D01*
X135605247Y-96541226D01*
X135514186Y-96652186D01*
X135412729Y-96735448D01*
X135376991Y-96764778D01*
X135220466Y-96848443D01*
X135050627Y-96899963D01*
X134984443Y-96906481D01*
X134918260Y-96913000D01*
X134829740Y-96913000D01*
X134763557Y-96906481D01*
X134697373Y-96899963D01*
X134527534Y-96848443D01*
X134371009Y-96764778D01*
X134335271Y-96735448D01*
X134233814Y-96652186D01*
X134142753Y-96541226D01*
X134121222Y-96514991D01*
X134037557Y-96358466D01*
X133986037Y-96188627D01*
X133968641Y-96012000D01*
X133986037Y-95835373D01*
X134037557Y-95665534D01*
X134121222Y-95509009D01*
X134150552Y-95473271D01*
X134233814Y-95371814D01*
X134335271Y-95288552D01*
X134371009Y-95259222D01*
X134527534Y-95175557D01*
X134697373Y-95124037D01*
X134763558Y-95117518D01*
X134829740Y-95111000D01*
X134918260Y-95111000D01*
X134984442Y-95117518D01*
X134984442Y-95117518D01*
G37*
G36*
X169564600Y-94860989D02*
G01*
X169597652Y-94871015D01*
X169628103Y-94887292D01*
X169654799Y-94909201D01*
X169676708Y-94935897D01*
X169692985Y-94966348D01*
X169703011Y-94999400D01*
X169707000Y-95039903D01*
X169707000Y-96476097D01*
X169703011Y-96516600D01*
X169692985Y-96549652D01*
X169676708Y-96580103D01*
X169654799Y-96606799D01*
X169628103Y-96628708D01*
X169597652Y-96644985D01*
X169564600Y-96655011D01*
X169524097Y-96659000D01*
X167787903Y-96659000D01*
X167747400Y-96655011D01*
X167714348Y-96644985D01*
X167683897Y-96628708D01*
X167657201Y-96606799D01*
X167635292Y-96580103D01*
X167619015Y-96549652D01*
X167608989Y-96516600D01*
X167605000Y-96476097D01*
X167605000Y-95039903D01*
X167608989Y-94999400D01*
X167619015Y-94966348D01*
X167635292Y-94935897D01*
X167657201Y-94909201D01*
X167683897Y-94887292D01*
X167714348Y-94871015D01*
X167747400Y-94860989D01*
X167787903Y-94857000D01*
X169524097Y-94857000D01*
X169564600Y-94860989D01*
X169564600Y-94860989D01*
G37*
G36*
X155453294Y-92418233D02*
G01*
X155625695Y-92470531D01*
X155784583Y-92555458D01*
X155923849Y-92669751D01*
X156038142Y-92809017D01*
X156123069Y-92967905D01*
X156175367Y-93140306D01*
X156188600Y-93274669D01*
X156188600Y-94685331D01*
X156175367Y-94819694D01*
X156123069Y-94992095D01*
X156038142Y-95150983D01*
X155923849Y-95290249D01*
X155784583Y-95404542D01*
X155625694Y-95489469D01*
X155453293Y-95541767D01*
X155274000Y-95559425D01*
X155094706Y-95541767D01*
X154922305Y-95489469D01*
X154763417Y-95404542D01*
X154624151Y-95290249D01*
X154509858Y-95150983D01*
X154424931Y-94992094D01*
X154372633Y-94819693D01*
X154359400Y-94685330D01*
X154359401Y-93274669D01*
X154372634Y-93140306D01*
X154424932Y-92967905D01*
X154509859Y-92809017D01*
X154624152Y-92669751D01*
X154763418Y-92555458D01*
X154922306Y-92470531D01*
X155094707Y-92418233D01*
X155274000Y-92400575D01*
X155453294Y-92418233D01*
X155453294Y-92418233D01*
G37*
G36*
X160453294Y-92418233D02*
G01*
X160625695Y-92470531D01*
X160784583Y-92555458D01*
X160923849Y-92669751D01*
X161038142Y-92809017D01*
X161123069Y-92967905D01*
X161175367Y-93140306D01*
X161188600Y-93274669D01*
X161188600Y-94685331D01*
X161175367Y-94819694D01*
X161123069Y-94992095D01*
X161038142Y-95150983D01*
X160923849Y-95290249D01*
X160784583Y-95404542D01*
X160625694Y-95489469D01*
X160453293Y-95541767D01*
X160274000Y-95559425D01*
X160094706Y-95541767D01*
X159922305Y-95489469D01*
X159763417Y-95404542D01*
X159624151Y-95290249D01*
X159509858Y-95150983D01*
X159424931Y-94992094D01*
X159372633Y-94819693D01*
X159359400Y-94685330D01*
X159359401Y-93274669D01*
X159372634Y-93140306D01*
X159424932Y-92967905D01*
X159509859Y-92809017D01*
X159624152Y-92669751D01*
X159763418Y-92555458D01*
X159922306Y-92470531D01*
X160094707Y-92418233D01*
X160274000Y-92400575D01*
X160453294Y-92418233D01*
X160453294Y-92418233D01*
G37*
G36*
X128663000Y-94881000D02*
G01*
X126861000Y-94881000D01*
X126861000Y-93079000D01*
X128663000Y-93079000D01*
X128663000Y-94881000D01*
X128663000Y-94881000D01*
G37*
G36*
X112632443Y-93085519D02*
G01*
X112698627Y-93092037D01*
X112868466Y-93143557D01*
X113024991Y-93227222D01*
X113060729Y-93256552D01*
X113162186Y-93339814D01*
X113239994Y-93434625D01*
X113274778Y-93477009D01*
X113358443Y-93633534D01*
X113409963Y-93803373D01*
X113427359Y-93980000D01*
X113409963Y-94156627D01*
X113358443Y-94326466D01*
X113274778Y-94482991D01*
X113245448Y-94518729D01*
X113162186Y-94620186D01*
X113082805Y-94685331D01*
X113024991Y-94732778D01*
X112868466Y-94816443D01*
X112698627Y-94867963D01*
X112632443Y-94874481D01*
X112566260Y-94881000D01*
X112477740Y-94881000D01*
X112411557Y-94874481D01*
X112345373Y-94867963D01*
X112175534Y-94816443D01*
X112019009Y-94732778D01*
X111961195Y-94685331D01*
X111881814Y-94620186D01*
X111798552Y-94518729D01*
X111769222Y-94482991D01*
X111685557Y-94326466D01*
X111634037Y-94156627D01*
X111616641Y-93980000D01*
X111634037Y-93803373D01*
X111685557Y-93633534D01*
X111769222Y-93477009D01*
X111804006Y-93434625D01*
X111881814Y-93339814D01*
X111983271Y-93256552D01*
X112019009Y-93227222D01*
X112175534Y-93143557D01*
X112345373Y-93092037D01*
X112411557Y-93085519D01*
X112477740Y-93079000D01*
X112566260Y-93079000D01*
X112632443Y-93085519D01*
X112632443Y-93085519D01*
G37*
G36*
X117712443Y-93085519D02*
G01*
X117778627Y-93092037D01*
X117948466Y-93143557D01*
X118104991Y-93227222D01*
X118140729Y-93256552D01*
X118242186Y-93339814D01*
X118319994Y-93434625D01*
X118354778Y-93477009D01*
X118438443Y-93633534D01*
X118489963Y-93803373D01*
X118507359Y-93980000D01*
X118489963Y-94156627D01*
X118438443Y-94326466D01*
X118354778Y-94482991D01*
X118325448Y-94518729D01*
X118242186Y-94620186D01*
X118162805Y-94685331D01*
X118104991Y-94732778D01*
X117948466Y-94816443D01*
X117778627Y-94867963D01*
X117712443Y-94874481D01*
X117646260Y-94881000D01*
X117557740Y-94881000D01*
X117491557Y-94874481D01*
X117425373Y-94867963D01*
X117255534Y-94816443D01*
X117099009Y-94732778D01*
X117041195Y-94685331D01*
X116961814Y-94620186D01*
X116878552Y-94518729D01*
X116849222Y-94482991D01*
X116765557Y-94326466D01*
X116714037Y-94156627D01*
X116696641Y-93980000D01*
X116714037Y-93803373D01*
X116765557Y-93633534D01*
X116849222Y-93477009D01*
X116884006Y-93434625D01*
X116961814Y-93339814D01*
X117063271Y-93256552D01*
X117099009Y-93227222D01*
X117255534Y-93143557D01*
X117425373Y-93092037D01*
X117491557Y-93085519D01*
X117557740Y-93079000D01*
X117646260Y-93079000D01*
X117712443Y-93085519D01*
X117712443Y-93085519D01*
G37*
G36*
X115172443Y-93085519D02*
G01*
X115238627Y-93092037D01*
X115408466Y-93143557D01*
X115564991Y-93227222D01*
X115600729Y-93256552D01*
X115702186Y-93339814D01*
X115779994Y-93434625D01*
X115814778Y-93477009D01*
X115898443Y-93633534D01*
X115949963Y-93803373D01*
X115967359Y-93980000D01*
X115949963Y-94156627D01*
X115898443Y-94326466D01*
X115814778Y-94482991D01*
X115785448Y-94518729D01*
X115702186Y-94620186D01*
X115622805Y-94685331D01*
X115564991Y-94732778D01*
X115408466Y-94816443D01*
X115238627Y-94867963D01*
X115172443Y-94874481D01*
X115106260Y-94881000D01*
X115017740Y-94881000D01*
X114951557Y-94874481D01*
X114885373Y-94867963D01*
X114715534Y-94816443D01*
X114559009Y-94732778D01*
X114501195Y-94685331D01*
X114421814Y-94620186D01*
X114338552Y-94518729D01*
X114309222Y-94482991D01*
X114225557Y-94326466D01*
X114174037Y-94156627D01*
X114156641Y-93980000D01*
X114174037Y-93803373D01*
X114225557Y-93633534D01*
X114309222Y-93477009D01*
X114344006Y-93434625D01*
X114421814Y-93339814D01*
X114523271Y-93256552D01*
X114559009Y-93227222D01*
X114715534Y-93143557D01*
X114885373Y-93092037D01*
X114951557Y-93085519D01*
X115017740Y-93079000D01*
X115106260Y-93079000D01*
X115172443Y-93085519D01*
X115172443Y-93085519D01*
G37*
G36*
X120252443Y-93085519D02*
G01*
X120318627Y-93092037D01*
X120488466Y-93143557D01*
X120644991Y-93227222D01*
X120680729Y-93256552D01*
X120782186Y-93339814D01*
X120859994Y-93434625D01*
X120894778Y-93477009D01*
X120978443Y-93633534D01*
X121029963Y-93803373D01*
X121047359Y-93980000D01*
X121029963Y-94156627D01*
X120978443Y-94326466D01*
X120894778Y-94482991D01*
X120865448Y-94518729D01*
X120782186Y-94620186D01*
X120702805Y-94685331D01*
X120644991Y-94732778D01*
X120488466Y-94816443D01*
X120318627Y-94867963D01*
X120252443Y-94874481D01*
X120186260Y-94881000D01*
X120097740Y-94881000D01*
X120031557Y-94874481D01*
X119965373Y-94867963D01*
X119795534Y-94816443D01*
X119639009Y-94732778D01*
X119581195Y-94685331D01*
X119501814Y-94620186D01*
X119418552Y-94518729D01*
X119389222Y-94482991D01*
X119305557Y-94326466D01*
X119254037Y-94156627D01*
X119236641Y-93980000D01*
X119254037Y-93803373D01*
X119305557Y-93633534D01*
X119389222Y-93477009D01*
X119424006Y-93434625D01*
X119501814Y-93339814D01*
X119603271Y-93256552D01*
X119639009Y-93227222D01*
X119795534Y-93143557D01*
X119965373Y-93092037D01*
X120031557Y-93085519D01*
X120097740Y-93079000D01*
X120186260Y-93079000D01*
X120252443Y-93085519D01*
X120252443Y-93085519D01*
G37*
G36*
X122792443Y-93085519D02*
G01*
X122858627Y-93092037D01*
X123028466Y-93143557D01*
X123184991Y-93227222D01*
X123220729Y-93256552D01*
X123322186Y-93339814D01*
X123399994Y-93434625D01*
X123434778Y-93477009D01*
X123518443Y-93633534D01*
X123569963Y-93803373D01*
X123587359Y-93980000D01*
X123569963Y-94156627D01*
X123518443Y-94326466D01*
X123434778Y-94482991D01*
X123405448Y-94518729D01*
X123322186Y-94620186D01*
X123242805Y-94685331D01*
X123184991Y-94732778D01*
X123028466Y-94816443D01*
X122858627Y-94867963D01*
X122792443Y-94874481D01*
X122726260Y-94881000D01*
X122637740Y-94881000D01*
X122571557Y-94874481D01*
X122505373Y-94867963D01*
X122335534Y-94816443D01*
X122179009Y-94732778D01*
X122121195Y-94685331D01*
X122041814Y-94620186D01*
X121958552Y-94518729D01*
X121929222Y-94482991D01*
X121845557Y-94326466D01*
X121794037Y-94156627D01*
X121776641Y-93980000D01*
X121794037Y-93803373D01*
X121845557Y-93633534D01*
X121929222Y-93477009D01*
X121964006Y-93434625D01*
X122041814Y-93339814D01*
X122143271Y-93256552D01*
X122179009Y-93227222D01*
X122335534Y-93143557D01*
X122505373Y-93092037D01*
X122571557Y-93085519D01*
X122637740Y-93079000D01*
X122726260Y-93079000D01*
X122792443Y-93085519D01*
X122792443Y-93085519D01*
G37*
G36*
X125332443Y-93085519D02*
G01*
X125398627Y-93092037D01*
X125568466Y-93143557D01*
X125724991Y-93227222D01*
X125760729Y-93256552D01*
X125862186Y-93339814D01*
X125939994Y-93434625D01*
X125974778Y-93477009D01*
X126058443Y-93633534D01*
X126109963Y-93803373D01*
X126127359Y-93980000D01*
X126109963Y-94156627D01*
X126058443Y-94326466D01*
X125974778Y-94482991D01*
X125945448Y-94518729D01*
X125862186Y-94620186D01*
X125782805Y-94685331D01*
X125724991Y-94732778D01*
X125568466Y-94816443D01*
X125398627Y-94867963D01*
X125332443Y-94874481D01*
X125266260Y-94881000D01*
X125177740Y-94881000D01*
X125111557Y-94874481D01*
X125045373Y-94867963D01*
X124875534Y-94816443D01*
X124719009Y-94732778D01*
X124661195Y-94685331D01*
X124581814Y-94620186D01*
X124498552Y-94518729D01*
X124469222Y-94482991D01*
X124385557Y-94326466D01*
X124334037Y-94156627D01*
X124316641Y-93980000D01*
X124334037Y-93803373D01*
X124385557Y-93633534D01*
X124469222Y-93477009D01*
X124504006Y-93434625D01*
X124581814Y-93339814D01*
X124683271Y-93256552D01*
X124719009Y-93227222D01*
X124875534Y-93143557D01*
X125045373Y-93092037D01*
X125111557Y-93085519D01*
X125177740Y-93079000D01*
X125266260Y-93079000D01*
X125332443Y-93085519D01*
X125332443Y-93085519D01*
G37*
G36*
X132444443Y-92577519D02*
G01*
X132510627Y-92584037D01*
X132680466Y-92635557D01*
X132836991Y-92719222D01*
X132872729Y-92748552D01*
X132974186Y-92831814D01*
X133057448Y-92933271D01*
X133086778Y-92969009D01*
X133170443Y-93125534D01*
X133221963Y-93295373D01*
X133239359Y-93472000D01*
X133221963Y-93648627D01*
X133170443Y-93818466D01*
X133086778Y-93974991D01*
X133082667Y-93980000D01*
X132974186Y-94112186D01*
X132872729Y-94195448D01*
X132836991Y-94224778D01*
X132680466Y-94308443D01*
X132510627Y-94359963D01*
X132444443Y-94366481D01*
X132378260Y-94373000D01*
X132289740Y-94373000D01*
X132223557Y-94366481D01*
X132157373Y-94359963D01*
X131987534Y-94308443D01*
X131831009Y-94224778D01*
X131795271Y-94195448D01*
X131693814Y-94112186D01*
X131585333Y-93980000D01*
X131581222Y-93974991D01*
X131497557Y-93818466D01*
X131446037Y-93648627D01*
X131428641Y-93472000D01*
X131446037Y-93295373D01*
X131497557Y-93125534D01*
X131581222Y-92969009D01*
X131610552Y-92933271D01*
X131693814Y-92831814D01*
X131795271Y-92748552D01*
X131831009Y-92719222D01*
X131987534Y-92635557D01*
X132157373Y-92584037D01*
X132223557Y-92577519D01*
X132289740Y-92571000D01*
X132378260Y-92571000D01*
X132444443Y-92577519D01*
X132444443Y-92577519D01*
G37*
G36*
X134984443Y-92577519D02*
G01*
X135050627Y-92584037D01*
X135220466Y-92635557D01*
X135376991Y-92719222D01*
X135412729Y-92748552D01*
X135514186Y-92831814D01*
X135597448Y-92933271D01*
X135626778Y-92969009D01*
X135710443Y-93125534D01*
X135761963Y-93295373D01*
X135779359Y-93472000D01*
X135761963Y-93648627D01*
X135710443Y-93818466D01*
X135626778Y-93974991D01*
X135622667Y-93980000D01*
X135514186Y-94112186D01*
X135412729Y-94195448D01*
X135376991Y-94224778D01*
X135220466Y-94308443D01*
X135050627Y-94359963D01*
X134984443Y-94366481D01*
X134918260Y-94373000D01*
X134829740Y-94373000D01*
X134763557Y-94366481D01*
X134697373Y-94359963D01*
X134527534Y-94308443D01*
X134371009Y-94224778D01*
X134335271Y-94195448D01*
X134233814Y-94112186D01*
X134125333Y-93980000D01*
X134121222Y-93974991D01*
X134037557Y-93818466D01*
X133986037Y-93648627D01*
X133968641Y-93472000D01*
X133986037Y-93295373D01*
X134037557Y-93125534D01*
X134121222Y-92969009D01*
X134150552Y-92933271D01*
X134233814Y-92831814D01*
X134335271Y-92748552D01*
X134371009Y-92719222D01*
X134527534Y-92635557D01*
X134697373Y-92584037D01*
X134763558Y-92577518D01*
X134829740Y-92571000D01*
X134918260Y-92571000D01*
X134984443Y-92577519D01*
X134984443Y-92577519D01*
G37*
G36*
X168916442Y-92363518D02*
G01*
X168982627Y-92370037D01*
X169152466Y-92421557D01*
X169308991Y-92505222D01*
X169344729Y-92534552D01*
X169446186Y-92617814D01*
X169529407Y-92719221D01*
X169558778Y-92755009D01*
X169642443Y-92911534D01*
X169693963Y-93081373D01*
X169711359Y-93258000D01*
X169693963Y-93434627D01*
X169642443Y-93604466D01*
X169558778Y-93760991D01*
X169529448Y-93796729D01*
X169446186Y-93898186D01*
X169352600Y-93974989D01*
X169308991Y-94010778D01*
X169152466Y-94094443D01*
X168982627Y-94145963D01*
X168916443Y-94152481D01*
X168850260Y-94159000D01*
X168461740Y-94159000D01*
X168395557Y-94152481D01*
X168329373Y-94145963D01*
X168159534Y-94094443D01*
X168003009Y-94010778D01*
X167959400Y-93974989D01*
X167865814Y-93898186D01*
X167782552Y-93796729D01*
X167753222Y-93760991D01*
X167669557Y-93604466D01*
X167618037Y-93434627D01*
X167600641Y-93258000D01*
X167618037Y-93081373D01*
X167669557Y-92911534D01*
X167753222Y-92755009D01*
X167782593Y-92719221D01*
X167865814Y-92617814D01*
X167967271Y-92534552D01*
X168003009Y-92505222D01*
X168159534Y-92421557D01*
X168329373Y-92370037D01*
X168395558Y-92363518D01*
X168461740Y-92357000D01*
X168850260Y-92357000D01*
X168916442Y-92363518D01*
X168916442Y-92363518D01*
G37*
G36*
X140826442Y-90037518D02*
G01*
X140892627Y-90044037D01*
X141062466Y-90095557D01*
X141218991Y-90179222D01*
X141254729Y-90208552D01*
X141356186Y-90291814D01*
X141439448Y-90393271D01*
X141468778Y-90429009D01*
X141552443Y-90585534D01*
X141603963Y-90755373D01*
X141621359Y-90932000D01*
X141603963Y-91108627D01*
X141552443Y-91278466D01*
X141468778Y-91434991D01*
X141439448Y-91470729D01*
X141356186Y-91572186D01*
X141254729Y-91655448D01*
X141218991Y-91684778D01*
X141062466Y-91768443D01*
X140892627Y-91819963D01*
X140826442Y-91826482D01*
X140760260Y-91833000D01*
X140671740Y-91833000D01*
X140605558Y-91826482D01*
X140539373Y-91819963D01*
X140369534Y-91768443D01*
X140213009Y-91684778D01*
X140177271Y-91655448D01*
X140075814Y-91572186D01*
X139992552Y-91470729D01*
X139963222Y-91434991D01*
X139879557Y-91278466D01*
X139828037Y-91108627D01*
X139810641Y-90932000D01*
X139828037Y-90755373D01*
X139879557Y-90585534D01*
X139963222Y-90429009D01*
X139992552Y-90393271D01*
X140075814Y-90291814D01*
X140177271Y-90208552D01*
X140213009Y-90179222D01*
X140369534Y-90095557D01*
X140539373Y-90044037D01*
X140605558Y-90037518D01*
X140671740Y-90031000D01*
X140760260Y-90031000D01*
X140826442Y-90037518D01*
X140826442Y-90037518D01*
G37*
G36*
X132444442Y-90037518D02*
G01*
X132510627Y-90044037D01*
X132680466Y-90095557D01*
X132836991Y-90179222D01*
X132872729Y-90208552D01*
X132974186Y-90291814D01*
X133057448Y-90393271D01*
X133086778Y-90429009D01*
X133170443Y-90585534D01*
X133221963Y-90755373D01*
X133239359Y-90932000D01*
X133221963Y-91108627D01*
X133170443Y-91278466D01*
X133086778Y-91434991D01*
X133057448Y-91470729D01*
X132974186Y-91572186D01*
X132872729Y-91655448D01*
X132836991Y-91684778D01*
X132680466Y-91768443D01*
X132510627Y-91819963D01*
X132444442Y-91826482D01*
X132378260Y-91833000D01*
X132289740Y-91833000D01*
X132223558Y-91826482D01*
X132157373Y-91819963D01*
X131987534Y-91768443D01*
X131831009Y-91684778D01*
X131795271Y-91655448D01*
X131693814Y-91572186D01*
X131610552Y-91470729D01*
X131581222Y-91434991D01*
X131497557Y-91278466D01*
X131446037Y-91108627D01*
X131428641Y-90932000D01*
X131446037Y-90755373D01*
X131497557Y-90585534D01*
X131581222Y-90429009D01*
X131610552Y-90393271D01*
X131693814Y-90291814D01*
X131795271Y-90208552D01*
X131831009Y-90179222D01*
X131987534Y-90095557D01*
X132157373Y-90044037D01*
X132223558Y-90037518D01*
X132289740Y-90031000D01*
X132378260Y-90031000D01*
X132444442Y-90037518D01*
X132444442Y-90037518D01*
G37*
G36*
X134984442Y-90037518D02*
G01*
X135050627Y-90044037D01*
X135220466Y-90095557D01*
X135376991Y-90179222D01*
X135412729Y-90208552D01*
X135514186Y-90291814D01*
X135597448Y-90393271D01*
X135626778Y-90429009D01*
X135710443Y-90585534D01*
X135761963Y-90755373D01*
X135779359Y-90932000D01*
X135761963Y-91108627D01*
X135710443Y-91278466D01*
X135626778Y-91434991D01*
X135597448Y-91470729D01*
X135514186Y-91572186D01*
X135412729Y-91655448D01*
X135376991Y-91684778D01*
X135220466Y-91768443D01*
X135050627Y-91819963D01*
X134984442Y-91826482D01*
X134918260Y-91833000D01*
X134829740Y-91833000D01*
X134763558Y-91826482D01*
X134697373Y-91819963D01*
X134527534Y-91768443D01*
X134371009Y-91684778D01*
X134335271Y-91655448D01*
X134233814Y-91572186D01*
X134150552Y-91470729D01*
X134121222Y-91434991D01*
X134037557Y-91278466D01*
X133986037Y-91108627D01*
X133968641Y-90932000D01*
X133986037Y-90755373D01*
X134037557Y-90585534D01*
X134121222Y-90429009D01*
X134150552Y-90393271D01*
X134233814Y-90291814D01*
X134335271Y-90208552D01*
X134371009Y-90179222D01*
X134527534Y-90095557D01*
X134697373Y-90044037D01*
X134763558Y-90037518D01*
X134829740Y-90031000D01*
X134918260Y-90031000D01*
X134984442Y-90037518D01*
X134984442Y-90037518D01*
G37*
G36*
X146697000Y-91833000D02*
G01*
X144895000Y-91833000D01*
X144895000Y-90031000D01*
X146697000Y-90031000D01*
X146697000Y-91833000D01*
X146697000Y-91833000D01*
G37*
G36*
X143366442Y-90037518D02*
G01*
X143432627Y-90044037D01*
X143602466Y-90095557D01*
X143758991Y-90179222D01*
X143794729Y-90208552D01*
X143896186Y-90291814D01*
X143979448Y-90393271D01*
X144008778Y-90429009D01*
X144092443Y-90585534D01*
X144143963Y-90755373D01*
X144161359Y-90932000D01*
X144143963Y-91108627D01*
X144092443Y-91278466D01*
X144008778Y-91434991D01*
X143979448Y-91470729D01*
X143896186Y-91572186D01*
X143794729Y-91655448D01*
X143758991Y-91684778D01*
X143602466Y-91768443D01*
X143432627Y-91819963D01*
X143366442Y-91826482D01*
X143300260Y-91833000D01*
X143211740Y-91833000D01*
X143145558Y-91826482D01*
X143079373Y-91819963D01*
X142909534Y-91768443D01*
X142753009Y-91684778D01*
X142717271Y-91655448D01*
X142615814Y-91572186D01*
X142532552Y-91470729D01*
X142503222Y-91434991D01*
X142419557Y-91278466D01*
X142368037Y-91108627D01*
X142350641Y-90932000D01*
X142368037Y-90755373D01*
X142419557Y-90585534D01*
X142503222Y-90429009D01*
X142532552Y-90393271D01*
X142615814Y-90291814D01*
X142717271Y-90208552D01*
X142753009Y-90179222D01*
X142909534Y-90095557D01*
X143079373Y-90044037D01*
X143145558Y-90037518D01*
X143211740Y-90031000D01*
X143300260Y-90031000D01*
X143366442Y-90037518D01*
X143366442Y-90037518D01*
G37*
G36*
X160453294Y-88408233D02*
G01*
X160625695Y-88460531D01*
X160784583Y-88545458D01*
X160923849Y-88659751D01*
X161038142Y-88799017D01*
X161123069Y-88957905D01*
X161175367Y-89130306D01*
X161188600Y-89264669D01*
X161188600Y-90675331D01*
X161175367Y-90809694D01*
X161123069Y-90982095D01*
X161038142Y-91140983D01*
X160923849Y-91280249D01*
X160784583Y-91394542D01*
X160625694Y-91479469D01*
X160453293Y-91531767D01*
X160274000Y-91549425D01*
X160094706Y-91531767D01*
X159922305Y-91479469D01*
X159763417Y-91394542D01*
X159624151Y-91280249D01*
X159509858Y-91140983D01*
X159424931Y-90982094D01*
X159372633Y-90809693D01*
X159359400Y-90675330D01*
X159359401Y-89264669D01*
X159372634Y-89130306D01*
X159424932Y-88957905D01*
X159509859Y-88799017D01*
X159624152Y-88659751D01*
X159763418Y-88545458D01*
X159922306Y-88460531D01*
X160094707Y-88408233D01*
X160274000Y-88390575D01*
X160453294Y-88408233D01*
X160453294Y-88408233D01*
G37*
G36*
X155453294Y-88408233D02*
G01*
X155625695Y-88460531D01*
X155784583Y-88545458D01*
X155923849Y-88659751D01*
X156038142Y-88799017D01*
X156123069Y-88957905D01*
X156175367Y-89130306D01*
X156188600Y-89264669D01*
X156188600Y-90675331D01*
X156175367Y-90809694D01*
X156123069Y-90982095D01*
X156038142Y-91140983D01*
X155923849Y-91280249D01*
X155784583Y-91394542D01*
X155625694Y-91479469D01*
X155453293Y-91531767D01*
X155274000Y-91549425D01*
X155094706Y-91531767D01*
X154922305Y-91479469D01*
X154763417Y-91394542D01*
X154624151Y-91280249D01*
X154509858Y-91140983D01*
X154424931Y-90982094D01*
X154372633Y-90809693D01*
X154359400Y-90675330D01*
X154359401Y-89264669D01*
X154372634Y-89130306D01*
X154424932Y-88957905D01*
X154509859Y-88799017D01*
X154624152Y-88659751D01*
X154763418Y-88545458D01*
X154922306Y-88460531D01*
X155094707Y-88408233D01*
X155274000Y-88390575D01*
X155453294Y-88408233D01*
X155453294Y-88408233D01*
G37*
G36*
X114997000Y-90121000D02*
G01*
X113095000Y-90121000D01*
X113095000Y-88949000D01*
X114997000Y-88949000D01*
X114997000Y-90121000D01*
X114997000Y-90121000D01*
G37*
G36*
X118784823Y-88061313D02*
G01*
X118945242Y-88109976D01*
X119012361Y-88145852D01*
X119093078Y-88188996D01*
X119222659Y-88295341D01*
X119329004Y-88424922D01*
X119329005Y-88424924D01*
X119408024Y-88572758D01*
X119456687Y-88733177D01*
X119473117Y-88900000D01*
X119456687Y-89066823D01*
X119408024Y-89227242D01*
X119367477Y-89303100D01*
X119329004Y-89375078D01*
X119222659Y-89504659D01*
X119093078Y-89611004D01*
X119093076Y-89611005D01*
X118945242Y-89690024D01*
X118784823Y-89738687D01*
X118659804Y-89751000D01*
X118576196Y-89751000D01*
X118451177Y-89738687D01*
X118290758Y-89690024D01*
X118142924Y-89611005D01*
X118142922Y-89611004D01*
X118013341Y-89504659D01*
X117906996Y-89375078D01*
X117868523Y-89303100D01*
X117827976Y-89227242D01*
X117779313Y-89066823D01*
X117762883Y-88900000D01*
X117779313Y-88733177D01*
X117827976Y-88572758D01*
X117906995Y-88424924D01*
X117906996Y-88424922D01*
X118013341Y-88295341D01*
X118142922Y-88188996D01*
X118223639Y-88145852D01*
X118290758Y-88109976D01*
X118451177Y-88061313D01*
X118576196Y-88049000D01*
X118659804Y-88049000D01*
X118784823Y-88061313D01*
X118784823Y-88061313D01*
G37*
G36*
X129026228Y-88081703D02*
G01*
X129181100Y-88145853D01*
X129320481Y-88238985D01*
X129439015Y-88357519D01*
X129532147Y-88496900D01*
X129596297Y-88651772D01*
X129629000Y-88816184D01*
X129629000Y-88983816D01*
X129596297Y-89148228D01*
X129532147Y-89303100D01*
X129439015Y-89442481D01*
X129320481Y-89561015D01*
X129181100Y-89654147D01*
X129026228Y-89718297D01*
X128861816Y-89751000D01*
X128694184Y-89751000D01*
X128529772Y-89718297D01*
X128374900Y-89654147D01*
X128235519Y-89561015D01*
X128116985Y-89442481D01*
X128023853Y-89303100D01*
X127959703Y-89148228D01*
X127927000Y-88983816D01*
X127927000Y-88816184D01*
X127959703Y-88651772D01*
X128023853Y-88496900D01*
X128116985Y-88357519D01*
X128235519Y-88238985D01*
X128374900Y-88145853D01*
X128529772Y-88081703D01*
X128694184Y-88049000D01*
X128861816Y-88049000D01*
X129026228Y-88081703D01*
X129026228Y-88081703D01*
G37*
G36*
X134984443Y-87497519D02*
G01*
X135050627Y-87504037D01*
X135220466Y-87555557D01*
X135376991Y-87639222D01*
X135412729Y-87668552D01*
X135514186Y-87751814D01*
X135561690Y-87809699D01*
X135626778Y-87889009D01*
X135626779Y-87889011D01*
X135695677Y-88017908D01*
X135710443Y-88045534D01*
X135761963Y-88215373D01*
X135779359Y-88392000D01*
X135761963Y-88568627D01*
X135710443Y-88738466D01*
X135626778Y-88894991D01*
X135622667Y-88900000D01*
X135514186Y-89032186D01*
X135412729Y-89115448D01*
X135376991Y-89144778D01*
X135220466Y-89228443D01*
X135050627Y-89279963D01*
X134984443Y-89286481D01*
X134918260Y-89293000D01*
X134829740Y-89293000D01*
X134763557Y-89286481D01*
X134697373Y-89279963D01*
X134527534Y-89228443D01*
X134371009Y-89144778D01*
X134335271Y-89115448D01*
X134233814Y-89032186D01*
X134125333Y-88900000D01*
X134121222Y-88894991D01*
X134037557Y-88738466D01*
X133986037Y-88568627D01*
X133968641Y-88392000D01*
X133986037Y-88215373D01*
X134037557Y-88045534D01*
X134052324Y-88017908D01*
X134121221Y-87889011D01*
X134121222Y-87889009D01*
X134186310Y-87809699D01*
X134233814Y-87751814D01*
X134335271Y-87668552D01*
X134371009Y-87639222D01*
X134527534Y-87555557D01*
X134697373Y-87504037D01*
X134763557Y-87497519D01*
X134829740Y-87491000D01*
X134918260Y-87491000D01*
X134984443Y-87497519D01*
X134984443Y-87497519D01*
G37*
G36*
X132444443Y-87497519D02*
G01*
X132510627Y-87504037D01*
X132680466Y-87555557D01*
X132836991Y-87639222D01*
X132872729Y-87668552D01*
X132974186Y-87751814D01*
X133021690Y-87809699D01*
X133086778Y-87889009D01*
X133086779Y-87889011D01*
X133155677Y-88017908D01*
X133170443Y-88045534D01*
X133221963Y-88215373D01*
X133239359Y-88392000D01*
X133221963Y-88568627D01*
X133170443Y-88738466D01*
X133086778Y-88894991D01*
X133082667Y-88900000D01*
X132974186Y-89032186D01*
X132872729Y-89115448D01*
X132836991Y-89144778D01*
X132680466Y-89228443D01*
X132510627Y-89279963D01*
X132444443Y-89286481D01*
X132378260Y-89293000D01*
X132289740Y-89293000D01*
X132223557Y-89286481D01*
X132157373Y-89279963D01*
X131987534Y-89228443D01*
X131831009Y-89144778D01*
X131795271Y-89115448D01*
X131693814Y-89032186D01*
X131585333Y-88900000D01*
X131581222Y-88894991D01*
X131497557Y-88738466D01*
X131446037Y-88568627D01*
X131428641Y-88392000D01*
X131446037Y-88215373D01*
X131497557Y-88045534D01*
X131512324Y-88017908D01*
X131581221Y-87889011D01*
X131581222Y-87889009D01*
X131646310Y-87809699D01*
X131693814Y-87751814D01*
X131795271Y-87668552D01*
X131831009Y-87639222D01*
X131987534Y-87555557D01*
X132157373Y-87504037D01*
X132223557Y-87497519D01*
X132289740Y-87491000D01*
X132378260Y-87491000D01*
X132444443Y-87497519D01*
X132444443Y-87497519D01*
G37*
G36*
X169564600Y-86224989D02*
G01*
X169597652Y-86235015D01*
X169628103Y-86251292D01*
X169654799Y-86273201D01*
X169676708Y-86299897D01*
X169692985Y-86330348D01*
X169703011Y-86363400D01*
X169707000Y-86403903D01*
X169707000Y-87840097D01*
X169703011Y-87880600D01*
X169692985Y-87913652D01*
X169676708Y-87944103D01*
X169654799Y-87970799D01*
X169628103Y-87992708D01*
X169597652Y-88008985D01*
X169564600Y-88019011D01*
X169524097Y-88023000D01*
X167787903Y-88023000D01*
X167747400Y-88019011D01*
X167714348Y-88008985D01*
X167683897Y-87992708D01*
X167657201Y-87970799D01*
X167635292Y-87944103D01*
X167619015Y-87913652D01*
X167608989Y-87880600D01*
X167605000Y-87840097D01*
X167605000Y-86403903D01*
X167608989Y-86363400D01*
X167619015Y-86330348D01*
X167635292Y-86299897D01*
X167657201Y-86273201D01*
X167683897Y-86251292D01*
X167714348Y-86235015D01*
X167747400Y-86224989D01*
X167787903Y-86221000D01*
X169524097Y-86221000D01*
X169564600Y-86224989D01*
X169564600Y-86224989D01*
G37*
G36*
X114468482Y-86411826D02*
G01*
X114525876Y-86417479D01*
X114599517Y-86439818D01*
X114636338Y-86450987D01*
X114738140Y-86505402D01*
X114827370Y-86578630D01*
X114900598Y-86667860D01*
X114955013Y-86769662D01*
X114955013Y-86769663D01*
X114988521Y-86880124D01*
X114999835Y-86995000D01*
X114988521Y-87109876D01*
X114966182Y-87183517D01*
X114955013Y-87220338D01*
X114900598Y-87322140D01*
X114827370Y-87411370D01*
X114738140Y-87484598D01*
X114636338Y-87539013D01*
X114599517Y-87550182D01*
X114525876Y-87572521D01*
X114468482Y-87578174D01*
X114439786Y-87581000D01*
X113652214Y-87581000D01*
X113623518Y-87578174D01*
X113566124Y-87572521D01*
X113492483Y-87550182D01*
X113455662Y-87539013D01*
X113353860Y-87484598D01*
X113264630Y-87411370D01*
X113191402Y-87322140D01*
X113136987Y-87220338D01*
X113125818Y-87183517D01*
X113103479Y-87109876D01*
X113092165Y-86995000D01*
X113103479Y-86880124D01*
X113136987Y-86769663D01*
X113136987Y-86769662D01*
X113191402Y-86667860D01*
X113264630Y-86578630D01*
X113353860Y-86505402D01*
X113455662Y-86450987D01*
X113492483Y-86439818D01*
X113566124Y-86417479D01*
X113623518Y-86411826D01*
X113652214Y-86409000D01*
X114439786Y-86409000D01*
X114468482Y-86411826D01*
X114468482Y-86411826D01*
G37*
G36*
X140826443Y-85211519D02*
G01*
X140892627Y-85218037D01*
X141062466Y-85269557D01*
X141218991Y-85353222D01*
X141245257Y-85374778D01*
X141356186Y-85465814D01*
X141439448Y-85567271D01*
X141468778Y-85603009D01*
X141552443Y-85759534D01*
X141603963Y-85929373D01*
X141621359Y-86106000D01*
X141603963Y-86282627D01*
X141552443Y-86452466D01*
X141468778Y-86608991D01*
X141439448Y-86644729D01*
X141356186Y-86746186D01*
X141254729Y-86829448D01*
X141218991Y-86858778D01*
X141062466Y-86942443D01*
X140892627Y-86993963D01*
X140826442Y-87000482D01*
X140760260Y-87007000D01*
X140671740Y-87007000D01*
X140605558Y-87000482D01*
X140539373Y-86993963D01*
X140369534Y-86942443D01*
X140213009Y-86858778D01*
X140177271Y-86829448D01*
X140075814Y-86746186D01*
X139992552Y-86644729D01*
X139963222Y-86608991D01*
X139879557Y-86452466D01*
X139828037Y-86282627D01*
X139810641Y-86106000D01*
X139828037Y-85929373D01*
X139879557Y-85759534D01*
X139963222Y-85603009D01*
X139992552Y-85567271D01*
X140075814Y-85465814D01*
X140186743Y-85374778D01*
X140213009Y-85353222D01*
X140369534Y-85269557D01*
X140539373Y-85218037D01*
X140605557Y-85211519D01*
X140671740Y-85205000D01*
X140760260Y-85205000D01*
X140826443Y-85211519D01*
X140826443Y-85211519D01*
G37*
G36*
X143366443Y-85211519D02*
G01*
X143432627Y-85218037D01*
X143602466Y-85269557D01*
X143758991Y-85353222D01*
X143785257Y-85374778D01*
X143896186Y-85465814D01*
X143979448Y-85567271D01*
X144008778Y-85603009D01*
X144092443Y-85759534D01*
X144143963Y-85929373D01*
X144161359Y-86106000D01*
X144143963Y-86282627D01*
X144092443Y-86452466D01*
X144008778Y-86608991D01*
X143979448Y-86644729D01*
X143896186Y-86746186D01*
X143794729Y-86829448D01*
X143758991Y-86858778D01*
X143602466Y-86942443D01*
X143432627Y-86993963D01*
X143366442Y-87000482D01*
X143300260Y-87007000D01*
X143211740Y-87007000D01*
X143145558Y-87000482D01*
X143079373Y-86993963D01*
X142909534Y-86942443D01*
X142753009Y-86858778D01*
X142717271Y-86829448D01*
X142615814Y-86746186D01*
X142532552Y-86644729D01*
X142503222Y-86608991D01*
X142419557Y-86452466D01*
X142368037Y-86282627D01*
X142350641Y-86106000D01*
X142368037Y-85929373D01*
X142419557Y-85759534D01*
X142503222Y-85603009D01*
X142532552Y-85567271D01*
X142615814Y-85465814D01*
X142726743Y-85374778D01*
X142753009Y-85353222D01*
X142909534Y-85269557D01*
X143079373Y-85218037D01*
X143145557Y-85211519D01*
X143211740Y-85205000D01*
X143300260Y-85205000D01*
X143366443Y-85211519D01*
X143366443Y-85211519D01*
G37*
G36*
X146697000Y-87007000D02*
G01*
X144895000Y-87007000D01*
X144895000Y-85205000D01*
X146697000Y-85205000D01*
X146697000Y-87007000D01*
X146697000Y-87007000D01*
G37*
G36*
X132444442Y-84957518D02*
G01*
X132510627Y-84964037D01*
X132680466Y-85015557D01*
X132836991Y-85099222D01*
X132868388Y-85124989D01*
X132974186Y-85211814D01*
X133054369Y-85309519D01*
X133086778Y-85349009D01*
X133170443Y-85505534D01*
X133221963Y-85675373D01*
X133239359Y-85852000D01*
X133221963Y-86028627D01*
X133170443Y-86198466D01*
X133170442Y-86198468D01*
X133150907Y-86235015D01*
X133086778Y-86354991D01*
X133062487Y-86384589D01*
X132974186Y-86492186D01*
X132872729Y-86575448D01*
X132836991Y-86604778D01*
X132680466Y-86688443D01*
X132510627Y-86739963D01*
X132447453Y-86746185D01*
X132378260Y-86753000D01*
X132289740Y-86753000D01*
X132220547Y-86746185D01*
X132157373Y-86739963D01*
X131987534Y-86688443D01*
X131831009Y-86604778D01*
X131795271Y-86575448D01*
X131693814Y-86492186D01*
X131605513Y-86384589D01*
X131581222Y-86354991D01*
X131517093Y-86235015D01*
X131497558Y-86198468D01*
X131497557Y-86198466D01*
X131446037Y-86028627D01*
X131428641Y-85852000D01*
X131446037Y-85675373D01*
X131497557Y-85505534D01*
X131581222Y-85349009D01*
X131613631Y-85309519D01*
X131693814Y-85211814D01*
X131799612Y-85124989D01*
X131831009Y-85099222D01*
X131987534Y-85015557D01*
X132157373Y-84964037D01*
X132223558Y-84957518D01*
X132289740Y-84951000D01*
X132378260Y-84951000D01*
X132444442Y-84957518D01*
X132444442Y-84957518D01*
G37*
G36*
X134984442Y-84957518D02*
G01*
X135050627Y-84964037D01*
X135220466Y-85015557D01*
X135376991Y-85099222D01*
X135408388Y-85124989D01*
X135514186Y-85211814D01*
X135594369Y-85309519D01*
X135626778Y-85349009D01*
X135710443Y-85505534D01*
X135761963Y-85675373D01*
X135779359Y-85852000D01*
X135761963Y-86028627D01*
X135710443Y-86198466D01*
X135710442Y-86198468D01*
X135690907Y-86235015D01*
X135626778Y-86354991D01*
X135602487Y-86384589D01*
X135514186Y-86492186D01*
X135412729Y-86575448D01*
X135376991Y-86604778D01*
X135220466Y-86688443D01*
X135050627Y-86739963D01*
X134987453Y-86746185D01*
X134918260Y-86753000D01*
X134829740Y-86753000D01*
X134760547Y-86746185D01*
X134697373Y-86739963D01*
X134527534Y-86688443D01*
X134371009Y-86604778D01*
X134335271Y-86575448D01*
X134233814Y-86492186D01*
X134145513Y-86384589D01*
X134121222Y-86354991D01*
X134057093Y-86235015D01*
X134037558Y-86198468D01*
X134037557Y-86198466D01*
X133986037Y-86028627D01*
X133968641Y-85852000D01*
X133986037Y-85675373D01*
X134037557Y-85505534D01*
X134121222Y-85349009D01*
X134153631Y-85309519D01*
X134233814Y-85211814D01*
X134339612Y-85124989D01*
X134371009Y-85099222D01*
X134527534Y-85015557D01*
X134697373Y-84964037D01*
X134763558Y-84957518D01*
X134829740Y-84951000D01*
X134918260Y-84951000D01*
X134984442Y-84957518D01*
X134984442Y-84957518D01*
G37*
G36*
X118784823Y-85013313D02*
G01*
X118945242Y-85061976D01*
X119012361Y-85097852D01*
X119093078Y-85140996D01*
X119222659Y-85247341D01*
X119329004Y-85376922D01*
X119329005Y-85376924D01*
X119408024Y-85524758D01*
X119456687Y-85685177D01*
X119473117Y-85852000D01*
X119456687Y-86018823D01*
X119408024Y-86179242D01*
X119344217Y-86298617D01*
X119329004Y-86327078D01*
X119222659Y-86456659D01*
X119093078Y-86563004D01*
X119093076Y-86563005D01*
X118945242Y-86642024D01*
X118784823Y-86690687D01*
X118659804Y-86703000D01*
X118576196Y-86703000D01*
X118451177Y-86690687D01*
X118290758Y-86642024D01*
X118142924Y-86563005D01*
X118142922Y-86563004D01*
X118013341Y-86456659D01*
X117906996Y-86327078D01*
X117891783Y-86298617D01*
X117827976Y-86179242D01*
X117779313Y-86018823D01*
X117762883Y-85852000D01*
X117779313Y-85685177D01*
X117827976Y-85524758D01*
X117906995Y-85376924D01*
X117906996Y-85376922D01*
X118013341Y-85247341D01*
X118142922Y-85140996D01*
X118223639Y-85097852D01*
X118290758Y-85061976D01*
X118451177Y-85013313D01*
X118576196Y-85001000D01*
X118659804Y-85001000D01*
X118784823Y-85013313D01*
X118784823Y-85013313D01*
G37*
G36*
X129026228Y-85033703D02*
G01*
X129181100Y-85097853D01*
X129320481Y-85190985D01*
X129439015Y-85309519D01*
X129532147Y-85448900D01*
X129596297Y-85603772D01*
X129629000Y-85768184D01*
X129629000Y-85935816D01*
X129596297Y-86100228D01*
X129532147Y-86255100D01*
X129439015Y-86394481D01*
X129320481Y-86513015D01*
X129181100Y-86606147D01*
X129026228Y-86670297D01*
X128861816Y-86703000D01*
X128694184Y-86703000D01*
X128529772Y-86670297D01*
X128374900Y-86606147D01*
X128235519Y-86513015D01*
X128116985Y-86394481D01*
X128023853Y-86255100D01*
X127959703Y-86100228D01*
X127927000Y-85935816D01*
X127927000Y-85768184D01*
X127959703Y-85603772D01*
X128023853Y-85448900D01*
X128116985Y-85309519D01*
X128235519Y-85190985D01*
X128374900Y-85097853D01*
X128529772Y-85033703D01*
X128694184Y-85001000D01*
X128861816Y-85001000D01*
X129026228Y-85033703D01*
X129026228Y-85033703D01*
G37*
G36*
X168916442Y-83727518D02*
G01*
X168982627Y-83734037D01*
X169152466Y-83785557D01*
X169308991Y-83869222D01*
X169319052Y-83877479D01*
X169446186Y-83981814D01*
X169529448Y-84083271D01*
X169558778Y-84119009D01*
X169642443Y-84275534D01*
X169693963Y-84445373D01*
X169711359Y-84622000D01*
X169693963Y-84798627D01*
X169642443Y-84968466D01*
X169558778Y-85124991D01*
X169545643Y-85140996D01*
X169446186Y-85262186D01*
X169388508Y-85309520D01*
X169308991Y-85374778D01*
X169152466Y-85458443D01*
X168982627Y-85509963D01*
X168916442Y-85516482D01*
X168850260Y-85523000D01*
X168461740Y-85523000D01*
X168395558Y-85516482D01*
X168329373Y-85509963D01*
X168159534Y-85458443D01*
X168003009Y-85374778D01*
X167923492Y-85309520D01*
X167865814Y-85262186D01*
X167766357Y-85140996D01*
X167753222Y-85124991D01*
X167669557Y-84968466D01*
X167618037Y-84798627D01*
X167600641Y-84622000D01*
X167618037Y-84445373D01*
X167669557Y-84275534D01*
X167753222Y-84119009D01*
X167782552Y-84083271D01*
X167865814Y-83981814D01*
X167992948Y-83877479D01*
X168003009Y-83869222D01*
X168159534Y-83785557D01*
X168329373Y-83734037D01*
X168395558Y-83727518D01*
X168461740Y-83721000D01*
X168850260Y-83721000D01*
X168916442Y-83727518D01*
X168916442Y-83727518D01*
G37*
G36*
X114468482Y-83871826D02*
G01*
X114525876Y-83877479D01*
X114599517Y-83899818D01*
X114636338Y-83910987D01*
X114738140Y-83965402D01*
X114827370Y-84038630D01*
X114900598Y-84127860D01*
X114955013Y-84229662D01*
X114955013Y-84229663D01*
X114988521Y-84340124D01*
X114999835Y-84455000D01*
X114988521Y-84569876D01*
X114972709Y-84622000D01*
X114955013Y-84680338D01*
X114900598Y-84782140D01*
X114827370Y-84871370D01*
X114738140Y-84944598D01*
X114636338Y-84999013D01*
X114599517Y-85010182D01*
X114525876Y-85032521D01*
X114468482Y-85038174D01*
X114439786Y-85041000D01*
X113652214Y-85041000D01*
X113623518Y-85038174D01*
X113566124Y-85032521D01*
X113492483Y-85010182D01*
X113455662Y-84999013D01*
X113353860Y-84944598D01*
X113264630Y-84871370D01*
X113191402Y-84782140D01*
X113136987Y-84680338D01*
X113119291Y-84622000D01*
X113103479Y-84569876D01*
X113092165Y-84455000D01*
X113103479Y-84340124D01*
X113136987Y-84229663D01*
X113136987Y-84229662D01*
X113191402Y-84127860D01*
X113264630Y-84038630D01*
X113353860Y-83965402D01*
X113455662Y-83910987D01*
X113492483Y-83899818D01*
X113566124Y-83877479D01*
X113623518Y-83871826D01*
X113652214Y-83869000D01*
X114439786Y-83869000D01*
X114468482Y-83871826D01*
X114468482Y-83871826D01*
G37*
G36*
X134984443Y-82417519D02*
G01*
X135050627Y-82424037D01*
X135220466Y-82475557D01*
X135376991Y-82559222D01*
X135412729Y-82588552D01*
X135514186Y-82671814D01*
X135553882Y-82720185D01*
X135626778Y-82809009D01*
X135710443Y-82965534D01*
X135761963Y-83135373D01*
X135779359Y-83312000D01*
X135761963Y-83488627D01*
X135710443Y-83658466D01*
X135626778Y-83814991D01*
X135597448Y-83850729D01*
X135514186Y-83952186D01*
X135412729Y-84035448D01*
X135376991Y-84064778D01*
X135220466Y-84148443D01*
X135050627Y-84199963D01*
X134984442Y-84206482D01*
X134918260Y-84213000D01*
X134829740Y-84213000D01*
X134763558Y-84206482D01*
X134697373Y-84199963D01*
X134527534Y-84148443D01*
X134371009Y-84064778D01*
X134335271Y-84035448D01*
X134233814Y-83952186D01*
X134150552Y-83850729D01*
X134121222Y-83814991D01*
X134037557Y-83658466D01*
X133986037Y-83488627D01*
X133968641Y-83312000D01*
X133986037Y-83135373D01*
X134037557Y-82965534D01*
X134121222Y-82809009D01*
X134194118Y-82720185D01*
X134233814Y-82671814D01*
X134335271Y-82588552D01*
X134371009Y-82559222D01*
X134527534Y-82475557D01*
X134697373Y-82424037D01*
X134763557Y-82417519D01*
X134829740Y-82411000D01*
X134918260Y-82411000D01*
X134984443Y-82417519D01*
X134984443Y-82417519D01*
G37*
G36*
X132444443Y-82417519D02*
G01*
X132510627Y-82424037D01*
X132680466Y-82475557D01*
X132836991Y-82559222D01*
X132872729Y-82588552D01*
X132974186Y-82671814D01*
X133013882Y-82720185D01*
X133086778Y-82809009D01*
X133170443Y-82965534D01*
X133221963Y-83135373D01*
X133239359Y-83312000D01*
X133221963Y-83488627D01*
X133170443Y-83658466D01*
X133086778Y-83814991D01*
X133057448Y-83850729D01*
X132974186Y-83952186D01*
X132872729Y-84035448D01*
X132836991Y-84064778D01*
X132680466Y-84148443D01*
X132510627Y-84199963D01*
X132444442Y-84206482D01*
X132378260Y-84213000D01*
X132289740Y-84213000D01*
X132223558Y-84206482D01*
X132157373Y-84199963D01*
X131987534Y-84148443D01*
X131831009Y-84064778D01*
X131795271Y-84035448D01*
X131693814Y-83952186D01*
X131610552Y-83850729D01*
X131581222Y-83814991D01*
X131497557Y-83658466D01*
X131446037Y-83488627D01*
X131428641Y-83312000D01*
X131446037Y-83135373D01*
X131497557Y-82965534D01*
X131581222Y-82809009D01*
X131654118Y-82720185D01*
X131693814Y-82671814D01*
X131795271Y-82588552D01*
X131831009Y-82559222D01*
X131987534Y-82475557D01*
X132157373Y-82424037D01*
X132223557Y-82417519D01*
X132289740Y-82411000D01*
X132378260Y-82411000D01*
X132444443Y-82417519D01*
X132444443Y-82417519D01*
G37*
G36*
X118784823Y-81965313D02*
G01*
X118945242Y-82013976D01*
X119012361Y-82049852D01*
X119093078Y-82092996D01*
X119222659Y-82199341D01*
X119329004Y-82328922D01*
X119329005Y-82328924D01*
X119408024Y-82476758D01*
X119456687Y-82637177D01*
X119473117Y-82804000D01*
X119456687Y-82970823D01*
X119408024Y-83131242D01*
X119367477Y-83207100D01*
X119329004Y-83279078D01*
X119222659Y-83408659D01*
X119093078Y-83515004D01*
X119093076Y-83515005D01*
X118945242Y-83594024D01*
X118784823Y-83642687D01*
X118659804Y-83655000D01*
X118576196Y-83655000D01*
X118451177Y-83642687D01*
X118290758Y-83594024D01*
X118142924Y-83515005D01*
X118142922Y-83515004D01*
X118013341Y-83408659D01*
X117906996Y-83279078D01*
X117868523Y-83207100D01*
X117827976Y-83131242D01*
X117779313Y-82970823D01*
X117762883Y-82804000D01*
X117779313Y-82637177D01*
X117827976Y-82476758D01*
X117906995Y-82328924D01*
X117906996Y-82328922D01*
X118013341Y-82199341D01*
X118142922Y-82092996D01*
X118223639Y-82049852D01*
X118290758Y-82013976D01*
X118451177Y-81965313D01*
X118576196Y-81953000D01*
X118659804Y-81953000D01*
X118784823Y-81965313D01*
X118784823Y-81965313D01*
G37*
G36*
X129026228Y-81985703D02*
G01*
X129181100Y-82049853D01*
X129320481Y-82142985D01*
X129439015Y-82261519D01*
X129532147Y-82400900D01*
X129596297Y-82555772D01*
X129629000Y-82720184D01*
X129629000Y-82887816D01*
X129596297Y-83052228D01*
X129532147Y-83207100D01*
X129439015Y-83346481D01*
X129320481Y-83465015D01*
X129181100Y-83558147D01*
X129026228Y-83622297D01*
X128861816Y-83655000D01*
X128694184Y-83655000D01*
X128529772Y-83622297D01*
X128374900Y-83558147D01*
X128235519Y-83465015D01*
X128116985Y-83346481D01*
X128023853Y-83207100D01*
X127959703Y-83052228D01*
X127927000Y-82887816D01*
X127927000Y-82720184D01*
X127959703Y-82555772D01*
X128023853Y-82400900D01*
X128116985Y-82261519D01*
X128235519Y-82142985D01*
X128374900Y-82049853D01*
X128529772Y-81985703D01*
X128694184Y-81953000D01*
X128861816Y-81953000D01*
X129026228Y-81985703D01*
X129026228Y-81985703D01*
G37*
G36*
X114468482Y-81331826D02*
G01*
X114525876Y-81337479D01*
X114599517Y-81359818D01*
X114636338Y-81370987D01*
X114738140Y-81425402D01*
X114827370Y-81498630D01*
X114900598Y-81587860D01*
X114955013Y-81689662D01*
X114955013Y-81689663D01*
X114988521Y-81800124D01*
X114999835Y-81915000D01*
X114988521Y-82029876D01*
X114982461Y-82049852D01*
X114955013Y-82140338D01*
X114900598Y-82242140D01*
X114827370Y-82331370D01*
X114738140Y-82404598D01*
X114636338Y-82459013D01*
X114599517Y-82470182D01*
X114525876Y-82492521D01*
X114468482Y-82498174D01*
X114439786Y-82501000D01*
X113652214Y-82501000D01*
X113623518Y-82498174D01*
X113566124Y-82492521D01*
X113492483Y-82470182D01*
X113455662Y-82459013D01*
X113353860Y-82404598D01*
X113264630Y-82331370D01*
X113191402Y-82242140D01*
X113136987Y-82140338D01*
X113109539Y-82049852D01*
X113103479Y-82029876D01*
X113092165Y-81915000D01*
X113103479Y-81800124D01*
X113136987Y-81689663D01*
X113136987Y-81689662D01*
X113191402Y-81587860D01*
X113264630Y-81498630D01*
X113353860Y-81425402D01*
X113455662Y-81370987D01*
X113492483Y-81359818D01*
X113566124Y-81337479D01*
X113623518Y-81331826D01*
X113652214Y-81329000D01*
X114439786Y-81329000D01*
X114468482Y-81331826D01*
X114468482Y-81331826D01*
G37*
G36*
X132444442Y-79877518D02*
G01*
X132510627Y-79884037D01*
X132680466Y-79935557D01*
X132836991Y-80019222D01*
X132872729Y-80048552D01*
X132974186Y-80131814D01*
X133057448Y-80233271D01*
X133086778Y-80269009D01*
X133170443Y-80425534D01*
X133221963Y-80595373D01*
X133239359Y-80772000D01*
X133221963Y-80948627D01*
X133170443Y-81118466D01*
X133086778Y-81274991D01*
X133057448Y-81310729D01*
X132974186Y-81412186D01*
X132872729Y-81495448D01*
X132836991Y-81524778D01*
X132680466Y-81608443D01*
X132510627Y-81659963D01*
X132444442Y-81666482D01*
X132378260Y-81673000D01*
X132289740Y-81673000D01*
X132223558Y-81666482D01*
X132157373Y-81659963D01*
X131987534Y-81608443D01*
X131831009Y-81524778D01*
X131795271Y-81495448D01*
X131693814Y-81412186D01*
X131610552Y-81310729D01*
X131581222Y-81274991D01*
X131497557Y-81118466D01*
X131446037Y-80948627D01*
X131428641Y-80772000D01*
X131446037Y-80595373D01*
X131497557Y-80425534D01*
X131581222Y-80269009D01*
X131610552Y-80233271D01*
X131693814Y-80131814D01*
X131795271Y-80048552D01*
X131831009Y-80019222D01*
X131987534Y-79935557D01*
X132157373Y-79884037D01*
X132223558Y-79877518D01*
X132289740Y-79871000D01*
X132378260Y-79871000D01*
X132444442Y-79877518D01*
X132444442Y-79877518D01*
G37*
G36*
X134984442Y-79877518D02*
G01*
X135050627Y-79884037D01*
X135220466Y-79935557D01*
X135376991Y-80019222D01*
X135412729Y-80048552D01*
X135514186Y-80131814D01*
X135597448Y-80233271D01*
X135626778Y-80269009D01*
X135710443Y-80425534D01*
X135761963Y-80595373D01*
X135779359Y-80772000D01*
X135761963Y-80948627D01*
X135710443Y-81118466D01*
X135626778Y-81274991D01*
X135597448Y-81310729D01*
X135514186Y-81412186D01*
X135412729Y-81495448D01*
X135376991Y-81524778D01*
X135220466Y-81608443D01*
X135050627Y-81659963D01*
X134984442Y-81666482D01*
X134918260Y-81673000D01*
X134829740Y-81673000D01*
X134763558Y-81666482D01*
X134697373Y-81659963D01*
X134527534Y-81608443D01*
X134371009Y-81524778D01*
X134335271Y-81495448D01*
X134233814Y-81412186D01*
X134150552Y-81310729D01*
X134121222Y-81274991D01*
X134037557Y-81118466D01*
X133986037Y-80948627D01*
X133968641Y-80772000D01*
X133986037Y-80595373D01*
X134037557Y-80425534D01*
X134121222Y-80269009D01*
X134150552Y-80233271D01*
X134233814Y-80131814D01*
X134335271Y-80048552D01*
X134371009Y-80019222D01*
X134527534Y-79935557D01*
X134697373Y-79884037D01*
X134763558Y-79877518D01*
X134829740Y-79871000D01*
X134918260Y-79871000D01*
X134984442Y-79877518D01*
X134984442Y-79877518D01*
G37*
G36*
X170231312Y-78259887D02*
G01*
X170321039Y-78287106D01*
X170403731Y-78331306D01*
X170476211Y-78390789D01*
X170535694Y-78463269D01*
X170579894Y-78545961D01*
X170607113Y-78635688D01*
X170616303Y-78729000D01*
X170607113Y-78822312D01*
X170579894Y-78912039D01*
X170535694Y-78994731D01*
X170476211Y-79067211D01*
X170403731Y-79126694D01*
X170321039Y-79170894D01*
X170231312Y-79198113D01*
X170161384Y-79205000D01*
X169114616Y-79205000D01*
X169044688Y-79198113D01*
X168954961Y-79170894D01*
X168872269Y-79126694D01*
X168799789Y-79067211D01*
X168740306Y-78994731D01*
X168696106Y-78912039D01*
X168668887Y-78822312D01*
X168659697Y-78729000D01*
X168668887Y-78635688D01*
X168696106Y-78545961D01*
X168740306Y-78463269D01*
X168799789Y-78390789D01*
X168872269Y-78331306D01*
X168954961Y-78287106D01*
X169044688Y-78259887D01*
X169114616Y-78253000D01*
X170161384Y-78253000D01*
X170231312Y-78259887D01*
X170231312Y-78259887D01*
G37*
G36*
X134984442Y-77337518D02*
G01*
X135050627Y-77344037D01*
X135220466Y-77395557D01*
X135376991Y-77479222D01*
X135412729Y-77508552D01*
X135514186Y-77591814D01*
X135597448Y-77693271D01*
X135626778Y-77729009D01*
X135710443Y-77885534D01*
X135761963Y-78055373D01*
X135779359Y-78232000D01*
X135761963Y-78408627D01*
X135710443Y-78578466D01*
X135626778Y-78734991D01*
X135597448Y-78770729D01*
X135514186Y-78872186D01*
X135412729Y-78955448D01*
X135376991Y-78984778D01*
X135220466Y-79068443D01*
X135050627Y-79119963D01*
X134984442Y-79126482D01*
X134918260Y-79133000D01*
X134829740Y-79133000D01*
X134763558Y-79126482D01*
X134697373Y-79119963D01*
X134527534Y-79068443D01*
X134371009Y-78984778D01*
X134335271Y-78955448D01*
X134233814Y-78872186D01*
X134150552Y-78770729D01*
X134121222Y-78734991D01*
X134037557Y-78578466D01*
X133986037Y-78408627D01*
X133968641Y-78232000D01*
X133986037Y-78055373D01*
X134037557Y-77885534D01*
X134121222Y-77729009D01*
X134150552Y-77693271D01*
X134233814Y-77591814D01*
X134335271Y-77508552D01*
X134371009Y-77479222D01*
X134527534Y-77395557D01*
X134697373Y-77344037D01*
X134763558Y-77337518D01*
X134829740Y-77331000D01*
X134918260Y-77331000D01*
X134984442Y-77337518D01*
X134984442Y-77337518D01*
G37*
G36*
X132444442Y-77337518D02*
G01*
X132510627Y-77344037D01*
X132680466Y-77395557D01*
X132836991Y-77479222D01*
X132872729Y-77508552D01*
X132974186Y-77591814D01*
X133057448Y-77693271D01*
X133086778Y-77729009D01*
X133170443Y-77885534D01*
X133221963Y-78055373D01*
X133239359Y-78232000D01*
X133221963Y-78408627D01*
X133170443Y-78578466D01*
X133086778Y-78734991D01*
X133057448Y-78770729D01*
X132974186Y-78872186D01*
X132872729Y-78955448D01*
X132836991Y-78984778D01*
X132680466Y-79068443D01*
X132510627Y-79119963D01*
X132444442Y-79126482D01*
X132378260Y-79133000D01*
X132289740Y-79133000D01*
X132223558Y-79126482D01*
X132157373Y-79119963D01*
X131987534Y-79068443D01*
X131831009Y-78984778D01*
X131795271Y-78955448D01*
X131693814Y-78872186D01*
X131610552Y-78770729D01*
X131581222Y-78734991D01*
X131497557Y-78578466D01*
X131446037Y-78408627D01*
X131428641Y-78232000D01*
X131446037Y-78055373D01*
X131497557Y-77885534D01*
X131581222Y-77729009D01*
X131610552Y-77693271D01*
X131693814Y-77591814D01*
X131795271Y-77508552D01*
X131831009Y-77479222D01*
X131987534Y-77395557D01*
X132157373Y-77344037D01*
X132223558Y-77337518D01*
X132289740Y-77331000D01*
X132378260Y-77331000D01*
X132444442Y-77337518D01*
X132444442Y-77337518D01*
G37*
G36*
X125840442Y-77337518D02*
G01*
X125906627Y-77344037D01*
X126076466Y-77395557D01*
X126232991Y-77479222D01*
X126268729Y-77508552D01*
X126370186Y-77591814D01*
X126453448Y-77693271D01*
X126482778Y-77729009D01*
X126566443Y-77885534D01*
X126617963Y-78055373D01*
X126635359Y-78232000D01*
X126617963Y-78408627D01*
X126566443Y-78578466D01*
X126482778Y-78734991D01*
X126453448Y-78770729D01*
X126370186Y-78872186D01*
X126268729Y-78955448D01*
X126232991Y-78984778D01*
X126076466Y-79068443D01*
X125906627Y-79119963D01*
X125840442Y-79126482D01*
X125774260Y-79133000D01*
X125685740Y-79133000D01*
X125619558Y-79126482D01*
X125553373Y-79119963D01*
X125383534Y-79068443D01*
X125227009Y-78984778D01*
X125191271Y-78955448D01*
X125089814Y-78872186D01*
X125006552Y-78770729D01*
X124977222Y-78734991D01*
X124893557Y-78578466D01*
X124842037Y-78408627D01*
X124824641Y-78232000D01*
X124842037Y-78055373D01*
X124893557Y-77885534D01*
X124977222Y-77729009D01*
X125006552Y-77693271D01*
X125089814Y-77591814D01*
X125191271Y-77508552D01*
X125227009Y-77479222D01*
X125383534Y-77395557D01*
X125553373Y-77344037D01*
X125619558Y-77337518D01*
X125685740Y-77331000D01*
X125774260Y-77331000D01*
X125840442Y-77337518D01*
X125840442Y-77337518D01*
G37*
G36*
X116471000Y-79133000D02*
G01*
X114669000Y-79133000D01*
X114669000Y-77331000D01*
X116471000Y-77331000D01*
X116471000Y-79133000D01*
X116471000Y-79133000D01*
G37*
G36*
X118220442Y-77337518D02*
G01*
X118286627Y-77344037D01*
X118456466Y-77395557D01*
X118612991Y-77479222D01*
X118648729Y-77508552D01*
X118750186Y-77591814D01*
X118833448Y-77693271D01*
X118862778Y-77729009D01*
X118946443Y-77885534D01*
X118997963Y-78055373D01*
X119015359Y-78232000D01*
X118997963Y-78408627D01*
X118946443Y-78578466D01*
X118862778Y-78734991D01*
X118833448Y-78770729D01*
X118750186Y-78872186D01*
X118648729Y-78955448D01*
X118612991Y-78984778D01*
X118456466Y-79068443D01*
X118286627Y-79119963D01*
X118220442Y-79126482D01*
X118154260Y-79133000D01*
X118065740Y-79133000D01*
X117999558Y-79126482D01*
X117933373Y-79119963D01*
X117763534Y-79068443D01*
X117607009Y-78984778D01*
X117571271Y-78955448D01*
X117469814Y-78872186D01*
X117386552Y-78770729D01*
X117357222Y-78734991D01*
X117273557Y-78578466D01*
X117222037Y-78408627D01*
X117204641Y-78232000D01*
X117222037Y-78055373D01*
X117273557Y-77885534D01*
X117357222Y-77729009D01*
X117386552Y-77693271D01*
X117469814Y-77591814D01*
X117571271Y-77508552D01*
X117607009Y-77479222D01*
X117763534Y-77395557D01*
X117933373Y-77344037D01*
X117999558Y-77337518D01*
X118065740Y-77331000D01*
X118154260Y-77331000D01*
X118220442Y-77337518D01*
X118220442Y-77337518D01*
G37*
G36*
X120760442Y-77337518D02*
G01*
X120826627Y-77344037D01*
X120996466Y-77395557D01*
X121152991Y-77479222D01*
X121188729Y-77508552D01*
X121290186Y-77591814D01*
X121373448Y-77693271D01*
X121402778Y-77729009D01*
X121486443Y-77885534D01*
X121537963Y-78055373D01*
X121555359Y-78232000D01*
X121537963Y-78408627D01*
X121486443Y-78578466D01*
X121402778Y-78734991D01*
X121373448Y-78770729D01*
X121290186Y-78872186D01*
X121188729Y-78955448D01*
X121152991Y-78984778D01*
X120996466Y-79068443D01*
X120826627Y-79119963D01*
X120760442Y-79126482D01*
X120694260Y-79133000D01*
X120605740Y-79133000D01*
X120539558Y-79126482D01*
X120473373Y-79119963D01*
X120303534Y-79068443D01*
X120147009Y-78984778D01*
X120111271Y-78955448D01*
X120009814Y-78872186D01*
X119926552Y-78770729D01*
X119897222Y-78734991D01*
X119813557Y-78578466D01*
X119762037Y-78408627D01*
X119744641Y-78232000D01*
X119762037Y-78055373D01*
X119813557Y-77885534D01*
X119897222Y-77729009D01*
X119926552Y-77693271D01*
X120009814Y-77591814D01*
X120111271Y-77508552D01*
X120147009Y-77479222D01*
X120303534Y-77395557D01*
X120473373Y-77344037D01*
X120539558Y-77337518D01*
X120605740Y-77331000D01*
X120694260Y-77331000D01*
X120760442Y-77337518D01*
X120760442Y-77337518D01*
G37*
G36*
X123300442Y-77337518D02*
G01*
X123366627Y-77344037D01*
X123536466Y-77395557D01*
X123692991Y-77479222D01*
X123728729Y-77508552D01*
X123830186Y-77591814D01*
X123913448Y-77693271D01*
X123942778Y-77729009D01*
X124026443Y-77885534D01*
X124077963Y-78055373D01*
X124095359Y-78232000D01*
X124077963Y-78408627D01*
X124026443Y-78578466D01*
X123942778Y-78734991D01*
X123913448Y-78770729D01*
X123830186Y-78872186D01*
X123728729Y-78955448D01*
X123692991Y-78984778D01*
X123536466Y-79068443D01*
X123366627Y-79119963D01*
X123300442Y-79126482D01*
X123234260Y-79133000D01*
X123145740Y-79133000D01*
X123079558Y-79126482D01*
X123013373Y-79119963D01*
X122843534Y-79068443D01*
X122687009Y-78984778D01*
X122651271Y-78955448D01*
X122549814Y-78872186D01*
X122466552Y-78770729D01*
X122437222Y-78734991D01*
X122353557Y-78578466D01*
X122302037Y-78408627D01*
X122284641Y-78232000D01*
X122302037Y-78055373D01*
X122353557Y-77885534D01*
X122437222Y-77729009D01*
X122466552Y-77693271D01*
X122549814Y-77591814D01*
X122651271Y-77508552D01*
X122687009Y-77479222D01*
X122843534Y-77395557D01*
X123013373Y-77344037D01*
X123079558Y-77337518D01*
X123145740Y-77331000D01*
X123234260Y-77331000D01*
X123300442Y-77337518D01*
X123300442Y-77337518D01*
G37*
G36*
X160453294Y-75908233D02*
G01*
X160625695Y-75960531D01*
X160784583Y-76045458D01*
X160923849Y-76159751D01*
X161038142Y-76299017D01*
X161123069Y-76457905D01*
X161175367Y-76630306D01*
X161188600Y-76764669D01*
X161188600Y-78175331D01*
X161175367Y-78309694D01*
X161123069Y-78482095D01*
X161038142Y-78640983D01*
X160923849Y-78780249D01*
X160784583Y-78894542D01*
X160625694Y-78979469D01*
X160453293Y-79031767D01*
X160274000Y-79049425D01*
X160094706Y-79031767D01*
X159922305Y-78979469D01*
X159763417Y-78894542D01*
X159624151Y-78780249D01*
X159509858Y-78640983D01*
X159424931Y-78482094D01*
X159372633Y-78309693D01*
X159359400Y-78175330D01*
X159359401Y-76764669D01*
X159372634Y-76630306D01*
X159424932Y-76457905D01*
X159509859Y-76299017D01*
X159624152Y-76159751D01*
X159763418Y-76045458D01*
X159922306Y-75960531D01*
X160094707Y-75908233D01*
X160274000Y-75890575D01*
X160453294Y-75908233D01*
X160453294Y-75908233D01*
G37*
G36*
X155453294Y-75908233D02*
G01*
X155625695Y-75960531D01*
X155784583Y-76045458D01*
X155923849Y-76159751D01*
X156038142Y-76299017D01*
X156123069Y-76457905D01*
X156175367Y-76630306D01*
X156188600Y-76764669D01*
X156188600Y-78175331D01*
X156175367Y-78309694D01*
X156123069Y-78482095D01*
X156038142Y-78640983D01*
X155923849Y-78780249D01*
X155784583Y-78894542D01*
X155625694Y-78979469D01*
X155453293Y-79031767D01*
X155274000Y-79049425D01*
X155094706Y-79031767D01*
X154922305Y-78979469D01*
X154763417Y-78894542D01*
X154624151Y-78780249D01*
X154509858Y-78640983D01*
X154424931Y-78482094D01*
X154372633Y-78309693D01*
X154359400Y-78175330D01*
X154359401Y-76764669D01*
X154372634Y-76630306D01*
X154424932Y-76457905D01*
X154509859Y-76299017D01*
X154624152Y-76159751D01*
X154763418Y-76045458D01*
X154922306Y-75960531D01*
X155094707Y-75908233D01*
X155274000Y-75890575D01*
X155453294Y-75908233D01*
X155453294Y-75908233D01*
G37*
G36*
X139302443Y-76829519D02*
G01*
X139368627Y-76836037D01*
X139538466Y-76887557D01*
X139694991Y-76971222D01*
X139730729Y-77000552D01*
X139832186Y-77083814D01*
X139915448Y-77185271D01*
X139944778Y-77221009D01*
X140028443Y-77377534D01*
X140079963Y-77547373D01*
X140097359Y-77724000D01*
X140079963Y-77900627D01*
X140028443Y-78070466D01*
X139944778Y-78226991D01*
X139940667Y-78232000D01*
X139832186Y-78364186D01*
X139730729Y-78447448D01*
X139694991Y-78476778D01*
X139685044Y-78482095D01*
X139565564Y-78545959D01*
X139538466Y-78560443D01*
X139368627Y-78611963D01*
X139302442Y-78618482D01*
X139236260Y-78625000D01*
X139147740Y-78625000D01*
X139081558Y-78618482D01*
X139015373Y-78611963D01*
X138845534Y-78560443D01*
X138818437Y-78545959D01*
X138698956Y-78482095D01*
X138689009Y-78476778D01*
X138653271Y-78447448D01*
X138551814Y-78364186D01*
X138443333Y-78232000D01*
X138439222Y-78226991D01*
X138355557Y-78070466D01*
X138304037Y-77900627D01*
X138286641Y-77724000D01*
X138304037Y-77547373D01*
X138355557Y-77377534D01*
X138439222Y-77221009D01*
X138468552Y-77185271D01*
X138551814Y-77083814D01*
X138653271Y-77000552D01*
X138689009Y-76971222D01*
X138845534Y-76887557D01*
X139015373Y-76836037D01*
X139081557Y-76829519D01*
X139147740Y-76823000D01*
X139236260Y-76823000D01*
X139302443Y-76829519D01*
X139302443Y-76829519D01*
G37*
G36*
X170525054Y-75345067D02*
G01*
X170555386Y-75351100D01*
X170641102Y-75386605D01*
X170718245Y-75438150D01*
X170783850Y-75503755D01*
X170829045Y-75571395D01*
X170835396Y-75580900D01*
X170870900Y-75666615D01*
X170889000Y-75757609D01*
X170889000Y-75850391D01*
X170881007Y-75890575D01*
X170870900Y-75941386D01*
X170835395Y-76027102D01*
X170783850Y-76104245D01*
X170718245Y-76169850D01*
X170641102Y-76221395D01*
X170555386Y-76256900D01*
X170525054Y-76262933D01*
X170464391Y-76275000D01*
X170371609Y-76275000D01*
X170310946Y-76262933D01*
X170280614Y-76256900D01*
X170194898Y-76221395D01*
X170117755Y-76169850D01*
X170102381Y-76154476D01*
X170083445Y-76138936D01*
X170061834Y-76127385D01*
X170038385Y-76120272D01*
X170013999Y-76117870D01*
X169989613Y-76120272D01*
X169966164Y-76127385D01*
X169944553Y-76138936D01*
X169925611Y-76154481D01*
X169910066Y-76173423D01*
X169898515Y-76195034D01*
X169891402Y-76218483D01*
X169889000Y-76242869D01*
X169889000Y-76925000D01*
X168947000Y-76925000D01*
X168947000Y-75983000D01*
X169822001Y-75983000D01*
X169846387Y-75980598D01*
X169869836Y-75973485D01*
X169891447Y-75961934D01*
X169910389Y-75946389D01*
X169925934Y-75927447D01*
X169937485Y-75905836D01*
X169944598Y-75882387D01*
X169947000Y-75858001D01*
X169947000Y-75757609D01*
X169965100Y-75666615D01*
X170000604Y-75580900D01*
X170006955Y-75571395D01*
X170052150Y-75503755D01*
X170117755Y-75438150D01*
X170194898Y-75386605D01*
X170280614Y-75351100D01*
X170310946Y-75345067D01*
X170371609Y-75333000D01*
X170464391Y-75333000D01*
X170525054Y-75345067D01*
X170525054Y-75345067D01*
G37*
G36*
X125840442Y-74797518D02*
G01*
X125906627Y-74804037D01*
X126076466Y-74855557D01*
X126232991Y-74939222D01*
X126268729Y-74968552D01*
X126370186Y-75051814D01*
X126453448Y-75153271D01*
X126482778Y-75189009D01*
X126566443Y-75345534D01*
X126617963Y-75515373D01*
X126635359Y-75692000D01*
X126617963Y-75868627D01*
X126566443Y-76038466D01*
X126482778Y-76194991D01*
X126461108Y-76221396D01*
X126370186Y-76332186D01*
X126268729Y-76415448D01*
X126232991Y-76444778D01*
X126076466Y-76528443D01*
X125906627Y-76579963D01*
X125840443Y-76586481D01*
X125774260Y-76593000D01*
X125685740Y-76593000D01*
X125619557Y-76586481D01*
X125553373Y-76579963D01*
X125383534Y-76528443D01*
X125227009Y-76444778D01*
X125191271Y-76415448D01*
X125089814Y-76332186D01*
X124998892Y-76221396D01*
X124977222Y-76194991D01*
X124893557Y-76038466D01*
X124842037Y-75868627D01*
X124824641Y-75692000D01*
X124842037Y-75515373D01*
X124893557Y-75345534D01*
X124977222Y-75189009D01*
X125006552Y-75153271D01*
X125089814Y-75051814D01*
X125191271Y-74968552D01*
X125227009Y-74939222D01*
X125383534Y-74855557D01*
X125553373Y-74804037D01*
X125619558Y-74797518D01*
X125685740Y-74791000D01*
X125774260Y-74791000D01*
X125840442Y-74797518D01*
X125840442Y-74797518D01*
G37*
G36*
X123300442Y-74797518D02*
G01*
X123366627Y-74804037D01*
X123536466Y-74855557D01*
X123692991Y-74939222D01*
X123728729Y-74968552D01*
X123830186Y-75051814D01*
X123913448Y-75153271D01*
X123942778Y-75189009D01*
X124026443Y-75345534D01*
X124077963Y-75515373D01*
X124095359Y-75692000D01*
X124077963Y-75868627D01*
X124026443Y-76038466D01*
X123942778Y-76194991D01*
X123921108Y-76221396D01*
X123830186Y-76332186D01*
X123728729Y-76415448D01*
X123692991Y-76444778D01*
X123536466Y-76528443D01*
X123366627Y-76579963D01*
X123300443Y-76586481D01*
X123234260Y-76593000D01*
X123145740Y-76593000D01*
X123079557Y-76586481D01*
X123013373Y-76579963D01*
X122843534Y-76528443D01*
X122687009Y-76444778D01*
X122651271Y-76415448D01*
X122549814Y-76332186D01*
X122458892Y-76221396D01*
X122437222Y-76194991D01*
X122353557Y-76038466D01*
X122302037Y-75868627D01*
X122284641Y-75692000D01*
X122302037Y-75515373D01*
X122353557Y-75345534D01*
X122437222Y-75189009D01*
X122466552Y-75153271D01*
X122549814Y-75051814D01*
X122651271Y-74968552D01*
X122687009Y-74939222D01*
X122843534Y-74855557D01*
X123013373Y-74804037D01*
X123079558Y-74797518D01*
X123145740Y-74791000D01*
X123234260Y-74791000D01*
X123300442Y-74797518D01*
X123300442Y-74797518D01*
G37*
G36*
X120760442Y-74797518D02*
G01*
X120826627Y-74804037D01*
X120996466Y-74855557D01*
X121152991Y-74939222D01*
X121188729Y-74968552D01*
X121290186Y-75051814D01*
X121373448Y-75153271D01*
X121402778Y-75189009D01*
X121486443Y-75345534D01*
X121537963Y-75515373D01*
X121555359Y-75692000D01*
X121537963Y-75868627D01*
X121486443Y-76038466D01*
X121402778Y-76194991D01*
X121381108Y-76221396D01*
X121290186Y-76332186D01*
X121188729Y-76415448D01*
X121152991Y-76444778D01*
X120996466Y-76528443D01*
X120826627Y-76579963D01*
X120760443Y-76586481D01*
X120694260Y-76593000D01*
X120605740Y-76593000D01*
X120539557Y-76586481D01*
X120473373Y-76579963D01*
X120303534Y-76528443D01*
X120147009Y-76444778D01*
X120111271Y-76415448D01*
X120009814Y-76332186D01*
X119918892Y-76221396D01*
X119897222Y-76194991D01*
X119813557Y-76038466D01*
X119762037Y-75868627D01*
X119744641Y-75692000D01*
X119762037Y-75515373D01*
X119813557Y-75345534D01*
X119897222Y-75189009D01*
X119926552Y-75153271D01*
X120009814Y-75051814D01*
X120111271Y-74968552D01*
X120147009Y-74939222D01*
X120303534Y-74855557D01*
X120473373Y-74804037D01*
X120539558Y-74797518D01*
X120605740Y-74791000D01*
X120694260Y-74791000D01*
X120760442Y-74797518D01*
X120760442Y-74797518D01*
G37*
G36*
X118220442Y-74797518D02*
G01*
X118286627Y-74804037D01*
X118456466Y-74855557D01*
X118612991Y-74939222D01*
X118648729Y-74968552D01*
X118750186Y-75051814D01*
X118833448Y-75153271D01*
X118862778Y-75189009D01*
X118946443Y-75345534D01*
X118997963Y-75515373D01*
X119015359Y-75692000D01*
X118997963Y-75868627D01*
X118946443Y-76038466D01*
X118862778Y-76194991D01*
X118841108Y-76221396D01*
X118750186Y-76332186D01*
X118648729Y-76415448D01*
X118612991Y-76444778D01*
X118456466Y-76528443D01*
X118286627Y-76579963D01*
X118220443Y-76586481D01*
X118154260Y-76593000D01*
X118065740Y-76593000D01*
X117999557Y-76586481D01*
X117933373Y-76579963D01*
X117763534Y-76528443D01*
X117607009Y-76444778D01*
X117571271Y-76415448D01*
X117469814Y-76332186D01*
X117378892Y-76221396D01*
X117357222Y-76194991D01*
X117273557Y-76038466D01*
X117222037Y-75868627D01*
X117204641Y-75692000D01*
X117222037Y-75515373D01*
X117273557Y-75345534D01*
X117357222Y-75189009D01*
X117386552Y-75153271D01*
X117469814Y-75051814D01*
X117571271Y-74968552D01*
X117607009Y-74939222D01*
X117763534Y-74855557D01*
X117933373Y-74804037D01*
X117999558Y-74797518D01*
X118065740Y-74791000D01*
X118154260Y-74791000D01*
X118220442Y-74797518D01*
X118220442Y-74797518D01*
G37*
G36*
X132444442Y-74797518D02*
G01*
X132510627Y-74804037D01*
X132680466Y-74855557D01*
X132836991Y-74939222D01*
X132872729Y-74968552D01*
X132974186Y-75051814D01*
X133057448Y-75153271D01*
X133086778Y-75189009D01*
X133170443Y-75345534D01*
X133221963Y-75515373D01*
X133239359Y-75692000D01*
X133221963Y-75868627D01*
X133170443Y-76038466D01*
X133086778Y-76194991D01*
X133065108Y-76221396D01*
X132974186Y-76332186D01*
X132872729Y-76415448D01*
X132836991Y-76444778D01*
X132680466Y-76528443D01*
X132510627Y-76579963D01*
X132444443Y-76586481D01*
X132378260Y-76593000D01*
X132289740Y-76593000D01*
X132223557Y-76586481D01*
X132157373Y-76579963D01*
X131987534Y-76528443D01*
X131831009Y-76444778D01*
X131795271Y-76415448D01*
X131693814Y-76332186D01*
X131602892Y-76221396D01*
X131581222Y-76194991D01*
X131497557Y-76038466D01*
X131446037Y-75868627D01*
X131428641Y-75692000D01*
X131446037Y-75515373D01*
X131497557Y-75345534D01*
X131581222Y-75189009D01*
X131610552Y-75153271D01*
X131693814Y-75051814D01*
X131795271Y-74968552D01*
X131831009Y-74939222D01*
X131987534Y-74855557D01*
X132157373Y-74804037D01*
X132223558Y-74797518D01*
X132289740Y-74791000D01*
X132378260Y-74791000D01*
X132444442Y-74797518D01*
X132444442Y-74797518D01*
G37*
G36*
X116471000Y-76593000D02*
G01*
X114669000Y-76593000D01*
X114669000Y-74791000D01*
X116471000Y-74791000D01*
X116471000Y-76593000D01*
X116471000Y-76593000D01*
G37*
G36*
X134984442Y-74797518D02*
G01*
X135050627Y-74804037D01*
X135220466Y-74855557D01*
X135376991Y-74939222D01*
X135412729Y-74968552D01*
X135514186Y-75051814D01*
X135597448Y-75153271D01*
X135626778Y-75189009D01*
X135710443Y-75345534D01*
X135761963Y-75515373D01*
X135779359Y-75692000D01*
X135761963Y-75868627D01*
X135710443Y-76038466D01*
X135626778Y-76194991D01*
X135605108Y-76221396D01*
X135514186Y-76332186D01*
X135412729Y-76415448D01*
X135376991Y-76444778D01*
X135220466Y-76528443D01*
X135050627Y-76579963D01*
X134984443Y-76586481D01*
X134918260Y-76593000D01*
X134829740Y-76593000D01*
X134763557Y-76586481D01*
X134697373Y-76579963D01*
X134527534Y-76528443D01*
X134371009Y-76444778D01*
X134335271Y-76415448D01*
X134233814Y-76332186D01*
X134142892Y-76221396D01*
X134121222Y-76194991D01*
X134037557Y-76038466D01*
X133986037Y-75868627D01*
X133968641Y-75692000D01*
X133986037Y-75515373D01*
X134037557Y-75345534D01*
X134121222Y-75189009D01*
X134150552Y-75153271D01*
X134233814Y-75051814D01*
X134335271Y-74968552D01*
X134371009Y-74939222D01*
X134527534Y-74855557D01*
X134697373Y-74804037D01*
X134763558Y-74797518D01*
X134829740Y-74791000D01*
X134918260Y-74791000D01*
X134984442Y-74797518D01*
X134984442Y-74797518D01*
G37*
G36*
X139302442Y-74289518D02*
G01*
X139368627Y-74296037D01*
X139538466Y-74347557D01*
X139694991Y-74431222D01*
X139727143Y-74457609D01*
X139832186Y-74543814D01*
X139912259Y-74641385D01*
X139944778Y-74681009D01*
X139944779Y-74681011D01*
X140002047Y-74788150D01*
X140028443Y-74837534D01*
X140079963Y-75007373D01*
X140097359Y-75184000D01*
X140079963Y-75360627D01*
X140028443Y-75530466D01*
X139944778Y-75686991D01*
X139940667Y-75692000D01*
X139832186Y-75824186D01*
X139732694Y-75905836D01*
X139694991Y-75936778D01*
X139538466Y-76020443D01*
X139368627Y-76071963D01*
X139302443Y-76078481D01*
X139236260Y-76085000D01*
X139147740Y-76085000D01*
X139081557Y-76078481D01*
X139015373Y-76071963D01*
X138845534Y-76020443D01*
X138689009Y-75936778D01*
X138651306Y-75905836D01*
X138551814Y-75824186D01*
X138443333Y-75692000D01*
X138439222Y-75686991D01*
X138355557Y-75530466D01*
X138304037Y-75360627D01*
X138286641Y-75184000D01*
X138304037Y-75007373D01*
X138355557Y-74837534D01*
X138381954Y-74788150D01*
X138439221Y-74681011D01*
X138439222Y-74681009D01*
X138471741Y-74641385D01*
X138551814Y-74543814D01*
X138656857Y-74457609D01*
X138689009Y-74431222D01*
X138845534Y-74347557D01*
X139015373Y-74296037D01*
X139081558Y-74289518D01*
X139147740Y-74283000D01*
X139236260Y-74283000D01*
X139302442Y-74289518D01*
X139302442Y-74289518D01*
G37*
G36*
X169525054Y-74695067D02*
G01*
X169555386Y-74701100D01*
X169641102Y-74736605D01*
X169718245Y-74788150D01*
X169783850Y-74853755D01*
X169835395Y-74930898D01*
X169870900Y-75016614D01*
X169889000Y-75107611D01*
X169889000Y-75200389D01*
X169870900Y-75291386D01*
X169835395Y-75377102D01*
X169783850Y-75454245D01*
X169718245Y-75519850D01*
X169641102Y-75571395D01*
X169555386Y-75606900D01*
X169525054Y-75612933D01*
X169464391Y-75625000D01*
X169371609Y-75625000D01*
X169310946Y-75612933D01*
X169280614Y-75606900D01*
X169194898Y-75571395D01*
X169117755Y-75519850D01*
X169052150Y-75454245D01*
X169000605Y-75377102D01*
X168965100Y-75291386D01*
X168947000Y-75200389D01*
X168947000Y-75107611D01*
X168965100Y-75016614D01*
X169000605Y-74930898D01*
X169052150Y-74853755D01*
X169117755Y-74788150D01*
X169194898Y-74736605D01*
X169280614Y-74701100D01*
X169310946Y-74695067D01*
X169371609Y-74683000D01*
X169464391Y-74683000D01*
X169525054Y-74695067D01*
X169525054Y-74695067D01*
G37*
G36*
X170525054Y-74045067D02*
G01*
X170555386Y-74051100D01*
X170641102Y-74086605D01*
X170718245Y-74138150D01*
X170783850Y-74203755D01*
X170835395Y-74280898D01*
X170870900Y-74366614D01*
X170889000Y-74457611D01*
X170889000Y-74550389D01*
X170870900Y-74641386D01*
X170835395Y-74727102D01*
X170783850Y-74804245D01*
X170718245Y-74869850D01*
X170641102Y-74921395D01*
X170555386Y-74956900D01*
X170525054Y-74962933D01*
X170464391Y-74975000D01*
X170371609Y-74975000D01*
X170310946Y-74962933D01*
X170280614Y-74956900D01*
X170194898Y-74921395D01*
X170117755Y-74869850D01*
X170052150Y-74804245D01*
X170000605Y-74727102D01*
X169965100Y-74641386D01*
X169947000Y-74550389D01*
X169947000Y-74457611D01*
X169965100Y-74366614D01*
X170000605Y-74280898D01*
X170052150Y-74203755D01*
X170117755Y-74138150D01*
X170194898Y-74086605D01*
X170280614Y-74051100D01*
X170310946Y-74045067D01*
X170371609Y-74033000D01*
X170464391Y-74033000D01*
X170525054Y-74045067D01*
X170525054Y-74045067D01*
G37*
G36*
X169525054Y-73395067D02*
G01*
X169555386Y-73401100D01*
X169641102Y-73436605D01*
X169718245Y-73488150D01*
X169783850Y-73553755D01*
X169835395Y-73630898D01*
X169870900Y-73716614D01*
X169889000Y-73807611D01*
X169889000Y-73900389D01*
X169870900Y-73991386D01*
X169835395Y-74077102D01*
X169783850Y-74154245D01*
X169718245Y-74219850D01*
X169641102Y-74271395D01*
X169555386Y-74306900D01*
X169525054Y-74312933D01*
X169464391Y-74325000D01*
X169371609Y-74325000D01*
X169310946Y-74312933D01*
X169280614Y-74306900D01*
X169194898Y-74271395D01*
X169117755Y-74219850D01*
X169052150Y-74154245D01*
X169000605Y-74077102D01*
X168965100Y-73991386D01*
X168947000Y-73900389D01*
X168947000Y-73807611D01*
X168965100Y-73716614D01*
X169000605Y-73630898D01*
X169052150Y-73553755D01*
X169117755Y-73488150D01*
X169194898Y-73436605D01*
X169280614Y-73401100D01*
X169310946Y-73395067D01*
X169371609Y-73383000D01*
X169464391Y-73383000D01*
X169525054Y-73395067D01*
X169525054Y-73395067D01*
G37*
G36*
X120760443Y-72257519D02*
G01*
X120826627Y-72264037D01*
X120996466Y-72315557D01*
X121152991Y-72399222D01*
X121188729Y-72428552D01*
X121290186Y-72511814D01*
X121373448Y-72613271D01*
X121402778Y-72649009D01*
X121486443Y-72805534D01*
X121537963Y-72975373D01*
X121555359Y-73152000D01*
X121537963Y-73328627D01*
X121486443Y-73498466D01*
X121402778Y-73654991D01*
X121373448Y-73690729D01*
X121290186Y-73792186D01*
X121188729Y-73875448D01*
X121152991Y-73904778D01*
X120996466Y-73988443D01*
X120826627Y-74039963D01*
X120760442Y-74046482D01*
X120694260Y-74053000D01*
X120605740Y-74053000D01*
X120539558Y-74046482D01*
X120473373Y-74039963D01*
X120303534Y-73988443D01*
X120147009Y-73904778D01*
X120111271Y-73875448D01*
X120009814Y-73792186D01*
X119926552Y-73690729D01*
X119897222Y-73654991D01*
X119813557Y-73498466D01*
X119762037Y-73328627D01*
X119744641Y-73152000D01*
X119762037Y-72975373D01*
X119813557Y-72805534D01*
X119897222Y-72649009D01*
X119926552Y-72613271D01*
X120009814Y-72511814D01*
X120111271Y-72428552D01*
X120147009Y-72399222D01*
X120303534Y-72315557D01*
X120473373Y-72264037D01*
X120539557Y-72257519D01*
X120605740Y-72251000D01*
X120694260Y-72251000D01*
X120760443Y-72257519D01*
X120760443Y-72257519D01*
G37*
G36*
X132444443Y-72257519D02*
G01*
X132510627Y-72264037D01*
X132680466Y-72315557D01*
X132836991Y-72399222D01*
X132872729Y-72428552D01*
X132974186Y-72511814D01*
X133057448Y-72613271D01*
X133086778Y-72649009D01*
X133170443Y-72805534D01*
X133221963Y-72975373D01*
X133239359Y-73152000D01*
X133221963Y-73328627D01*
X133170443Y-73498466D01*
X133086778Y-73654991D01*
X133057448Y-73690729D01*
X132974186Y-73792186D01*
X132872729Y-73875448D01*
X132836991Y-73904778D01*
X132680466Y-73988443D01*
X132510627Y-74039963D01*
X132444442Y-74046482D01*
X132378260Y-74053000D01*
X132289740Y-74053000D01*
X132223558Y-74046482D01*
X132157373Y-74039963D01*
X131987534Y-73988443D01*
X131831009Y-73904778D01*
X131795271Y-73875448D01*
X131693814Y-73792186D01*
X131610552Y-73690729D01*
X131581222Y-73654991D01*
X131497557Y-73498466D01*
X131446037Y-73328627D01*
X131428641Y-73152000D01*
X131446037Y-72975373D01*
X131497557Y-72805534D01*
X131581222Y-72649009D01*
X131610552Y-72613271D01*
X131693814Y-72511814D01*
X131795271Y-72428552D01*
X131831009Y-72399222D01*
X131987534Y-72315557D01*
X132157373Y-72264037D01*
X132223557Y-72257519D01*
X132289740Y-72251000D01*
X132378260Y-72251000D01*
X132444443Y-72257519D01*
X132444443Y-72257519D01*
G37*
G36*
X125840443Y-72257519D02*
G01*
X125906627Y-72264037D01*
X126076466Y-72315557D01*
X126232991Y-72399222D01*
X126268729Y-72428552D01*
X126370186Y-72511814D01*
X126453448Y-72613271D01*
X126482778Y-72649009D01*
X126566443Y-72805534D01*
X126617963Y-72975373D01*
X126635359Y-73152000D01*
X126617963Y-73328627D01*
X126566443Y-73498466D01*
X126482778Y-73654991D01*
X126453448Y-73690729D01*
X126370186Y-73792186D01*
X126268729Y-73875448D01*
X126232991Y-73904778D01*
X126076466Y-73988443D01*
X125906627Y-74039963D01*
X125840442Y-74046482D01*
X125774260Y-74053000D01*
X125685740Y-74053000D01*
X125619558Y-74046482D01*
X125553373Y-74039963D01*
X125383534Y-73988443D01*
X125227009Y-73904778D01*
X125191271Y-73875448D01*
X125089814Y-73792186D01*
X125006552Y-73690729D01*
X124977222Y-73654991D01*
X124893557Y-73498466D01*
X124842037Y-73328627D01*
X124824641Y-73152000D01*
X124842037Y-72975373D01*
X124893557Y-72805534D01*
X124977222Y-72649009D01*
X125006552Y-72613271D01*
X125089814Y-72511814D01*
X125191271Y-72428552D01*
X125227009Y-72399222D01*
X125383534Y-72315557D01*
X125553373Y-72264037D01*
X125619557Y-72257519D01*
X125685740Y-72251000D01*
X125774260Y-72251000D01*
X125840443Y-72257519D01*
X125840443Y-72257519D01*
G37*
G36*
X123300443Y-72257519D02*
G01*
X123366627Y-72264037D01*
X123536466Y-72315557D01*
X123692991Y-72399222D01*
X123728729Y-72428552D01*
X123830186Y-72511814D01*
X123913448Y-72613271D01*
X123942778Y-72649009D01*
X124026443Y-72805534D01*
X124077963Y-72975373D01*
X124095359Y-73152000D01*
X124077963Y-73328627D01*
X124026443Y-73498466D01*
X123942778Y-73654991D01*
X123913448Y-73690729D01*
X123830186Y-73792186D01*
X123728729Y-73875448D01*
X123692991Y-73904778D01*
X123536466Y-73988443D01*
X123366627Y-74039963D01*
X123300442Y-74046482D01*
X123234260Y-74053000D01*
X123145740Y-74053000D01*
X123079558Y-74046482D01*
X123013373Y-74039963D01*
X122843534Y-73988443D01*
X122687009Y-73904778D01*
X122651271Y-73875448D01*
X122549814Y-73792186D01*
X122466552Y-73690729D01*
X122437222Y-73654991D01*
X122353557Y-73498466D01*
X122302037Y-73328627D01*
X122284641Y-73152000D01*
X122302037Y-72975373D01*
X122353557Y-72805534D01*
X122437222Y-72649009D01*
X122466552Y-72613271D01*
X122549814Y-72511814D01*
X122651271Y-72428552D01*
X122687009Y-72399222D01*
X122843534Y-72315557D01*
X123013373Y-72264037D01*
X123079557Y-72257519D01*
X123145740Y-72251000D01*
X123234260Y-72251000D01*
X123300443Y-72257519D01*
X123300443Y-72257519D01*
G37*
G36*
X118220443Y-72257519D02*
G01*
X118286627Y-72264037D01*
X118456466Y-72315557D01*
X118612991Y-72399222D01*
X118648729Y-72428552D01*
X118750186Y-72511814D01*
X118833448Y-72613271D01*
X118862778Y-72649009D01*
X118946443Y-72805534D01*
X118997963Y-72975373D01*
X119015359Y-73152000D01*
X118997963Y-73328627D01*
X118946443Y-73498466D01*
X118862778Y-73654991D01*
X118833448Y-73690729D01*
X118750186Y-73792186D01*
X118648729Y-73875448D01*
X118612991Y-73904778D01*
X118456466Y-73988443D01*
X118286627Y-74039963D01*
X118220442Y-74046482D01*
X118154260Y-74053000D01*
X118065740Y-74053000D01*
X117999558Y-74046482D01*
X117933373Y-74039963D01*
X117763534Y-73988443D01*
X117607009Y-73904778D01*
X117571271Y-73875448D01*
X117469814Y-73792186D01*
X117386552Y-73690729D01*
X117357222Y-73654991D01*
X117273557Y-73498466D01*
X117222037Y-73328627D01*
X117204641Y-73152000D01*
X117222037Y-72975373D01*
X117273557Y-72805534D01*
X117357222Y-72649009D01*
X117386552Y-72613271D01*
X117469814Y-72511814D01*
X117571271Y-72428552D01*
X117607009Y-72399222D01*
X117763534Y-72315557D01*
X117933373Y-72264037D01*
X117999557Y-72257519D01*
X118065740Y-72251000D01*
X118154260Y-72251000D01*
X118220443Y-72257519D01*
X118220443Y-72257519D01*
G37*
G36*
X116471000Y-74053000D02*
G01*
X114669000Y-74053000D01*
X114669000Y-72251000D01*
X116471000Y-72251000D01*
X116471000Y-74053000D01*
X116471000Y-74053000D01*
G37*
G36*
X134984443Y-72257519D02*
G01*
X135050627Y-72264037D01*
X135220466Y-72315557D01*
X135376991Y-72399222D01*
X135412729Y-72428552D01*
X135514186Y-72511814D01*
X135597448Y-72613271D01*
X135626778Y-72649009D01*
X135710443Y-72805534D01*
X135761963Y-72975373D01*
X135779359Y-73152000D01*
X135761963Y-73328627D01*
X135710443Y-73498466D01*
X135626778Y-73654991D01*
X135597448Y-73690729D01*
X135514186Y-73792186D01*
X135412729Y-73875448D01*
X135376991Y-73904778D01*
X135220466Y-73988443D01*
X135050627Y-74039963D01*
X134984442Y-74046482D01*
X134918260Y-74053000D01*
X134829740Y-74053000D01*
X134763558Y-74046482D01*
X134697373Y-74039963D01*
X134527534Y-73988443D01*
X134371009Y-73904778D01*
X134335271Y-73875448D01*
X134233814Y-73792186D01*
X134150552Y-73690729D01*
X134121222Y-73654991D01*
X134037557Y-73498466D01*
X133986037Y-73328627D01*
X133968641Y-73152000D01*
X133986037Y-72975373D01*
X134037557Y-72805534D01*
X134121222Y-72649009D01*
X134150552Y-72613271D01*
X134233814Y-72511814D01*
X134335271Y-72428552D01*
X134371009Y-72399222D01*
X134527534Y-72315557D01*
X134697373Y-72264037D01*
X134763557Y-72257519D01*
X134829740Y-72251000D01*
X134918260Y-72251000D01*
X134984443Y-72257519D01*
X134984443Y-72257519D01*
G37*
G36*
X149462442Y-71749518D02*
G01*
X149528627Y-71756037D01*
X149698466Y-71807557D01*
X149854991Y-71891222D01*
X149886658Y-71917211D01*
X149992186Y-72003814D01*
X150075448Y-72105271D01*
X150104778Y-72141009D01*
X150188443Y-72297534D01*
X150239963Y-72467373D01*
X150257359Y-72644000D01*
X150239963Y-72820627D01*
X150188443Y-72990466D01*
X150104778Y-73146991D01*
X150100667Y-73152000D01*
X149992186Y-73284186D01*
X149890729Y-73367448D01*
X149854991Y-73396778D01*
X149698466Y-73480443D01*
X149528627Y-73531963D01*
X149462442Y-73538482D01*
X149396260Y-73545000D01*
X149307740Y-73545000D01*
X149241558Y-73538482D01*
X149175373Y-73531963D01*
X149005534Y-73480443D01*
X148849009Y-73396778D01*
X148813271Y-73367448D01*
X148711814Y-73284186D01*
X148603333Y-73152000D01*
X148599222Y-73146991D01*
X148515557Y-72990466D01*
X148464037Y-72820627D01*
X148446641Y-72644000D01*
X148464037Y-72467373D01*
X148515557Y-72297534D01*
X148599222Y-72141009D01*
X148628552Y-72105271D01*
X148711814Y-72003814D01*
X148817342Y-71917211D01*
X148849009Y-71891222D01*
X149005534Y-71807557D01*
X149175373Y-71756037D01*
X149241558Y-71749518D01*
X149307740Y-71743000D01*
X149396260Y-71743000D01*
X149462442Y-71749518D01*
X149462442Y-71749518D01*
G37*
G36*
X152793000Y-73545000D02*
G01*
X150991000Y-73545000D01*
X150991000Y-71743000D01*
X152793000Y-71743000D01*
X152793000Y-73545000D01*
X152793000Y-73545000D01*
G37*
G36*
X146922442Y-71749518D02*
G01*
X146988627Y-71756037D01*
X147158466Y-71807557D01*
X147314991Y-71891222D01*
X147346658Y-71917211D01*
X147452186Y-72003814D01*
X147535448Y-72105271D01*
X147564778Y-72141009D01*
X147648443Y-72297534D01*
X147699963Y-72467373D01*
X147717359Y-72644000D01*
X147699963Y-72820627D01*
X147648443Y-72990466D01*
X147564778Y-73146991D01*
X147560667Y-73152000D01*
X147452186Y-73284186D01*
X147350729Y-73367448D01*
X147314991Y-73396778D01*
X147158466Y-73480443D01*
X146988627Y-73531963D01*
X146922442Y-73538482D01*
X146856260Y-73545000D01*
X146767740Y-73545000D01*
X146701558Y-73538482D01*
X146635373Y-73531963D01*
X146465534Y-73480443D01*
X146309009Y-73396778D01*
X146273271Y-73367448D01*
X146171814Y-73284186D01*
X146063333Y-73152000D01*
X146059222Y-73146991D01*
X145975557Y-72990466D01*
X145924037Y-72820627D01*
X145906641Y-72644000D01*
X145924037Y-72467373D01*
X145975557Y-72297534D01*
X146059222Y-72141009D01*
X146088552Y-72105271D01*
X146171814Y-72003814D01*
X146277342Y-71917211D01*
X146309009Y-71891222D01*
X146465534Y-71807557D01*
X146635373Y-71756037D01*
X146701558Y-71749518D01*
X146767740Y-71743000D01*
X146856260Y-71743000D01*
X146922442Y-71749518D01*
X146922442Y-71749518D01*
G37*
G36*
X139302442Y-71749518D02*
G01*
X139368627Y-71756037D01*
X139538466Y-71807557D01*
X139694991Y-71891222D01*
X139726658Y-71917211D01*
X139832186Y-72003814D01*
X139915448Y-72105271D01*
X139944778Y-72141009D01*
X140028443Y-72297534D01*
X140079963Y-72467373D01*
X140097359Y-72644000D01*
X140079963Y-72820627D01*
X140028443Y-72990466D01*
X139944778Y-73146991D01*
X139940667Y-73152000D01*
X139832186Y-73284186D01*
X139730729Y-73367448D01*
X139694991Y-73396778D01*
X139538466Y-73480443D01*
X139368627Y-73531963D01*
X139302442Y-73538482D01*
X139236260Y-73545000D01*
X139147740Y-73545000D01*
X139081558Y-73538482D01*
X139015373Y-73531963D01*
X138845534Y-73480443D01*
X138689009Y-73396778D01*
X138653271Y-73367448D01*
X138551814Y-73284186D01*
X138443333Y-73152000D01*
X138439222Y-73146991D01*
X138355557Y-72990466D01*
X138304037Y-72820627D01*
X138286641Y-72644000D01*
X138304037Y-72467373D01*
X138355557Y-72297534D01*
X138439222Y-72141009D01*
X138468552Y-72105271D01*
X138551814Y-72003814D01*
X138657342Y-71917211D01*
X138689009Y-71891222D01*
X138845534Y-71807557D01*
X139015373Y-71756037D01*
X139081558Y-71749518D01*
X139147740Y-71743000D01*
X139236260Y-71743000D01*
X139302442Y-71749518D01*
X139302442Y-71749518D01*
G37*
G36*
X170231312Y-71109887D02*
G01*
X170321039Y-71137106D01*
X170403731Y-71181306D01*
X170476211Y-71240789D01*
X170535694Y-71313269D01*
X170579894Y-71395961D01*
X170607113Y-71485688D01*
X170616303Y-71579000D01*
X170607113Y-71672312D01*
X170579894Y-71762039D01*
X170535694Y-71844731D01*
X170476211Y-71917211D01*
X170403731Y-71976694D01*
X170321039Y-72020894D01*
X170231312Y-72048113D01*
X170161384Y-72055000D01*
X169114616Y-72055000D01*
X169044688Y-72048113D01*
X168954961Y-72020894D01*
X168872269Y-71976694D01*
X168799789Y-71917211D01*
X168740306Y-71844731D01*
X168696106Y-71762039D01*
X168668887Y-71672312D01*
X168659697Y-71579000D01*
X168668887Y-71485688D01*
X168696106Y-71395961D01*
X168740306Y-71313269D01*
X168799789Y-71240789D01*
X168872269Y-71181306D01*
X168954961Y-71137106D01*
X169044688Y-71109887D01*
X169114616Y-71103000D01*
X170161384Y-71103000D01*
X170231312Y-71109887D01*
X170231312Y-71109887D01*
G37*
G36*
X134984442Y-69717518D02*
G01*
X135050627Y-69724037D01*
X135220466Y-69775557D01*
X135376991Y-69859222D01*
X135412729Y-69888552D01*
X135514186Y-69971814D01*
X135597448Y-70073271D01*
X135626778Y-70109009D01*
X135710443Y-70265534D01*
X135761963Y-70435373D01*
X135779359Y-70612000D01*
X135761963Y-70788627D01*
X135710443Y-70958466D01*
X135626778Y-71114991D01*
X135608627Y-71137108D01*
X135514186Y-71252186D01*
X135412729Y-71335448D01*
X135376991Y-71364778D01*
X135220466Y-71448443D01*
X135050627Y-71499963D01*
X134984443Y-71506481D01*
X134918260Y-71513000D01*
X134829740Y-71513000D01*
X134763557Y-71506481D01*
X134697373Y-71499963D01*
X134527534Y-71448443D01*
X134371009Y-71364778D01*
X134335271Y-71335448D01*
X134233814Y-71252186D01*
X134139373Y-71137108D01*
X134121222Y-71114991D01*
X134037557Y-70958466D01*
X133986037Y-70788627D01*
X133968641Y-70612000D01*
X133986037Y-70435373D01*
X134037557Y-70265534D01*
X134121222Y-70109009D01*
X134150552Y-70073271D01*
X134233814Y-69971814D01*
X134335271Y-69888552D01*
X134371009Y-69859222D01*
X134527534Y-69775557D01*
X134697373Y-69724037D01*
X134763558Y-69717518D01*
X134829740Y-69711000D01*
X134918260Y-69711000D01*
X134984442Y-69717518D01*
X134984442Y-69717518D01*
G37*
G36*
X133235000Y-71513000D02*
G01*
X131433000Y-71513000D01*
X131433000Y-69711000D01*
X133235000Y-69711000D01*
X133235000Y-71513000D01*
X133235000Y-71513000D01*
G37*
G36*
X140093000Y-71005000D02*
G01*
X138291000Y-71005000D01*
X138291000Y-69203000D01*
X140093000Y-69203000D01*
X140093000Y-71005000D01*
X140093000Y-71005000D01*
G37*
G36*
X149462443Y-69209519D02*
G01*
X149528627Y-69216037D01*
X149698466Y-69267557D01*
X149854991Y-69351222D01*
X149890729Y-69380552D01*
X149992186Y-69463814D01*
X150075448Y-69565271D01*
X150104778Y-69601009D01*
X150188443Y-69757534D01*
X150239963Y-69927373D01*
X150257359Y-70104000D01*
X150239963Y-70280627D01*
X150188443Y-70450466D01*
X150104778Y-70606991D01*
X150100667Y-70612000D01*
X149992186Y-70744186D01*
X149890729Y-70827448D01*
X149854991Y-70856778D01*
X149698466Y-70940443D01*
X149528627Y-70991963D01*
X149462443Y-70998481D01*
X149396260Y-71005000D01*
X149307740Y-71005000D01*
X149241557Y-70998481D01*
X149175373Y-70991963D01*
X149005534Y-70940443D01*
X148849009Y-70856778D01*
X148813271Y-70827448D01*
X148711814Y-70744186D01*
X148603333Y-70612000D01*
X148599222Y-70606991D01*
X148515557Y-70450466D01*
X148464037Y-70280627D01*
X148446641Y-70104000D01*
X148464037Y-69927373D01*
X148515557Y-69757534D01*
X148599222Y-69601009D01*
X148628552Y-69565271D01*
X148711814Y-69463814D01*
X148813271Y-69380552D01*
X148849009Y-69351222D01*
X149005534Y-69267557D01*
X149175373Y-69216037D01*
X149241557Y-69209519D01*
X149307740Y-69203000D01*
X149396260Y-69203000D01*
X149462443Y-69209519D01*
X149462443Y-69209519D01*
G37*
G36*
X146922443Y-69209519D02*
G01*
X146988627Y-69216037D01*
X147158466Y-69267557D01*
X147314991Y-69351222D01*
X147350729Y-69380552D01*
X147452186Y-69463814D01*
X147535448Y-69565271D01*
X147564778Y-69601009D01*
X147648443Y-69757534D01*
X147699963Y-69927373D01*
X147717359Y-70104000D01*
X147699963Y-70280627D01*
X147648443Y-70450466D01*
X147564778Y-70606991D01*
X147560667Y-70612000D01*
X147452186Y-70744186D01*
X147350729Y-70827448D01*
X147314991Y-70856778D01*
X147158466Y-70940443D01*
X146988627Y-70991963D01*
X146922443Y-70998481D01*
X146856260Y-71005000D01*
X146767740Y-71005000D01*
X146701557Y-70998481D01*
X146635373Y-70991963D01*
X146465534Y-70940443D01*
X146309009Y-70856778D01*
X146273271Y-70827448D01*
X146171814Y-70744186D01*
X146063333Y-70612000D01*
X146059222Y-70606991D01*
X145975557Y-70450466D01*
X145924037Y-70280627D01*
X145906641Y-70104000D01*
X145924037Y-69927373D01*
X145975557Y-69757534D01*
X146059222Y-69601009D01*
X146088552Y-69565271D01*
X146171814Y-69463814D01*
X146273271Y-69380552D01*
X146309009Y-69351222D01*
X146465534Y-69267557D01*
X146635373Y-69216037D01*
X146701557Y-69209519D01*
X146767740Y-69203000D01*
X146856260Y-69203000D01*
X146922443Y-69209519D01*
X146922443Y-69209519D01*
G37*
G36*
X165464443Y-69209519D02*
G01*
X165530627Y-69216037D01*
X165700466Y-69267557D01*
X165856991Y-69351222D01*
X165892729Y-69380552D01*
X165994186Y-69463814D01*
X166077448Y-69565271D01*
X166106778Y-69601009D01*
X166190443Y-69757534D01*
X166241963Y-69927373D01*
X166259359Y-70104000D01*
X166241963Y-70280627D01*
X166190443Y-70450466D01*
X166106778Y-70606991D01*
X166102667Y-70612000D01*
X165994186Y-70744186D01*
X165892729Y-70827448D01*
X165856991Y-70856778D01*
X165700466Y-70940443D01*
X165530627Y-70991963D01*
X165464443Y-70998481D01*
X165398260Y-71005000D01*
X165309740Y-71005000D01*
X165243557Y-70998481D01*
X165177373Y-70991963D01*
X165007534Y-70940443D01*
X164851009Y-70856778D01*
X164815271Y-70827448D01*
X164713814Y-70744186D01*
X164605333Y-70612000D01*
X164601222Y-70606991D01*
X164517557Y-70450466D01*
X164466037Y-70280627D01*
X164448641Y-70104000D01*
X164466037Y-69927373D01*
X164517557Y-69757534D01*
X164601222Y-69601009D01*
X164630552Y-69565271D01*
X164713814Y-69463814D01*
X164815271Y-69380552D01*
X164851009Y-69351222D01*
X165007534Y-69267557D01*
X165177373Y-69216037D01*
X165243557Y-69209519D01*
X165309740Y-69203000D01*
X165398260Y-69203000D01*
X165464443Y-69209519D01*
X165464443Y-69209519D01*
G37*
G36*
X152793000Y-71005000D02*
G01*
X150991000Y-71005000D01*
X150991000Y-69203000D01*
X152793000Y-69203000D01*
X152793000Y-71005000D01*
X152793000Y-71005000D01*
G37*
G36*
X166255000Y-68465000D02*
G01*
X164453000Y-68465000D01*
X164453000Y-66663000D01*
X166255000Y-66663000D01*
X166255000Y-68465000D01*
X166255000Y-68465000D01*
G37*
G36*
X158098443Y-66669519D02*
G01*
X158164627Y-66676037D01*
X158334466Y-66727557D01*
X158490991Y-66811222D01*
X158526729Y-66840552D01*
X158628186Y-66923814D01*
X158711448Y-67025271D01*
X158740778Y-67061009D01*
X158824443Y-67217534D01*
X158875963Y-67387373D01*
X158893359Y-67564000D01*
X158875963Y-67740627D01*
X158824443Y-67910466D01*
X158740778Y-68066991D01*
X158711448Y-68102729D01*
X158628186Y-68204186D01*
X158526729Y-68287448D01*
X158490991Y-68316778D01*
X158334466Y-68400443D01*
X158164627Y-68451963D01*
X158098442Y-68458482D01*
X158032260Y-68465000D01*
X157943740Y-68465000D01*
X157877558Y-68458482D01*
X157811373Y-68451963D01*
X157641534Y-68400443D01*
X157485009Y-68316778D01*
X157449271Y-68287448D01*
X157347814Y-68204186D01*
X157264552Y-68102729D01*
X157235222Y-68066991D01*
X157151557Y-67910466D01*
X157100037Y-67740627D01*
X157082641Y-67564000D01*
X157100037Y-67387373D01*
X157151557Y-67217534D01*
X157235222Y-67061009D01*
X157264552Y-67025271D01*
X157347814Y-66923814D01*
X157449271Y-66840552D01*
X157485009Y-66811222D01*
X157641534Y-66727557D01*
X157811373Y-66676037D01*
X157877557Y-66669519D01*
X157943740Y-66663000D01*
X158032260Y-66663000D01*
X158098443Y-66669519D01*
X158098443Y-66669519D01*
G37*
G36*
X161429000Y-68465000D02*
G01*
X159627000Y-68465000D01*
X159627000Y-66663000D01*
X161429000Y-66663000D01*
X161429000Y-68465000D01*
X161429000Y-68465000D01*
G37*
G36*
X155558443Y-66669519D02*
G01*
X155624627Y-66676037D01*
X155794466Y-66727557D01*
X155950991Y-66811222D01*
X155986729Y-66840552D01*
X156088186Y-66923814D01*
X156171448Y-67025271D01*
X156200778Y-67061009D01*
X156284443Y-67217534D01*
X156335963Y-67387373D01*
X156353359Y-67564000D01*
X156335963Y-67740627D01*
X156284443Y-67910466D01*
X156200778Y-68066991D01*
X156171448Y-68102729D01*
X156088186Y-68204186D01*
X155986729Y-68287448D01*
X155950991Y-68316778D01*
X155794466Y-68400443D01*
X155624627Y-68451963D01*
X155558442Y-68458482D01*
X155492260Y-68465000D01*
X155403740Y-68465000D01*
X155337558Y-68458482D01*
X155271373Y-68451963D01*
X155101534Y-68400443D01*
X154945009Y-68316778D01*
X154909271Y-68287448D01*
X154807814Y-68204186D01*
X154724552Y-68102729D01*
X154695222Y-68066991D01*
X154611557Y-67910466D01*
X154560037Y-67740627D01*
X154542641Y-67564000D01*
X154560037Y-67387373D01*
X154611557Y-67217534D01*
X154695222Y-67061009D01*
X154724552Y-67025271D01*
X154807814Y-66923814D01*
X154909271Y-66840552D01*
X154945009Y-66811222D01*
X155101534Y-66727557D01*
X155271373Y-66676037D01*
X155337557Y-66669519D01*
X155403740Y-66663000D01*
X155492260Y-66663000D01*
X155558443Y-66669519D01*
X155558443Y-66669519D01*
G37*
G36*
X111222549Y-66181116D02*
G01*
X111333734Y-66203232D01*
X111543203Y-66289997D01*
X111731720Y-66415960D01*
X111892040Y-66576280D01*
X112018003Y-66764797D01*
X112018004Y-66764799D01*
X112104768Y-66974267D01*
X112146082Y-67181963D01*
X112149000Y-67196636D01*
X112149000Y-67423364D01*
X112104768Y-67645734D01*
X112018003Y-67855203D01*
X111892040Y-68043720D01*
X111731720Y-68204040D01*
X111543203Y-68330003D01*
X111333734Y-68416768D01*
X111222549Y-68438884D01*
X111111365Y-68461000D01*
X110884635Y-68461000D01*
X110773451Y-68438884D01*
X110662266Y-68416768D01*
X110452797Y-68330003D01*
X110264280Y-68204040D01*
X110103960Y-68043720D01*
X109977997Y-67855203D01*
X109891232Y-67645734D01*
X109847000Y-67423364D01*
X109847000Y-67196636D01*
X109849919Y-67181963D01*
X109891232Y-66974267D01*
X109977996Y-66764799D01*
X109977997Y-66764797D01*
X110103960Y-66576280D01*
X110264280Y-66415960D01*
X110452797Y-66289997D01*
X110662266Y-66203232D01*
X110773451Y-66181116D01*
X110884635Y-66159000D01*
X111111365Y-66159000D01*
X111222549Y-66181116D01*
X111222549Y-66181116D01*
G37*
G36*
X170150549Y-66181116D02*
G01*
X170261734Y-66203232D01*
X170471203Y-66289997D01*
X170659720Y-66415960D01*
X170820040Y-66576280D01*
X170946003Y-66764797D01*
X170946004Y-66764799D01*
X171032768Y-66974267D01*
X171074082Y-67181963D01*
X171077000Y-67196636D01*
X171077000Y-67423364D01*
X171032768Y-67645734D01*
X170946003Y-67855203D01*
X170820040Y-68043720D01*
X170659720Y-68204040D01*
X170471203Y-68330003D01*
X170261734Y-68416768D01*
X170150549Y-68438884D01*
X170039365Y-68461000D01*
X169812635Y-68461000D01*
X169701451Y-68438884D01*
X169590266Y-68416768D01*
X169380797Y-68330003D01*
X169192280Y-68204040D01*
X169031960Y-68043720D01*
X168905997Y-67855203D01*
X168819232Y-67645734D01*
X168775000Y-67423364D01*
X168775000Y-67196636D01*
X168777919Y-67181963D01*
X168819232Y-66974267D01*
X168905996Y-66764799D01*
X168905997Y-66764797D01*
X169031960Y-66576280D01*
X169192280Y-66415960D01*
X169380797Y-66289997D01*
X169590266Y-66203232D01*
X169701451Y-66181116D01*
X169812635Y-66159000D01*
X170039365Y-66159000D01*
X170150549Y-66181116D01*
X170150549Y-66181116D01*
G37*
G36*
X120760443Y-65399519D02*
G01*
X120826627Y-65406037D01*
X120996466Y-65457557D01*
X121152991Y-65541222D01*
X121188729Y-65570552D01*
X121290186Y-65653814D01*
X121373448Y-65755271D01*
X121402778Y-65791009D01*
X121486443Y-65947534D01*
X121537963Y-66117373D01*
X121555359Y-66294000D01*
X121537963Y-66470627D01*
X121486443Y-66640466D01*
X121402778Y-66796991D01*
X121373448Y-66832729D01*
X121290186Y-66934186D01*
X121188729Y-67017448D01*
X121152991Y-67046778D01*
X120996466Y-67130443D01*
X120826627Y-67181963D01*
X120760442Y-67188482D01*
X120694260Y-67195000D01*
X120605740Y-67195000D01*
X120539558Y-67188482D01*
X120473373Y-67181963D01*
X120303534Y-67130443D01*
X120147009Y-67046778D01*
X120111271Y-67017448D01*
X120009814Y-66934186D01*
X119926552Y-66832729D01*
X119897222Y-66796991D01*
X119813557Y-66640466D01*
X119762037Y-66470627D01*
X119744641Y-66294000D01*
X119762037Y-66117373D01*
X119813557Y-65947534D01*
X119897222Y-65791009D01*
X119926552Y-65755271D01*
X120009814Y-65653814D01*
X120111271Y-65570552D01*
X120147009Y-65541222D01*
X120303534Y-65457557D01*
X120473373Y-65406037D01*
X120539557Y-65399519D01*
X120605740Y-65393000D01*
X120694260Y-65393000D01*
X120760443Y-65399519D01*
X120760443Y-65399519D01*
G37*
G36*
X115680443Y-65399519D02*
G01*
X115746627Y-65406037D01*
X115916466Y-65457557D01*
X116072991Y-65541222D01*
X116108729Y-65570552D01*
X116210186Y-65653814D01*
X116293448Y-65755271D01*
X116322778Y-65791009D01*
X116406443Y-65947534D01*
X116457963Y-66117373D01*
X116475359Y-66294000D01*
X116457963Y-66470627D01*
X116406443Y-66640466D01*
X116322778Y-66796991D01*
X116293448Y-66832729D01*
X116210186Y-66934186D01*
X116108729Y-67017448D01*
X116072991Y-67046778D01*
X115916466Y-67130443D01*
X115746627Y-67181963D01*
X115680442Y-67188482D01*
X115614260Y-67195000D01*
X115525740Y-67195000D01*
X115459558Y-67188482D01*
X115393373Y-67181963D01*
X115223534Y-67130443D01*
X115067009Y-67046778D01*
X115031271Y-67017448D01*
X114929814Y-66934186D01*
X114846552Y-66832729D01*
X114817222Y-66796991D01*
X114733557Y-66640466D01*
X114682037Y-66470627D01*
X114664641Y-66294000D01*
X114682037Y-66117373D01*
X114733557Y-65947534D01*
X114817222Y-65791009D01*
X114846552Y-65755271D01*
X114929814Y-65653814D01*
X115031271Y-65570552D01*
X115067009Y-65541222D01*
X115223534Y-65457557D01*
X115393373Y-65406037D01*
X115459557Y-65399519D01*
X115525740Y-65393000D01*
X115614260Y-65393000D01*
X115680443Y-65399519D01*
X115680443Y-65399519D01*
G37*
G36*
X118220443Y-65399519D02*
G01*
X118286627Y-65406037D01*
X118456466Y-65457557D01*
X118612991Y-65541222D01*
X118648729Y-65570552D01*
X118750186Y-65653814D01*
X118833448Y-65755271D01*
X118862778Y-65791009D01*
X118946443Y-65947534D01*
X118997963Y-66117373D01*
X119015359Y-66294000D01*
X118997963Y-66470627D01*
X118946443Y-66640466D01*
X118862778Y-66796991D01*
X118833448Y-66832729D01*
X118750186Y-66934186D01*
X118648729Y-67017448D01*
X118612991Y-67046778D01*
X118456466Y-67130443D01*
X118286627Y-67181963D01*
X118220442Y-67188482D01*
X118154260Y-67195000D01*
X118065740Y-67195000D01*
X117999558Y-67188482D01*
X117933373Y-67181963D01*
X117763534Y-67130443D01*
X117607009Y-67046778D01*
X117571271Y-67017448D01*
X117469814Y-66934186D01*
X117386552Y-66832729D01*
X117357222Y-66796991D01*
X117273557Y-66640466D01*
X117222037Y-66470627D01*
X117204641Y-66294000D01*
X117222037Y-66117373D01*
X117273557Y-65947534D01*
X117357222Y-65791009D01*
X117386552Y-65755271D01*
X117469814Y-65653814D01*
X117571271Y-65570552D01*
X117607009Y-65541222D01*
X117763534Y-65457557D01*
X117933373Y-65406037D01*
X117999557Y-65399519D01*
X118065740Y-65393000D01*
X118154260Y-65393000D01*
X118220443Y-65399519D01*
X118220443Y-65399519D01*
G37*
G36*
X123300443Y-65399519D02*
G01*
X123366627Y-65406037D01*
X123536466Y-65457557D01*
X123692991Y-65541222D01*
X123728729Y-65570552D01*
X123830186Y-65653814D01*
X123913448Y-65755271D01*
X123942778Y-65791009D01*
X124026443Y-65947534D01*
X124077963Y-66117373D01*
X124095359Y-66294000D01*
X124077963Y-66470627D01*
X124026443Y-66640466D01*
X123942778Y-66796991D01*
X123913448Y-66832729D01*
X123830186Y-66934186D01*
X123728729Y-67017448D01*
X123692991Y-67046778D01*
X123536466Y-67130443D01*
X123366627Y-67181963D01*
X123300442Y-67188482D01*
X123234260Y-67195000D01*
X123145740Y-67195000D01*
X123079558Y-67188482D01*
X123013373Y-67181963D01*
X122843534Y-67130443D01*
X122687009Y-67046778D01*
X122651271Y-67017448D01*
X122549814Y-66934186D01*
X122466552Y-66832729D01*
X122437222Y-66796991D01*
X122353557Y-66640466D01*
X122302037Y-66470627D01*
X122284641Y-66294000D01*
X122302037Y-66117373D01*
X122353557Y-65947534D01*
X122437222Y-65791009D01*
X122466552Y-65755271D01*
X122549814Y-65653814D01*
X122651271Y-65570552D01*
X122687009Y-65541222D01*
X122843534Y-65457557D01*
X123013373Y-65406037D01*
X123079557Y-65399519D01*
X123145740Y-65393000D01*
X123234260Y-65393000D01*
X123300443Y-65399519D01*
X123300443Y-65399519D01*
G37*
G36*
X125840443Y-65399519D02*
G01*
X125906627Y-65406037D01*
X126076466Y-65457557D01*
X126232991Y-65541222D01*
X126268729Y-65570552D01*
X126370186Y-65653814D01*
X126453448Y-65755271D01*
X126482778Y-65791009D01*
X126566443Y-65947534D01*
X126617963Y-66117373D01*
X126635359Y-66294000D01*
X126617963Y-66470627D01*
X126566443Y-66640466D01*
X126482778Y-66796991D01*
X126453448Y-66832729D01*
X126370186Y-66934186D01*
X126268729Y-67017448D01*
X126232991Y-67046778D01*
X126076466Y-67130443D01*
X125906627Y-67181963D01*
X125840442Y-67188482D01*
X125774260Y-67195000D01*
X125685740Y-67195000D01*
X125619558Y-67188482D01*
X125553373Y-67181963D01*
X125383534Y-67130443D01*
X125227009Y-67046778D01*
X125191271Y-67017448D01*
X125089814Y-66934186D01*
X125006552Y-66832729D01*
X124977222Y-66796991D01*
X124893557Y-66640466D01*
X124842037Y-66470627D01*
X124824641Y-66294000D01*
X124842037Y-66117373D01*
X124893557Y-65947534D01*
X124977222Y-65791009D01*
X125006552Y-65755271D01*
X125089814Y-65653814D01*
X125191271Y-65570552D01*
X125227009Y-65541222D01*
X125383534Y-65457557D01*
X125553373Y-65406037D01*
X125619557Y-65399519D01*
X125685740Y-65393000D01*
X125774260Y-65393000D01*
X125840443Y-65399519D01*
X125840443Y-65399519D01*
G37*
G36*
X129171000Y-67195000D02*
G01*
X127369000Y-67195000D01*
X127369000Y-65393000D01*
X129171000Y-65393000D01*
X129171000Y-67195000D01*
X129171000Y-67195000D01*
G37*
M02*
