M48
; DRILL file {KiCad (5.1.2)-1} date 27/03/2021 08:32:16
; FORMAT={-:-/ absolute / inch / decimal}
; #@! TF.CreationDate,2021-03-27T08:32:16+00:00
; #@! TF.GenerationSoftware,Kicad,Pcbnew,(5.1.2)-1
; #@! TF.FileFunction,Plated,1,2,PTH
FMAT,2
INCH
T1C0.0138
T2C0.0157
T3C0.0173
T4C0.0276
T5C0.0315
T6C0.0320
T7C0.0354
T8C0.0394
%
G90
G05
T2
X5.01Y-2.72
X5.07Y-2.91
X5.07Y-3.06
X5.26Y-2.67
X5.51Y-4.28
X5.91Y-3.03
T3
X6.67Y-2.9076
X6.67Y-2.9588
X6.67Y-3.01
X6.7094Y-2.9332
X6.7094Y-2.9844
T4
X4.5Y-4.36
X4.5Y-4.56
X4.48Y-4.0
X4.48Y-4.1008
T5
X4.67Y-3.26
X5.07Y-3.26
X4.61Y-4.39
X5.01Y-4.39
X4.61Y-4.53
X5.01Y-4.53
X4.67Y-3.38
X5.07Y-3.38
X4.8131Y-4.67
X5.01Y-4.67
X5.5Y-4.48
X5.9Y-4.48
X4.67Y-3.5
X5.07Y-3.5
X5.5Y-4.38
X5.9Y-4.38
X4.8131Y-4.25
X5.01Y-4.25
X4.65Y-4.12
X5.05Y-4.12
X4.65Y-3.98
X5.05Y-3.98
X5.5Y-4.61
X5.9Y-4.61
T7
X6.59Y-4.43
X6.69Y-4.43
X6.05Y-4.43
X6.15Y-4.43
X4.49Y-3.225
X4.49Y-3.325
X4.49Y-3.425
X4.49Y-3.525
X6.32Y-4.43
X6.42Y-4.43
T8
X5.78Y-2.86
X5.88Y-2.86
X5.98Y-2.86
X5.54Y-3.39
X5.64Y-3.39
X5.74Y-3.39
X5.53Y-4.05
X5.7859Y-4.05
X5.48Y-2.76
X5.48Y-2.86
X5.48Y-2.96
X5.48Y-3.06
X4.55Y-2.88
X4.65Y-2.88
X4.75Y-2.88
X4.85Y-2.88
X4.95Y-2.88
X4.43Y-3.7
X4.53Y-3.7
X4.63Y-3.7
X4.73Y-3.7
X4.83Y-3.7
X4.93Y-3.7
X5.03Y-3.7
X6.64Y-3.6716
X6.64Y-3.77
X5.78Y-2.76
X5.88Y-2.76
X5.98Y-2.76
X6.51Y-2.66
X6.51Y-2.76
X6.12Y-2.66
X6.22Y-2.66
X6.32Y-2.66
X4.55Y-2.98
X4.65Y-2.98
X4.75Y-2.98
X4.85Y-2.98
X4.95Y-2.98
X5.54Y-3.58
X5.64Y-3.58
X5.74Y-3.58
X4.55Y-3.08
X4.65Y-3.08
X4.75Y-3.08
X4.85Y-3.08
X4.95Y-3.08
X4.55Y-2.61
X4.65Y-2.61
X4.75Y-2.61
X4.85Y-2.61
X4.95Y-2.61
X5.05Y-2.61
X6.64Y-4.0116
X6.64Y-4.11
X5.21Y-2.78
X5.21Y-2.88
X5.21Y-2.98
X5.21Y-3.08
X5.21Y-3.18
X5.21Y-3.28
X5.21Y-3.38
X5.21Y-3.48
X5.21Y-3.58
X5.21Y-3.68
X5.21Y-3.78
X5.21Y-3.88
X5.21Y-3.98
X5.21Y-4.08
X5.21Y-4.18
X5.21Y-4.28
X5.21Y-4.38
X5.21Y-4.48
X5.21Y-4.58
X5.21Y-4.68
X5.31Y-2.78
X5.31Y-2.88
X5.31Y-2.98
X5.31Y-3.08
X5.31Y-3.18
X5.31Y-3.28
X5.31Y-3.38
X5.31Y-3.48
X5.31Y-3.58
X5.31Y-3.68
X5.31Y-3.78
X5.31Y-3.88
X5.31Y-3.98
X5.31Y-4.08
X5.31Y-4.18
X5.31Y-4.28
X5.31Y-4.38
X5.31Y-4.48
X5.31Y-4.58
X5.31Y-4.68
X6.64Y-3.3316
X6.64Y-3.43
T1
G00X6.659Y-2.8181
M15
G01X6.6983Y-2.8181
M16
G05
G00X6.659Y-3.0996
M15
G01X6.6983Y-3.0996
M16
G05
T6
G00X6.121Y-3.05
M15
G01X6.1053Y-3.05
M16
G05
G00X6.121Y-3.5421
M15
G01X6.1053Y-3.5421
M16
G05
G00X6.3179Y-3.05
M15
G01X6.3021Y-3.05
M16
G05
G00X6.3179Y-3.5421
M15
G01X6.3021Y-3.5421
M16
G05
G00X6.121Y-3.7
M15
G01X6.1053Y-3.7
M16
G05
G00X6.121Y-4.1921
M15
G01X6.1053Y-4.1921
M16
G05
G00X6.3179Y-3.7
M15
G01X6.3021Y-3.7
M16
G05
G00X6.3179Y-4.1921
M15
G01X6.3021Y-4.1921
M16
G05
T0
M30
