G04 #@! TF.GenerationSoftware,KiCad,Pcbnew,(5.1.2)-1*
G04 #@! TF.CreationDate,2021-03-27T08:32:09+00:00*
G04 #@! TF.ProjectId,RPI_PCB05,5250495f-6b69-4747-935f-50434230352e,rev?*
G04 #@! TF.SameCoordinates,Original*
G04 #@! TF.FileFunction,Copper,L1,Top*
G04 #@! TF.FilePolarity,Positive*
%FSLAX46Y46*%
G04 Gerber Fmt 4.6, Leading zero omitted, Abs format (unit mm)*
G04 Created by KiCad (PCBNEW (5.1.2)-1) date 2021-03-27 08:32:09*
%MOMM*%
%LPD*%
G04 APERTURE LIST*
%ADD10R,1.800000X1.070000*%
%ADD11O,1.800000X1.070000*%
%ADD12R,1.700000X1.700000*%
%ADD13O,1.700000X1.700000*%
%ADD14R,1.600000X1.600000*%
%ADD15C,1.600000*%
%ADD16C,1.800000*%
%ADD17R,1.800000X1.800000*%
%ADD18O,2.000000X1.700000*%
%ADD19C,0.150000*%
%ADD20C,1.700000*%
%ADD21C,1.400000*%
%ADD22O,1.600000X1.600000*%
%ADD23O,1.727200X3.048000*%
%ADD24O,1.400000X1.400000*%
%ADD25R,0.840000X0.840000*%
%ADD26C,0.840000*%
%ADD27O,1.850000X0.850000*%
%ADD28C,0.800000*%
%ADD29C,0.250000*%
%ADD30C,0.750000*%
%ADD31C,0.500000*%
G04 APERTURE END LIST*
D10*
X114046000Y-89535000D03*
D11*
X114046000Y-86995000D03*
X114046000Y-84455000D03*
X114046000Y-81915000D03*
D12*
X132334000Y-70612000D03*
D13*
X134874000Y-70612000D03*
X132334000Y-73152000D03*
X134874000Y-73152000D03*
X132334000Y-75692000D03*
X134874000Y-75692000D03*
X132334000Y-78232000D03*
X134874000Y-78232000D03*
X132334000Y-80772000D03*
X134874000Y-80772000D03*
X132334000Y-83312000D03*
X134874000Y-83312000D03*
X132334000Y-85852000D03*
X134874000Y-85852000D03*
X132334000Y-88392000D03*
X134874000Y-88392000D03*
X132334000Y-90932000D03*
X134874000Y-90932000D03*
X132334000Y-93472000D03*
X134874000Y-93472000D03*
X132334000Y-96012000D03*
X134874000Y-96012000D03*
X132334000Y-98552000D03*
X134874000Y-98552000D03*
X132334000Y-101092000D03*
X134874000Y-101092000D03*
X132334000Y-103632000D03*
X134874000Y-103632000D03*
X132334000Y-106172000D03*
X134874000Y-106172000D03*
X132334000Y-108712000D03*
X134874000Y-108712000D03*
X132334000Y-111252000D03*
X134874000Y-111252000D03*
X132334000Y-113792000D03*
X134874000Y-113792000D03*
X132334000Y-116332000D03*
X134874000Y-116332000D03*
X132334000Y-118872000D03*
X134874000Y-118872000D03*
D14*
X140462000Y-102870000D03*
D15*
X146962000Y-102870000D03*
X122254000Y-107950000D03*
X127254000Y-107950000D03*
X127254000Y-118618000D03*
X122254000Y-118618000D03*
D16*
X160528000Y-112522000D03*
D17*
X163068000Y-112522000D03*
D13*
X125730000Y-75692000D03*
X123190000Y-75692000D03*
X120650000Y-75692000D03*
X118110000Y-75692000D03*
D12*
X115570000Y-75692000D03*
X115570000Y-73152000D03*
D13*
X118110000Y-73152000D03*
X120650000Y-73152000D03*
X123190000Y-73152000D03*
X125730000Y-73152000D03*
X125730000Y-78232000D03*
X123190000Y-78232000D03*
X120650000Y-78232000D03*
X118110000Y-78232000D03*
D12*
X115570000Y-78232000D03*
X151892000Y-72644000D03*
D13*
X149352000Y-72644000D03*
X146812000Y-72644000D03*
X146812000Y-70104000D03*
X149352000Y-70104000D03*
D12*
X151892000Y-70104000D03*
X128270000Y-66294000D03*
D13*
X125730000Y-66294000D03*
X123190000Y-66294000D03*
X120650000Y-66294000D03*
X118110000Y-66294000D03*
X115570000Y-66294000D03*
D12*
X160528000Y-67564000D03*
D13*
X157988000Y-67564000D03*
X155448000Y-67564000D03*
X140716000Y-86106000D03*
X143256000Y-86106000D03*
D12*
X145796000Y-86106000D03*
X145796000Y-90932000D03*
D13*
X143256000Y-90932000D03*
X140716000Y-90932000D03*
D18*
X168656000Y-84622000D03*
D19*
G36*
X169430504Y-86273204D02*
G01*
X169454773Y-86276804D01*
X169478571Y-86282765D01*
X169501671Y-86291030D01*
X169523849Y-86301520D01*
X169544893Y-86314133D01*
X169564598Y-86328747D01*
X169582777Y-86345223D01*
X169599253Y-86363402D01*
X169613867Y-86383107D01*
X169626480Y-86404151D01*
X169636970Y-86426329D01*
X169645235Y-86449429D01*
X169651196Y-86473227D01*
X169654796Y-86497496D01*
X169656000Y-86522000D01*
X169656000Y-87722000D01*
X169654796Y-87746504D01*
X169651196Y-87770773D01*
X169645235Y-87794571D01*
X169636970Y-87817671D01*
X169626480Y-87839849D01*
X169613867Y-87860893D01*
X169599253Y-87880598D01*
X169582777Y-87898777D01*
X169564598Y-87915253D01*
X169544893Y-87929867D01*
X169523849Y-87942480D01*
X169501671Y-87952970D01*
X169478571Y-87961235D01*
X169454773Y-87967196D01*
X169430504Y-87970796D01*
X169406000Y-87972000D01*
X167906000Y-87972000D01*
X167881496Y-87970796D01*
X167857227Y-87967196D01*
X167833429Y-87961235D01*
X167810329Y-87952970D01*
X167788151Y-87942480D01*
X167767107Y-87929867D01*
X167747402Y-87915253D01*
X167729223Y-87898777D01*
X167712747Y-87880598D01*
X167698133Y-87860893D01*
X167685520Y-87839849D01*
X167675030Y-87817671D01*
X167666765Y-87794571D01*
X167660804Y-87770773D01*
X167657204Y-87746504D01*
X167656000Y-87722000D01*
X167656000Y-86522000D01*
X167657204Y-86497496D01*
X167660804Y-86473227D01*
X167666765Y-86449429D01*
X167675030Y-86426329D01*
X167685520Y-86404151D01*
X167698133Y-86383107D01*
X167712747Y-86363402D01*
X167729223Y-86345223D01*
X167747402Y-86328747D01*
X167767107Y-86314133D01*
X167788151Y-86301520D01*
X167810329Y-86291030D01*
X167833429Y-86282765D01*
X167857227Y-86276804D01*
X167881496Y-86273204D01*
X167906000Y-86272000D01*
X169406000Y-86272000D01*
X169430504Y-86273204D01*
X169430504Y-86273204D01*
G37*
D20*
X168656000Y-87122000D03*
D19*
G36*
X169430504Y-94909204D02*
G01*
X169454773Y-94912804D01*
X169478571Y-94918765D01*
X169501671Y-94927030D01*
X169523849Y-94937520D01*
X169544893Y-94950133D01*
X169564598Y-94964747D01*
X169582777Y-94981223D01*
X169599253Y-94999402D01*
X169613867Y-95019107D01*
X169626480Y-95040151D01*
X169636970Y-95062329D01*
X169645235Y-95085429D01*
X169651196Y-95109227D01*
X169654796Y-95133496D01*
X169656000Y-95158000D01*
X169656000Y-96358000D01*
X169654796Y-96382504D01*
X169651196Y-96406773D01*
X169645235Y-96430571D01*
X169636970Y-96453671D01*
X169626480Y-96475849D01*
X169613867Y-96496893D01*
X169599253Y-96516598D01*
X169582777Y-96534777D01*
X169564598Y-96551253D01*
X169544893Y-96565867D01*
X169523849Y-96578480D01*
X169501671Y-96588970D01*
X169478571Y-96597235D01*
X169454773Y-96603196D01*
X169430504Y-96606796D01*
X169406000Y-96608000D01*
X167906000Y-96608000D01*
X167881496Y-96606796D01*
X167857227Y-96603196D01*
X167833429Y-96597235D01*
X167810329Y-96588970D01*
X167788151Y-96578480D01*
X167767107Y-96565867D01*
X167747402Y-96551253D01*
X167729223Y-96534777D01*
X167712747Y-96516598D01*
X167698133Y-96496893D01*
X167685520Y-96475849D01*
X167675030Y-96453671D01*
X167666765Y-96430571D01*
X167660804Y-96406773D01*
X167657204Y-96382504D01*
X167656000Y-96358000D01*
X167656000Y-95158000D01*
X167657204Y-95133496D01*
X167660804Y-95109227D01*
X167666765Y-95085429D01*
X167675030Y-95062329D01*
X167685520Y-95040151D01*
X167698133Y-95019107D01*
X167712747Y-94999402D01*
X167729223Y-94981223D01*
X167747402Y-94964747D01*
X167767107Y-94950133D01*
X167788151Y-94937520D01*
X167810329Y-94927030D01*
X167833429Y-94918765D01*
X167857227Y-94912804D01*
X167881496Y-94909204D01*
X167906000Y-94908000D01*
X169406000Y-94908000D01*
X169430504Y-94909204D01*
X169430504Y-94909204D01*
G37*
D20*
X168656000Y-95758000D03*
D18*
X168656000Y-93258000D03*
X168656000Y-101894000D03*
D19*
G36*
X169430504Y-103545204D02*
G01*
X169454773Y-103548804D01*
X169478571Y-103554765D01*
X169501671Y-103563030D01*
X169523849Y-103573520D01*
X169544893Y-103586133D01*
X169564598Y-103600747D01*
X169582777Y-103617223D01*
X169599253Y-103635402D01*
X169613867Y-103655107D01*
X169626480Y-103676151D01*
X169636970Y-103698329D01*
X169645235Y-103721429D01*
X169651196Y-103745227D01*
X169654796Y-103769496D01*
X169656000Y-103794000D01*
X169656000Y-104994000D01*
X169654796Y-105018504D01*
X169651196Y-105042773D01*
X169645235Y-105066571D01*
X169636970Y-105089671D01*
X169626480Y-105111849D01*
X169613867Y-105132893D01*
X169599253Y-105152598D01*
X169582777Y-105170777D01*
X169564598Y-105187253D01*
X169544893Y-105201867D01*
X169523849Y-105214480D01*
X169501671Y-105224970D01*
X169478571Y-105233235D01*
X169454773Y-105239196D01*
X169430504Y-105242796D01*
X169406000Y-105244000D01*
X167906000Y-105244000D01*
X167881496Y-105242796D01*
X167857227Y-105239196D01*
X167833429Y-105233235D01*
X167810329Y-105224970D01*
X167788151Y-105214480D01*
X167767107Y-105201867D01*
X167747402Y-105187253D01*
X167729223Y-105170777D01*
X167712747Y-105152598D01*
X167698133Y-105132893D01*
X167685520Y-105111849D01*
X167675030Y-105089671D01*
X167666765Y-105066571D01*
X167660804Y-105042773D01*
X167657204Y-105018504D01*
X167656000Y-104994000D01*
X167656000Y-103794000D01*
X167657204Y-103769496D01*
X167660804Y-103745227D01*
X167666765Y-103721429D01*
X167675030Y-103698329D01*
X167685520Y-103676151D01*
X167698133Y-103655107D01*
X167712747Y-103635402D01*
X167729223Y-103617223D01*
X167747402Y-103600747D01*
X167767107Y-103586133D01*
X167788151Y-103573520D01*
X167810329Y-103563030D01*
X167833429Y-103554765D01*
X167857227Y-103548804D01*
X167881496Y-103545204D01*
X167906000Y-103544000D01*
X169406000Y-103544000D01*
X169430504Y-103545204D01*
X169430504Y-103545204D01*
G37*
D20*
X168656000Y-104394000D03*
D21*
X113792000Y-104160000D03*
D19*
G36*
X114267226Y-100901200D02*
G01*
X114291417Y-100904788D01*
X114315139Y-100910730D01*
X114338165Y-100918969D01*
X114360272Y-100929425D01*
X114381248Y-100941998D01*
X114400891Y-100956566D01*
X114419011Y-100972989D01*
X114435434Y-100991109D01*
X114450002Y-101010752D01*
X114462575Y-101031728D01*
X114473031Y-101053835D01*
X114481270Y-101076861D01*
X114487212Y-101100583D01*
X114490800Y-101124774D01*
X114492000Y-101149200D01*
X114492000Y-102050800D01*
X114490800Y-102075226D01*
X114487212Y-102099417D01*
X114481270Y-102123139D01*
X114473031Y-102146165D01*
X114462575Y-102168272D01*
X114450002Y-102189248D01*
X114435434Y-102208891D01*
X114419011Y-102227011D01*
X114400891Y-102243434D01*
X114381248Y-102258002D01*
X114360272Y-102270575D01*
X114338165Y-102281031D01*
X114315139Y-102289270D01*
X114291417Y-102295212D01*
X114267226Y-102298800D01*
X114242800Y-102300000D01*
X113341200Y-102300000D01*
X113316774Y-102298800D01*
X113292583Y-102295212D01*
X113268861Y-102289270D01*
X113245835Y-102281031D01*
X113223728Y-102270575D01*
X113202752Y-102258002D01*
X113183109Y-102243434D01*
X113164989Y-102227011D01*
X113148566Y-102208891D01*
X113133998Y-102189248D01*
X113121425Y-102168272D01*
X113110969Y-102146165D01*
X113102730Y-102123139D01*
X113096788Y-102099417D01*
X113093200Y-102075226D01*
X113092000Y-102050800D01*
X113092000Y-101149200D01*
X113093200Y-101124774D01*
X113096788Y-101100583D01*
X113102730Y-101076861D01*
X113110969Y-101053835D01*
X113121425Y-101031728D01*
X113133998Y-101010752D01*
X113148566Y-100991109D01*
X113164989Y-100972989D01*
X113183109Y-100956566D01*
X113202752Y-100941998D01*
X113223728Y-100929425D01*
X113245835Y-100918969D01*
X113268861Y-100910730D01*
X113292583Y-100904788D01*
X113316774Y-100901200D01*
X113341200Y-100900000D01*
X114242800Y-100900000D01*
X114267226Y-100901200D01*
X114267226Y-100901200D01*
G37*
D21*
X113792000Y-101600000D03*
D15*
X128778000Y-82804000D03*
D22*
X118618000Y-82804000D03*
X118618000Y-85852000D03*
D15*
X128778000Y-85852000D03*
X139700000Y-111252000D03*
D22*
X149860000Y-111252000D03*
X149860000Y-113792000D03*
D15*
X139700000Y-113792000D03*
X128270000Y-101092000D03*
D22*
X118110000Y-101092000D03*
D15*
X128270000Y-104648000D03*
D22*
X118110000Y-104648000D03*
D15*
X127254000Y-111506000D03*
D22*
X117094000Y-111506000D03*
X117094000Y-115062000D03*
D15*
X127254000Y-115062000D03*
D17*
X156210000Y-112522000D03*
D16*
X153670000Y-112522000D03*
D23*
X155274000Y-77470000D03*
X160274000Y-77470000D03*
X155274000Y-89970000D03*
X160274000Y-89970000D03*
X160274000Y-106480000D03*
X155274000Y-106480000D03*
X160274000Y-93980000D03*
X155274000Y-93980000D03*
D21*
X114300000Y-110744000D03*
D24*
X114300000Y-115824000D03*
D15*
X128778000Y-88900000D03*
D22*
X118618000Y-88900000D03*
D12*
X139192000Y-70104000D03*
D13*
X139192000Y-72644000D03*
X139192000Y-75184000D03*
X139192000Y-77724000D03*
D15*
X139700000Y-117094000D03*
D22*
X149860000Y-117094000D03*
D17*
X169926000Y-112522000D03*
D16*
X167386000Y-112522000D03*
D25*
X169418000Y-76454000D03*
D26*
X170418000Y-75804000D03*
X169418000Y-75154000D03*
X170418000Y-74504000D03*
X169418000Y-73854000D03*
D27*
X169638000Y-78729000D03*
X169638000Y-71579000D03*
D12*
X127762000Y-93980000D03*
D13*
X125222000Y-93980000D03*
X122682000Y-93980000D03*
X120142000Y-93980000D03*
X117602000Y-93980000D03*
X115062000Y-93980000D03*
X112522000Y-93980000D03*
D12*
X165354000Y-67564000D03*
D13*
X165354000Y-70104000D03*
D28*
X139954000Y-108712000D03*
X133604000Y-67818000D03*
X127254000Y-69088000D03*
X150114000Y-76962000D03*
X128778000Y-77724000D03*
X128778000Y-73914000D03*
D29*
X134874000Y-108712000D02*
X135723999Y-107862001D01*
X140462000Y-105488002D02*
X140462000Y-102870000D01*
X138088001Y-107862001D02*
X140462000Y-105488002D01*
X138088001Y-107862001D02*
X138263999Y-107862001D01*
X135723999Y-107862001D02*
X138088001Y-107862001D01*
X134874000Y-111252000D02*
X135382000Y-111252000D01*
X135382000Y-111252000D02*
X137414000Y-109220000D01*
X137414000Y-109220000D02*
X137922000Y-108712000D01*
X137922000Y-108712000D02*
X139954000Y-108712000D01*
X117622000Y-104160000D02*
X118110000Y-104648000D01*
X113792000Y-104160000D02*
X117622000Y-104160000D01*
X123952000Y-104648000D02*
X118110000Y-104648000D01*
X127254000Y-107950000D02*
X123952000Y-104648000D01*
X116332000Y-115824000D02*
X117094000Y-115062000D01*
X114300000Y-115824000D02*
X116332000Y-115824000D01*
X126454001Y-117818001D02*
X125946001Y-117818001D01*
X127254000Y-118618000D02*
X126454001Y-117818001D01*
X123190000Y-115062000D02*
X117094000Y-115062000D01*
X125946001Y-117818001D02*
X123190000Y-115062000D01*
D30*
X146812000Y-70104000D02*
X146812000Y-72644000D01*
X120650000Y-73152000D02*
X120650000Y-75692000D01*
X120650000Y-75692000D02*
X120650000Y-78232000D01*
X132334000Y-70612000D02*
X133604000Y-69342000D01*
X133604000Y-69342000D02*
X133604000Y-68072000D01*
D31*
X133604000Y-68072000D02*
X133604000Y-67818000D01*
D30*
X118110000Y-66294000D02*
X118110000Y-69596000D01*
X118110000Y-69596000D02*
X120396000Y-71882000D01*
X120650000Y-71949919D02*
X120650000Y-73152000D01*
X120582081Y-71882000D02*
X120650000Y-71949919D01*
X120396000Y-71882000D02*
X120582081Y-71882000D01*
X110744000Y-93980000D02*
X109728000Y-92964000D01*
X112522000Y-93980000D02*
X110744000Y-93980000D01*
X109728000Y-92964000D02*
X109728000Y-72136000D01*
X109728000Y-72136000D02*
X110998000Y-70866000D01*
X110998000Y-70866000D02*
X112776000Y-70866000D01*
X114046000Y-69596000D02*
X118110000Y-69596000D01*
X112776000Y-70866000D02*
X114046000Y-69596000D01*
D29*
X131131919Y-90932000D02*
X132334000Y-90932000D01*
X131064000Y-90864081D02*
X131131919Y-90932000D01*
X120650000Y-78232000D02*
X121499999Y-79081999D01*
X121499999Y-79081999D02*
X121499999Y-81113999D01*
X131064000Y-90424000D02*
X131064000Y-90864081D01*
X121499999Y-81113999D02*
X124968000Y-84582000D01*
X124968000Y-84582000D02*
X124968000Y-88138000D01*
X124968000Y-88138000D02*
X127254000Y-90424000D01*
X127254000Y-90424000D02*
X131064000Y-90424000D01*
D30*
X134874000Y-73152000D02*
X134874000Y-70612000D01*
X134874000Y-70612000D02*
X134874000Y-66548000D01*
X134874000Y-66548000D02*
X150876000Y-66548000D01*
X143256000Y-83566000D02*
X143256000Y-86106000D01*
X148590000Y-82550000D02*
X144272000Y-82550000D01*
X144272000Y-82550000D02*
X143256000Y-83566000D01*
X143256000Y-86106000D02*
X143256000Y-90932000D01*
X151892000Y-68754000D02*
X151892000Y-66548000D01*
X151892000Y-70104000D02*
X151892000Y-68754000D01*
X150876000Y-66548000D02*
X151892000Y-66548000D01*
X151892000Y-70104000D02*
X151892000Y-72644000D01*
X151892000Y-79248000D02*
X151892000Y-72644000D01*
X148590000Y-82550000D02*
X151892000Y-79248000D01*
X134874000Y-66548000D02*
X130810000Y-66548000D01*
X130810000Y-66548000D02*
X130810000Y-67056000D01*
X130810000Y-67056000D02*
X128778000Y-69088000D01*
X128778000Y-69088000D02*
X127254000Y-69088000D01*
X115570000Y-73152000D02*
X115570000Y-75692000D01*
X115570000Y-75692000D02*
X115570000Y-78232000D01*
X111760000Y-78232000D02*
X115570000Y-78232000D01*
X111252000Y-78740000D02*
X111760000Y-78232000D01*
X115062000Y-92777919D02*
X114232081Y-91948000D01*
X115062000Y-93980000D02*
X115062000Y-92777919D01*
X114232081Y-91948000D02*
X112522000Y-91948000D01*
X111252000Y-90678000D02*
X111252000Y-78740000D01*
X112522000Y-91948000D02*
X111252000Y-90678000D01*
D31*
X165100000Y-87376000D02*
X165140000Y-87416000D01*
D30*
X166116000Y-76454000D02*
X169418000Y-76454000D01*
X165100000Y-77470000D02*
X165100000Y-84582000D01*
X165100000Y-84582000D02*
X165100000Y-87376000D01*
X165100000Y-87376000D02*
X165100000Y-93218000D01*
X165100000Y-99838000D02*
X165100000Y-96774000D01*
X167156000Y-101894000D02*
X165100000Y-99838000D01*
X168656000Y-101894000D02*
X167156000Y-101894000D01*
X165100000Y-93218000D02*
X165100000Y-96774000D01*
D31*
X165100000Y-96774000D02*
X165100000Y-97790000D01*
D30*
X165140000Y-84622000D02*
X168656000Y-84622000D01*
D31*
X165100000Y-84582000D02*
X165140000Y-84622000D01*
D30*
X165140000Y-93258000D02*
X168656000Y-93258000D01*
D31*
X165100000Y-93218000D02*
X165140000Y-93258000D01*
D30*
X165354000Y-77216000D02*
X165100000Y-77470000D01*
X163754000Y-67564000D02*
X165354000Y-67564000D01*
X163322000Y-67996000D02*
X163754000Y-67564000D01*
X163322000Y-69088000D02*
X163322000Y-67996000D01*
X162306000Y-70104000D02*
X163322000Y-69088000D01*
X165354000Y-76708000D02*
X165608000Y-76962000D01*
X165354000Y-70104000D02*
X165354000Y-76708000D01*
X165100000Y-77470000D02*
X165608000Y-76962000D01*
X165608000Y-76962000D02*
X166116000Y-76454000D01*
X155448000Y-67564000D02*
X155448000Y-70104000D01*
X151892000Y-70104000D02*
X155448000Y-70104000D01*
X155448000Y-70104000D02*
X162306000Y-70104000D01*
D29*
X137160000Y-74676000D02*
X139192000Y-72644000D01*
X134874000Y-78232000D02*
X137160000Y-75946000D01*
X137160000Y-75946000D02*
X137160000Y-74676000D01*
X134874000Y-80772000D02*
X136906000Y-80772000D01*
X136906000Y-77470000D02*
X139192000Y-75184000D01*
X136906000Y-80772000D02*
X136906000Y-77470000D01*
X131826000Y-82804000D02*
X132334000Y-83312000D01*
X129286000Y-82804000D02*
X128778000Y-82804000D01*
X129286000Y-83312000D02*
X128778000Y-82804000D01*
X132334000Y-83312000D02*
X129286000Y-83312000D01*
X139192000Y-80264000D02*
X139192000Y-77724000D01*
X137414000Y-82042000D02*
X139192000Y-80264000D01*
X134874000Y-83312000D02*
X137414000Y-83312000D01*
X137414000Y-83312000D02*
X137414000Y-82042000D01*
X128778000Y-85852000D02*
X132334000Y-85852000D01*
X131826000Y-88900000D02*
X132334000Y-88392000D01*
X128778000Y-88900000D02*
X131826000Y-88900000D01*
X134874000Y-88392000D02*
X135382000Y-88392000D01*
X134874000Y-88392000D02*
X135723999Y-87542001D01*
X135723999Y-87542001D02*
X146304000Y-76962000D01*
X146304000Y-76962000D02*
X150114000Y-76962000D01*
X139700000Y-86106000D02*
X140716000Y-86106000D01*
X134874000Y-90932000D02*
X139700000Y-86106000D01*
X120142000Y-93980000D02*
X120142000Y-92202000D01*
X120142000Y-92202000D02*
X121412000Y-90932000D01*
X129794000Y-90932000D02*
X132334000Y-93472000D01*
X121412000Y-90932000D02*
X129794000Y-90932000D01*
X138430000Y-90932000D02*
X140716000Y-90932000D01*
X137922000Y-91440000D02*
X138430000Y-90932000D01*
X137922000Y-93472000D02*
X137922000Y-91440000D01*
X134874000Y-96012000D02*
X135382000Y-96012000D01*
X135382000Y-96012000D02*
X137922000Y-93472000D01*
X131131919Y-98552000D02*
X132334000Y-98552000D01*
X128591919Y-98552000D02*
X131131919Y-98552000D01*
X125222000Y-95182081D02*
X128591919Y-98552000D01*
X125222000Y-93980000D02*
X125222000Y-95182081D01*
X155274000Y-88196000D02*
X155274000Y-77470000D01*
X155274000Y-89970000D02*
X155274000Y-88196000D01*
X134874000Y-101092000D02*
X136652000Y-101092000D01*
X136652000Y-101092000D02*
X141732000Y-96012000D01*
X154160400Y-89970000D02*
X155274000Y-89970000D01*
X148118400Y-96012000D02*
X154160400Y-89970000D01*
X141732000Y-96012000D02*
X148118400Y-96012000D01*
X132080000Y-111506000D02*
X132334000Y-111252000D01*
X127254000Y-111506000D02*
X132080000Y-111506000D01*
X155274000Y-104706000D02*
X155274000Y-93980000D01*
X155274000Y-106480000D02*
X155274000Y-104706000D01*
X154160400Y-106480000D02*
X153198400Y-107442000D01*
X155274000Y-106480000D02*
X154160400Y-106480000D01*
X153198400Y-107442000D02*
X147320000Y-107442000D01*
X147320000Y-107442000D02*
X144780000Y-109982000D01*
X144780000Y-109982000D02*
X144780000Y-117856000D01*
X144780000Y-117856000D02*
X141478000Y-121158000D01*
X141478000Y-121158000D02*
X131064000Y-121158000D01*
X131064000Y-121158000D02*
X129794000Y-119888000D01*
X129794000Y-119888000D02*
X129794000Y-117094000D01*
X130556000Y-116332000D02*
X132334000Y-116332000D01*
X129794000Y-117094000D02*
X130556000Y-116332000D01*
X134874000Y-116332000D02*
X136398000Y-116332000D01*
X136398000Y-116332000D02*
X137668000Y-115062000D01*
X137668000Y-115062000D02*
X137668000Y-114300000D01*
X138176000Y-113792000D02*
X139700000Y-113792000D01*
X137668000Y-114300000D02*
X138176000Y-113792000D01*
X134874000Y-118872000D02*
X135507590Y-118872000D01*
X137922000Y-118872000D02*
X139700000Y-117094000D01*
X134874000Y-118872000D02*
X137922000Y-118872000D01*
X117602000Y-101600000D02*
X118110000Y-101092000D01*
X113792000Y-101600000D02*
X117602000Y-101600000D01*
X117729000Y-81915000D02*
X114046000Y-81915000D01*
X118618000Y-82804000D02*
X117729000Y-81915000D01*
X117818001Y-85052001D02*
X116369999Y-85052001D01*
X118618000Y-85852000D02*
X117818001Y-85052001D01*
X115772998Y-84455000D02*
X114046000Y-84455000D01*
X116369999Y-85052001D02*
X115772998Y-84455000D01*
X117818001Y-89699999D02*
X116623999Y-89699999D01*
X118618000Y-88900000D02*
X117818001Y-89699999D01*
X116459000Y-89535000D02*
X114046000Y-89535000D01*
X116623999Y-89699999D02*
X116459000Y-89535000D01*
X116332000Y-110744000D02*
X117094000Y-111506000D01*
X114300000Y-110744000D02*
X116332000Y-110744000D01*
X138430000Y-111252000D02*
X139700000Y-111252000D01*
X136739999Y-112942001D02*
X138430000Y-111252000D01*
X134874000Y-113792000D02*
X135723999Y-112942001D01*
X135723999Y-112942001D02*
X136739999Y-112942001D01*
X131131919Y-75692000D02*
X125730000Y-75692000D01*
X132334000Y-75692000D02*
X131131919Y-75692000D01*
X125730000Y-78232000D02*
X125730000Y-75692000D01*
X125730000Y-75692000D02*
X125730000Y-73152000D01*
X125730000Y-68834000D02*
X123190000Y-66294000D01*
X125730000Y-73152000D02*
X125730000Y-68834000D01*
X123190000Y-68834000D02*
X123190000Y-73152000D01*
X120650000Y-66294000D02*
X123190000Y-68834000D01*
X123190000Y-73152000D02*
X123190000Y-75692000D01*
X123190000Y-75692000D02*
X123190000Y-78232000D01*
X123190000Y-78232000D02*
X123190000Y-79434081D01*
X123190000Y-79434081D02*
X123190000Y-80518000D01*
X123190000Y-80518000D02*
X128524000Y-80518000D01*
X128524000Y-80518000D02*
X128778000Y-80264000D01*
X128778000Y-80264000D02*
X128778000Y-77724000D01*
X129540000Y-73152000D02*
X128778000Y-73914000D01*
X132334000Y-73152000D02*
X129540000Y-73152000D01*
X152400000Y-111252000D02*
X153670000Y-112522000D01*
X149860000Y-111252000D02*
X152400000Y-111252000D01*
X157480000Y-115570000D02*
X160528000Y-112522000D01*
X149860000Y-113792000D02*
X151638000Y-115570000D01*
X151638000Y-115570000D02*
X157480000Y-115570000D01*
X167386000Y-115316000D02*
X167386000Y-112522000D01*
X164338000Y-118364000D02*
X167386000Y-115316000D01*
X149860000Y-117094000D02*
X151130000Y-118364000D01*
X151130000Y-118364000D02*
X164338000Y-118364000D01*
X122682000Y-93980000D02*
X122682000Y-92456000D01*
X122682000Y-92456000D02*
X123444000Y-91694000D01*
X123444000Y-91694000D02*
X129286000Y-91694000D01*
X129286000Y-91694000D02*
X130556000Y-92964000D01*
X130556000Y-94234000D02*
X132334000Y-96012000D01*
X130556000Y-92964000D02*
X130556000Y-94234000D01*
X130810000Y-106172000D02*
X132334000Y-106172000D01*
X130302000Y-105664000D02*
X130810000Y-106172000D01*
X130302000Y-102362000D02*
X130302000Y-105664000D01*
X129831999Y-101891999D02*
X130302000Y-102362000D01*
X128270000Y-101092000D02*
X129069999Y-101891999D01*
X129069999Y-101891999D02*
X129831999Y-101891999D01*
X132334000Y-108712000D02*
X131131919Y-108712000D01*
X129446960Y-106956330D02*
X129446960Y-107027040D01*
X128270000Y-105779370D02*
X129446960Y-106956330D01*
X128270000Y-104648000D02*
X128270000Y-105779370D01*
X131131919Y-108712000D02*
X129446960Y-107027040D01*
X129446960Y-107027040D02*
X129353919Y-106934000D01*
X128524000Y-113792000D02*
X132334000Y-113792000D01*
X127254000Y-115062000D02*
X128524000Y-113792000D01*
M02*
